<svg width="116" height="70" viewBox="0 0 116 70" fill="none" xmlns="http://www.w3.org/2000/svg">
<g clip-path="url(#clip0_76_1082)">
<g filter="url(#filter0_d_76_1082)">
<path d="M20.7603 27.5153C20.7603 27.6816 20.713 27.8004 20.6183 27.9192C20.5473 28.038 20.3816 28.1093 20.1448 28.2043C19.9318 28.2756 19.6241 28.3232 19.2453 28.3707C18.8666 28.4182 18.3931 28.4182 17.8013 28.4182C17.1622 28.4182 16.6651 28.3944 16.2864 28.3707C15.9076 28.3232 15.5999 28.2756 15.3632 28.2043C15.1264 28.1331 14.9607 28.0143 14.8424 27.8717C14.724 27.7291 14.653 27.5628 14.582 27.3489L12.3332 21.076C12.0254 20.1494 11.694 19.389 11.339 18.7712C10.9839 18.1534 10.6051 17.6544 10.1791 17.2743C9.77664 16.8941 9.27953 16.6327 8.75876 16.4664C8.21431 16.3001 7.62252 16.2288 6.95971 16.2288H5.68144V27.5153C5.68144 27.6816 5.63409 27.8004 5.53941 27.9192C5.46839 28.038 5.30269 28.1093 5.08965 28.2043C4.8766 28.2756 4.59254 28.3469 4.21379 28.3707C3.85872 28.4182 3.38529 28.4182 2.84084 28.4182C2.29639 28.4182 1.84663 28.3944 1.46788 28.3707C1.08913 28.3232 0.805071 28.2756 0.592026 28.2043C0.378981 28.1331 0.213279 28.038 0.118593 27.9192C0.0239059 27.8004 -0.0234375 27.6816 -0.0234375 27.5153V0.879158C-0.0234375 0.712831 0.0239059 0.594026 0.118593 0.475221C0.213279 0.356415 0.378981 0.285132 0.592026 0.190088C0.805071 0.118805 1.08913 0.0712831 1.46788 0.023761C1.84663 0.023761 2.29639 0 2.86451 0C3.40896 0 3.88239 0.023761 4.23747 0.0475221C4.59254 0.0950441 4.8766 0.142566 5.11332 0.213849C5.32636 0.285132 5.49206 0.380176 5.56308 0.498982C5.65777 0.594026 5.70511 0.736592 5.70511 0.902919V11.4528H6.98338C7.62252 11.4528 8.21431 11.3578 8.68774 11.1914C9.18485 11.0251 9.63461 10.74 10.037 10.3598C10.4394 9.97963 10.7945 9.48065 11.1259 8.88663C11.4573 8.2926 11.7651 7.53225 12.0728 6.65309L13.9665 1.04549C14.0375 0.855397 14.1322 0.665309 14.2269 0.546504C14.2979 0.403938 14.44 0.308893 14.6767 0.23761C14.8897 0.166327 15.1975 0.0950441 15.5525 0.0712831C15.9313 0.023761 16.4284 0 17.0438 0C17.612 0 18.0617 0.023761 18.4405 0.0475221C18.8192 0.0950441 19.1033 0.142566 19.3163 0.213849C19.5057 0.285132 19.6477 0.356415 19.7187 0.475221C19.7898 0.594026 19.8371 0.712831 19.8371 0.879158C19.8371 1.06925 19.8134 1.30686 19.7424 1.56823C19.6714 1.85336 19.5767 2.20978 19.411 2.66124L17.541 7.65105C17.1859 8.57773 16.8545 9.36185 16.4994 10.0272C16.1443 10.6687 15.7892 11.239 15.4105 11.6904C15.0318 12.1419 14.6293 12.5221 14.2032 12.8072C13.7772 13.0923 13.3037 13.3299 12.7829 13.52V13.5438C13.3511 13.8052 13.8955 14.0665 14.3453 14.3754C14.8187 14.6843 15.2685 15.0883 15.6709 15.5635C16.0733 16.0387 16.4757 16.6327 16.8545 17.3218C17.2332 18.0109 17.612 18.8663 17.9907 19.888L20.2869 25.7332C20.5236 26.3272 20.6656 26.7312 20.6893 26.9688C20.7366 27.1826 20.7603 27.3727 20.7603 27.5153ZM84.4845 27.5153C84.4845 27.6816 84.4371 27.8004 84.3424 27.9192C84.2714 28.038 84.1057 28.1093 83.869 28.2043C83.656 28.2756 83.3482 28.3232 82.9695 28.3707C82.5907 28.4182 82.1173 28.4182 81.5255 28.4182C80.8864 28.4182 80.3893 28.3944 80.0105 28.3707C79.6318 28.3232 79.3241 28.2756 79.0873 28.2043C78.8506 28.1331 78.6849 28.0143 78.5666 27.8717C78.4482 27.7291 78.3772 27.5628 78.3062 27.3489L76.0574 21.076C75.7496 20.1494 75.4182 19.389 75.0631 18.7712C74.7081 18.1534 74.3293 17.6544 73.9032 17.2743C73.5008 16.8941 73.0037 16.6327 72.4829 16.4664C71.9385 16.3001 71.3467 16.2288 70.6839 16.2288H69.4056V27.5153C69.4056 27.6816 69.3583 27.8004 69.2636 27.9192C69.1926 28.038 69.0269 28.1093 68.8138 28.2043C68.6008 28.2756 68.3167 28.3469 67.938 28.3707C67.5829 28.4182 67.1095 28.4182 66.565 28.4182C66.0206 28.4182 65.5708 28.3944 65.1921 28.3707C64.8133 28.3232 64.5293 28.2756 64.3162 28.2043C64.1032 28.1331 63.9375 28.038 63.8428 27.9192C63.7481 27.8004 63.7007 27.6816 63.7007 27.5153V0.879158C63.7007 0.712831 63.7481 0.594026 63.8428 0.475221C63.9375 0.356415 64.1032 0.285132 64.3162 0.190088C64.5293 0.118805 64.8133 0.0712831 65.1921 0.023761C65.5708 0.023761 66.0442 0 66.5887 0C67.1331 0 67.6066 0.023761 67.9616 0.0475221C68.3167 0.0950441 68.6008 0.142566 68.8375 0.213849C69.0505 0.285132 69.2162 0.380176 69.2873 0.498982C69.3819 0.594026 69.4293 0.736592 69.4293 0.902919V11.4528H70.7076C71.3467 11.4528 71.9385 11.3578 72.4119 11.1914C72.909 11.0251 73.3588 10.74 73.7612 10.3598C74.1636 9.97963 74.5187 9.48065 74.8501 8.88663C75.1815 8.2926 75.4892 7.53225 75.797 6.65309L77.6907 1.04549C77.7617 0.855397 77.8564 0.665309 77.9511 0.546504C78.0458 0.403938 78.2115 0.285132 78.4482 0.213849C78.6612 0.142566 78.969 0.0712831 79.3241 0.0475221C79.6791 0 80.1762 0 80.7917 0C81.3598 0 81.8096 0.023761 82.1883 0.0475221C82.5671 0.0950441 82.8511 0.142566 83.0642 0.213849C83.2772 0.285132 83.4193 0.356415 83.4903 0.475221C83.5613 0.594026 83.6086 0.712831 83.6086 0.879158C83.6086 1.06925 83.5849 1.30686 83.5139 1.56823C83.4429 1.85336 83.3482 2.20978 83.1825 2.66124L81.3125 7.65105C80.9574 8.57773 80.626 9.36185 80.2709 10.0272C79.9158 10.6687 79.5608 11.239 79.182 11.6904C78.8033 12.1419 78.4008 12.5221 77.9748 12.8072C77.5487 13.0923 77.0752 13.3299 76.5545 13.52V13.5438C77.1226 13.8052 77.667 14.0665 78.1168 14.3754C78.5902 14.6843 79.04 15.0883 79.4424 15.5635C79.8448 16.0387 80.2472 16.6327 80.626 17.3218C81.0047 18.0109 81.3835 18.8663 81.7622 19.888L84.0584 25.7332C84.2951 26.3272 84.4371 26.7312 84.4608 26.9688C84.4608 27.1826 84.4845 27.3727 84.4845 27.5153Z" fill="black"/>
</g>
<g filter="url(#filter1_d_76_1082)">
<path d="M57.6172 27.4916C57.6172 27.6342 57.5698 27.7767 57.4988 27.8955C57.4278 28.0143 57.2621 28.1094 57.0727 28.1807C56.8597 28.252 56.5756 28.2995 56.2442 28.347C55.8891 28.3945 55.463 28.4183 54.9186 28.4183C54.3978 28.4183 53.948 28.3945 53.6166 28.347C53.2616 28.2995 53.0012 28.252 52.7881 28.1807C52.5988 28.1094 52.4331 28.0143 52.362 27.8955C52.2674 27.7767 52.22 27.6342 52.22 27.4916V6.29676C52.22 6.1542 52.1253 6.03539 51.9833 6.01163C51.8413 5.98787 51.6992 6.05915 51.6519 6.20172L44.1006 27.4678C44.0533 27.6579 43.9586 27.8005 43.8166 27.9431C43.6745 28.0619 43.5088 28.1569 43.2958 28.2282C43.0827 28.2995 42.775 28.347 42.4436 28.3708C42.0885 28.3945 41.6861 28.3945 41.189 28.3945C40.6919 28.3945 40.2895 28.3708 39.9344 28.347C39.5793 28.2995 39.2953 28.252 39.0822 28.1807C38.8692 28.1094 38.6798 28.0143 38.5615 27.8955C38.4431 27.7767 38.3484 27.6342 38.3011 27.4916L31.0102 6.29676C30.9628 6.1542 30.8208 6.08292 30.6788 6.10668C30.5368 6.13044 30.4421 6.24924 30.4421 6.39181V27.5154C30.4421 27.6579 30.3947 27.8005 30.3237 27.9193C30.2527 28.0381 30.087 28.1332 29.8739 28.2044C29.6609 28.2757 29.3768 28.3232 29.0218 28.3708C28.6904 28.4183 28.2406 28.442 27.7198 28.442C27.199 28.442 26.7493 28.4183 26.4179 28.3708C26.0628 28.3232 25.7787 28.2757 25.5894 28.2044C25.3763 28.1332 25.2343 28.0381 25.1633 27.9193C25.0923 27.8005 25.0449 27.6579 25.0449 27.5154V2.42372C25.0449 1.68712 25.2343 1.11686 25.6367 0.712922C26.0391 0.308985 26.5362 0.118896 27.199 0.118896H30.9155C31.5783 0.118896 32.1464 0.166419 32.6199 0.285224C33.0933 0.404029 33.5194 0.570356 33.8508 0.831727C34.1822 1.0931 34.4899 1.42575 34.7266 1.82969C34.9634 2.23363 35.1527 2.75637 35.3421 3.37416L41.3784 20.1257H41.4731L47.7224 3.39792C47.9118 2.78013 48.1248 2.28115 48.3379 1.85345C48.5746 1.44951 48.835 1.0931 49.119 0.831727C49.4031 0.570356 49.7582 0.380268 50.1606 0.285224C50.563 0.166419 51.0364 0.118896 51.5809 0.118896H55.4157C55.8181 0.118896 56.1495 0.166419 56.4099 0.285224C56.694 0.380268 56.9307 0.522834 57.0964 0.736683C57.2858 0.926772 57.4041 1.16438 57.4988 1.44951C57.5935 1.73465 57.6408 2.0673 57.6408 2.42372V27.4916H57.6172Z" fill="#F50014"/>
</g>
<path d="M6.01233 42.746C6.01233 42.7935 5.98866 42.841 5.96499 42.8648C5.94132 42.8886 5.89397 42.9123 5.82296 42.9361C5.75194 42.9598 5.68093 42.9836 5.56257 42.9836C5.44421 42.9836 5.32585 43.0074 5.13648 43.0074C4.94711 43.0074 4.80508 43.0074 4.71039 42.9836C4.59203 42.9836 4.49735 42.9598 4.45 42.9361C4.37899 42.9123 4.33164 42.8886 4.30797 42.841C4.2843 42.7935 4.26063 42.746 4.23696 42.6985L3.57415 40.8926C3.47946 40.6313 3.38478 40.3936 3.29009 40.2273C3.1954 40.061 3.07704 39.8947 2.95869 39.7996C2.84033 39.6808 2.6983 39.6095 2.55627 39.562C2.39057 39.5145 2.22486 39.4907 2.03549 39.4907H1.63307V42.7697C1.63307 42.8173 1.6094 42.8648 1.58573 42.8886C1.56206 42.9123 1.51471 42.9361 1.4437 42.9598C1.37268 42.9836 1.30167 43.0074 1.18331 43.0074C1.08862 43.0074 0.946593 43.0311 0.780891 43.0311C0.61519 43.0311 0.496831 43.0311 0.378473 43.0074C0.260115 43.0074 0.189099 42.9836 0.118084 42.9598C0.0470693 42.9361 -0.00027401 42.9123 -0.0239457 42.8886C0.0233977 42.8173 -0.00027401 42.7697 -0.00027401 42.7222V35.0237C-0.00027401 34.9761 0.0233977 34.9286 0.0470693 34.9048C0.070741 34.8811 0.118084 34.8573 0.189099 34.8336C0.260114 34.8098 0.33113 34.786 0.449488 34.786C0.567846 34.786 0.686205 34.7623 0.851907 34.7623C1.01761 34.7623 1.13597 34.7623 1.25433 34.786C1.34901 34.786 1.4437 34.8098 1.51471 34.8336C1.58573 34.8573 1.63307 34.8811 1.65674 34.9048C1.68042 34.9286 1.70409 34.9761 1.70409 35.0237V38.0888H2.08283C2.27221 38.0888 2.43791 38.0651 2.57994 38.0175C2.72197 37.97 2.84033 37.875 2.95869 37.7799C3.07704 37.6611 3.17173 37.5186 3.26642 37.3522C3.3611 37.1859 3.45579 36.9721 3.55048 36.7107L4.09493 35.0949C4.1186 35.0474 4.14227 34.9761 4.16594 34.9524C4.18961 34.9048 4.23696 34.8811 4.30797 34.8573C4.37899 34.8336 4.45 34.8098 4.56836 34.8098C4.66305 34.8098 4.80508 34.786 4.99445 34.786C5.16015 34.786 5.30218 34.786 5.39687 34.8098C5.51523 34.8098 5.58624 34.8336 5.65726 34.8573C5.72827 34.8811 5.75194 34.9048 5.77562 34.9286C5.79929 34.9524 5.79929 34.9999 5.79929 35.0474C5.79929 35.0949 5.79929 35.1662 5.77562 35.2613C5.75194 35.3325 5.72827 35.4514 5.68093 35.5702L5.13648 37.0196C5.04179 37.281 4.92344 37.5186 4.82875 37.7086C4.73406 37.8987 4.6157 38.0651 4.52102 38.1839C4.40266 38.3264 4.2843 38.4215 4.16594 38.5165C4.04758 38.6116 3.90555 38.6591 3.76352 38.7304C3.92922 38.8017 4.07125 38.8729 4.21328 38.968C4.35532 39.063 4.47367 39.1818 4.59203 39.3006C4.71039 39.4432 4.82875 39.6095 4.92344 39.8234C5.04179 40.0372 5.13648 40.2748 5.25484 40.56L5.91765 42.247C5.98866 42.4133 6.036 42.5321 6.036 42.6034C6.01233 42.6509 6.01233 42.6985 6.01233 42.746ZM25.0444 69.6435C25.0444 69.691 25.0444 69.7148 25.0207 69.7623C24.997 69.786 24.9497 69.8336 24.9023 69.8336C24.8313 69.8573 24.7603 69.8811 24.6656 69.8811C24.5709 69.9049 24.4289 69.9049 24.2869 69.9049C24.1448 69.9049 24.0028 69.9049 23.9081 69.8811C23.8134 69.8573 23.7188 69.8573 23.6714 69.8336C23.6241 69.8098 23.5767 69.786 23.5531 69.7623C23.5294 69.7385 23.5057 69.691 23.5057 69.6435V63.0142H23.482L21.1385 69.6435C21.1149 69.691 21.0912 69.7385 21.0675 69.786C21.0202 69.8336 20.9728 69.8573 20.9018 69.8811C20.8308 69.9049 20.7598 69.9048 20.6651 69.9286C20.5704 69.9286 20.4521 69.9286 20.31 69.9286C20.168 69.9286 20.0496 69.9286 19.955 69.9049C19.8603 69.9049 19.7656 69.8811 19.7182 69.8573C19.6472 69.8336 19.5999 69.8098 19.5525 69.7623C19.5052 69.7385 19.4815 69.691 19.4815 69.6435L17.209 63.0142H17.1854V69.6435C17.1854 69.691 17.1854 69.7148 17.1617 69.7623C17.138 69.786 17.0907 69.8336 17.0433 69.8336C16.9723 69.8573 16.9013 69.8811 16.8066 69.8811C16.7119 69.9049 16.5936 69.9049 16.4279 69.9049C16.2858 69.9049 16.1438 69.9049 16.0491 69.8811C15.9544 69.8573 15.8598 69.8573 15.8124 69.8336C15.7414 69.8098 15.7177 69.786 15.6941 69.7623C15.6704 69.7385 15.6704 69.691 15.6704 69.6435V62.3726C15.6704 62.1588 15.7177 61.9924 15.8361 61.8736C15.9544 61.7548 16.0965 61.7073 16.2858 61.7073H17.3747C17.5641 61.7073 17.7298 61.7311 17.8718 61.7548C18.0139 61.7786 18.1322 61.8499 18.2269 61.9211C18.3216 61.9924 18.4163 62.0875 18.4873 62.2063C18.5583 62.3251 18.6057 62.4676 18.653 62.6577L20.4047 67.505H20.3574L22.1801 62.6577C22.2274 62.4914 22.2985 62.3251 22.3695 62.2063C22.4405 62.0875 22.5115 61.9924 22.6062 61.9211C22.7009 61.8499 22.7956 61.8023 22.9139 61.7548C23.0323 61.7311 23.1743 61.7073 23.3163 61.7073H24.4289C24.5473 61.7073 24.6419 61.7311 24.713 61.7548C24.784 61.7786 24.855 61.8261 24.9023 61.8736C24.9497 61.9211 24.997 61.9924 25.0207 62.0875C25.0444 62.1587 25.068 62.2538 25.068 62.3726V69.6435H25.0444ZM33.1401 69.6435C33.1401 69.691 33.1164 69.7148 33.0927 69.7623C33.0691 69.786 33.0217 69.8098 32.9507 69.8336C32.8797 69.8573 32.8087 69.8811 32.6903 69.8811C32.572 69.8811 32.4536 69.9049 32.2879 69.9049C32.1222 69.9049 32.0038 69.9049 31.8855 69.8811C31.7671 69.8811 31.6961 69.8573 31.6251 69.8336C31.5541 69.8098 31.5067 69.786 31.4831 69.7623C31.4594 69.7385 31.4357 69.691 31.4357 69.6435V63.0854H28.4057V69.6435C28.4057 69.691 28.3821 69.7148 28.3584 69.7623C28.3347 69.786 28.2874 69.8098 28.2164 69.8336C28.1454 69.8573 28.0743 69.8811 27.956 69.8811C27.8613 69.8811 27.7193 69.9049 27.5536 69.9049C27.3879 69.9049 27.2695 69.9049 27.1511 69.8811C27.0328 69.8811 26.9618 69.8573 26.8908 69.8336C26.8197 69.8098 26.7724 69.786 26.7487 69.7623C26.7251 69.7385 26.7014 69.691 26.7014 69.6435V62.23C26.7014 62.0637 26.7487 61.9211 26.8434 61.8261C26.9381 61.7311 27.0565 61.7073 27.1985 61.7073H32.6666C32.8087 61.7073 32.927 61.7548 33.0217 61.8261C33.1164 61.9211 33.1401 62.0399 33.1401 62.23V69.6435ZM41.5435 69.2395C41.5909 69.3821 41.6145 69.5009 41.6382 69.596C41.6619 69.691 41.6382 69.7623 41.5909 69.786C41.5435 69.8336 41.4725 69.8573 41.3542 69.8573C41.2358 69.8573 41.0701 69.8811 40.8807 69.8811C40.6677 69.8811 40.502 69.8811 40.3836 69.8811C40.2653 69.8811 40.1706 69.8573 40.0996 69.8336C40.0285 69.8098 40.0049 69.786 39.9575 69.7623C39.9339 69.7385 39.9102 69.691 39.8865 69.6197L39.3421 67.9802H36.2884L35.7676 69.5722C35.744 69.6435 35.7203 69.691 35.6966 69.7148C35.673 69.7623 35.6256 69.786 35.5546 69.8098C35.4836 69.8336 35.4126 69.8573 35.2942 69.8573C35.1758 69.8573 35.0338 69.8811 34.8681 69.8811C34.6787 69.8811 34.5367 69.8811 34.4184 69.8573C34.3 69.8336 34.229 69.8098 34.2053 69.7623C34.158 69.7148 34.158 69.6435 34.158 69.5484C34.1816 69.4534 34.2053 69.3346 34.2527 69.192L36.7618 61.9687C36.7855 61.8974 36.8092 61.8499 36.8565 61.8023C36.8802 61.7548 36.9512 61.7311 37.0222 61.7073C37.0933 61.6835 37.1879 61.6598 37.33 61.6598C37.4483 61.6598 37.6377 61.6598 37.8507 61.6598C38.0875 61.6598 38.3005 61.6598 38.4425 61.6598C38.5846 61.6598 38.7029 61.6835 38.7739 61.7073C38.845 61.7311 38.916 61.7548 38.9396 61.8023C38.9633 61.8499 39.0107 61.9211 39.0343 61.9924L41.5435 69.2395ZM37.8271 63.2755L36.6908 66.7446H38.9633L37.8271 63.2755ZM49.0238 69.6435C49.0238 69.691 49.0001 69.7148 48.9764 69.7623C48.9528 69.786 48.9054 69.8336 48.8344 69.8336C48.7634 69.8573 48.6924 69.8811 48.574 69.8811C48.4793 69.9049 48.3373 69.9049 48.1716 69.9049C48.0059 69.9049 47.8639 69.9049 47.7692 69.8811C47.6508 69.8573 47.5798 69.8573 47.5088 69.8336C47.4378 69.8098 47.4141 69.786 47.3668 69.7623C47.3431 69.7385 47.3194 69.691 47.3194 69.6435V66.3407H44.2658V69.6435C44.2658 69.691 44.2421 69.7148 44.2184 69.7623C44.1948 69.786 44.1474 69.8336 44.0764 69.8336C44.0054 69.8573 43.9344 69.8811 43.816 69.8811C43.7213 69.9049 43.5793 69.9049 43.4136 69.9049C43.2479 69.9049 43.1295 69.9049 43.0112 69.8811C42.8928 69.8573 42.8218 69.8573 42.7508 69.8336C42.6798 69.8098 42.6324 69.786 42.6088 69.7623C42.5851 69.7385 42.5614 69.691 42.5614 69.6435V61.9449C42.5614 61.8974 42.5851 61.8736 42.6088 61.8261C42.6324 61.8023 42.6798 61.7548 42.7508 61.7548C42.8218 61.7311 42.8928 61.7073 43.0112 61.7073C43.1295 61.6835 43.2479 61.6835 43.4136 61.6835C43.5793 61.6835 43.6977 61.6835 43.816 61.7073C43.9107 61.7311 44.0054 61.7311 44.0764 61.7548C44.1474 61.7786 44.1948 61.8023 44.2184 61.8261C44.2421 61.8499 44.2658 61.8974 44.2658 61.9449V64.9388H47.3194V61.9449C47.3194 61.8974 47.3431 61.8736 47.3668 61.8261C47.3904 61.8023 47.4378 61.7548 47.5088 61.7548C47.5798 61.7311 47.6508 61.7073 47.7692 61.7073C47.8875 61.6835 48.0059 61.6835 48.1716 61.6835C48.3373 61.6835 48.4557 61.6835 48.574 61.7073C48.6687 61.7311 48.7634 61.7311 48.8344 61.7548C48.9054 61.7786 48.9528 61.8023 48.9764 61.8261C49.0001 61.8499 49.0238 61.8974 49.0238 61.9449V69.6435ZM57.4036 69.6435C57.4036 69.691 57.3799 69.7148 57.3562 69.7623C57.3325 69.786 57.2852 69.8098 57.2142 69.8336C57.1432 69.8573 57.0722 69.8811 56.9538 69.8811C56.8354 69.8811 56.7171 69.9049 56.5514 69.9049C56.3857 69.9049 56.2673 69.9049 56.149 69.8811C56.0306 69.8811 55.9596 69.8573 55.8886 69.8336C55.8176 69.8098 55.7939 69.786 55.7702 69.7623C55.7465 69.7385 55.7229 69.691 55.7229 69.6435V65.3427C55.7229 65.1764 55.7229 65.0101 55.7229 64.8675C55.7229 64.7012 55.7229 64.5586 55.7465 64.4398H55.7229C55.6992 64.4873 55.6519 64.5586 55.6045 64.6537C55.5572 64.7249 55.5098 64.82 55.4625 64.8913C55.4151 64.9863 55.3441 65.0576 55.2968 65.1526C55.2258 65.2477 55.1784 65.3427 55.1311 65.414L52.3141 69.6435C52.2905 69.691 52.2431 69.7385 52.2195 69.7623C52.1721 69.786 52.1484 69.8336 52.0774 69.8336C52.0301 69.8573 51.9591 69.8573 51.8644 69.8811C51.7934 69.8811 51.675 69.8811 51.5567 69.8811C51.3909 69.8811 51.2726 69.8811 51.1542 69.8573C51.0595 69.8573 50.9649 69.8336 50.9175 69.8098C50.8702 69.786 50.8228 69.7623 50.7992 69.7385C50.7755 69.7148 50.7755 69.6672 50.7755 69.6197V61.9211C50.7755 61.8736 50.7992 61.8499 50.8228 61.8023C50.8465 61.7786 50.8938 61.7548 50.9649 61.731C51.0359 61.7073 51.1069 61.6835 51.2252 61.6835C51.3199 61.6835 51.462 61.6598 51.6277 61.6598C51.7934 61.6598 51.9117 61.6598 52.0301 61.6835C52.1248 61.6835 52.2195 61.7073 52.2905 61.731C52.3615 61.7548 52.4088 61.7786 52.4325 61.8023C52.4562 61.8261 52.4798 61.8736 52.4798 61.9211V66.2456C52.4798 66.3882 52.4798 66.5308 52.4798 66.6733C52.4798 66.8159 52.4798 66.9822 52.4562 67.1248H52.4798C52.5509 67.006 52.6455 66.8397 52.7402 66.6733C52.8586 66.507 52.9533 66.3169 53.0716 66.1506L55.8886 61.9211C55.9122 61.8736 55.9596 61.8499 55.9833 61.8023C56.0069 61.7786 56.0543 61.7548 56.1253 61.731C56.1726 61.7073 56.2436 61.7073 56.3383 61.6835C56.433 61.6835 56.5277 61.6598 56.6697 61.6598C56.8354 61.6598 56.9538 61.6598 57.0485 61.6835C57.1432 61.6835 57.2142 61.7073 57.2852 61.731C57.3325 61.7548 57.3799 61.7786 57.4036 61.8023C57.4272 61.8261 57.4272 61.8736 57.4272 61.9211V69.6435H57.4036ZM64.7654 69.6435C64.7654 69.691 64.7418 69.7148 64.7181 69.7623C64.6944 69.786 64.6471 69.8098 64.5997 69.8336C64.5287 69.8573 64.4577 69.8811 64.3394 69.8811C64.221 69.8811 64.1026 69.9049 63.9369 69.9049C63.7712 69.9049 63.6292 69.9049 63.5345 69.8811C63.4398 69.8811 63.3451 69.8573 63.2741 69.8336C63.2031 69.8098 63.1558 69.786 63.1321 69.7623C63.1084 69.7385 63.0848 69.691 63.0848 69.6435V66.6021H62.4693C62.2089 66.6021 62.0195 66.6258 61.9012 66.6733C61.7591 66.7209 61.6408 66.7922 61.5461 66.911C61.4514 67.006 61.3567 67.1486 61.262 67.3149C61.191 67.4812 61.0963 67.6475 61.0253 67.8614L60.4099 69.6197C60.3862 69.6672 60.3625 69.7148 60.3388 69.7385C60.3152 69.786 60.2442 69.8098 60.1731 69.8336C60.1021 69.8573 60.0074 69.8811 59.9128 69.8811C59.7944 69.8811 59.6524 69.9049 59.4867 69.9049C59.2973 69.9049 59.1553 69.9049 59.0369 69.8811C58.9185 69.8573 58.8475 69.8573 58.7765 69.8336C58.7292 69.8098 58.6818 69.786 58.6582 69.7623C58.6345 69.7385 58.6345 69.691 58.6345 69.6672C58.6345 69.6197 58.6345 69.5722 58.6582 69.5009C58.6818 69.4296 58.7055 69.3583 58.7528 69.2158L59.3683 67.6238C59.4393 67.4099 59.534 67.2436 59.605 67.0773C59.6997 66.911 59.7707 66.7922 59.8891 66.6496C59.9838 66.5308 60.1021 66.412 60.2205 66.3407C60.3388 66.2457 60.4572 66.1981 60.5992 66.1268C60.3388 66.0556 60.1021 65.9605 59.9128 65.8417C59.7234 65.7229 59.5577 65.5803 59.4156 65.414C59.2736 65.2477 59.1789 65.0576 59.1079 64.8437C59.0369 64.6299 59.0132 64.3923 59.0132 64.1072C59.0132 63.727 59.0842 63.3943 59.2026 63.1092C59.321 62.8003 59.5103 62.5627 59.7707 62.3488C60.0311 62.135 60.3388 61.9687 60.7176 61.8499C61.0963 61.731 61.6171 61.6835 62.2799 61.6835H64.2683C64.4104 61.6835 64.5051 61.7311 64.5997 61.8023C64.6944 61.8736 64.7418 62.0162 64.7418 62.2063V69.6435H64.7654ZM63.1321 62.9904H62.2799C61.9248 62.9904 61.6645 63.0141 61.4751 63.0617C61.3094 63.1092 61.1673 63.2042 61.049 63.2993C60.9306 63.3943 60.8596 63.5131 60.8123 63.6795C60.7649 63.822 60.7413 63.9883 60.7413 64.1547C60.7413 64.321 60.7649 64.4873 60.8123 64.6299C60.8596 64.7725 60.9543 64.8913 61.0727 65.0101C61.191 65.1289 61.333 65.2002 61.4987 65.2477C61.6881 65.2952 61.9248 65.3427 62.2562 65.3427H63.1321V62.9904ZM45.0943 56.1947C45.0943 56.2423 45.0706 56.266 45.0469 56.3135C45.0233 56.3373 44.9759 56.3611 44.9049 56.3848C44.8339 56.4086 44.7629 56.4323 44.6445 56.4323C44.5262 56.4323 44.4078 56.4561 44.2421 56.4561C44.0764 56.4561 43.9344 56.4561 43.8397 56.4323C43.745 56.4323 43.6503 56.4086 43.5793 56.3848C43.5083 56.3611 43.4609 56.3373 43.4373 56.3135C43.4136 56.2898 43.3899 56.2423 43.3899 56.1947V49.6129H41.6619C41.5435 50.5871 41.4252 51.4188 41.3068 52.1316C41.1885 52.8444 41.0464 53.4622 40.9281 53.985C40.786 54.5077 40.644 54.9116 40.4783 55.2443C40.3126 55.5769 40.1232 55.8383 39.9102 56.0284C39.6971 56.2185 39.4604 56.3611 39.2 56.4323C38.9396 56.5036 38.6319 56.5511 38.3005 56.5511C38.2295 56.5511 38.1822 56.5511 38.1348 56.5274C38.0875 56.5036 38.0638 56.4799 38.0164 56.4323C37.9928 56.3848 37.9691 56.3135 37.9454 56.2423C37.9218 56.1472 37.9218 56.0522 37.9218 55.9334C37.9218 55.7433 37.9218 55.6007 37.9454 55.5057C37.9454 55.3869 37.9691 55.3156 37.9928 55.2443C38.0164 55.173 38.0401 55.1492 38.0875 55.1255C38.1111 55.1017 38.1585 55.1017 38.2058 55.1017C38.3242 55.1017 38.4662 55.078 38.5846 55.0304C38.7029 54.9829 38.8213 54.8641 38.9396 54.7215C39.058 54.5552 39.1527 54.3414 39.271 54.0562C39.3657 53.7711 39.4841 53.4147 39.5788 52.9395C39.6735 52.488 39.7682 51.9177 39.8628 51.2524C39.9575 50.5871 40.0522 49.803 40.1706 48.9001C40.1942 48.6862 40.2416 48.5437 40.3126 48.4486C40.3836 48.3536 40.502 48.3298 40.644 48.3298H44.6208C44.7629 48.3298 44.8812 48.3774 44.9759 48.4486C45.0469 48.5437 45.0943 48.6625 45.0943 48.8526V56.1947ZM50.7281 54.1513C50.5388 54.6265 50.3731 55.0067 50.1837 55.3156C49.9943 55.6245 49.8049 55.8621 49.6156 56.0522C49.4025 56.2423 49.1895 56.3611 48.9528 56.4323C48.716 56.5036 48.432 56.5274 48.1243 56.5274C48.0059 56.5274 47.9112 56.5274 47.7929 56.5036C47.6745 56.4799 47.5798 56.4799 47.4851 56.4323C47.3904 56.4086 47.2957 56.3848 47.2247 56.3373C47.1537 56.3135 47.1064 56.266 47.059 56.2423C47.0354 56.2185 46.988 56.171 46.988 56.1472C46.9643 56.1234 46.9643 56.0759 46.9407 56.0046C46.917 55.9571 46.917 55.8621 46.917 55.7908C46.917 55.6958 46.917 55.5769 46.917 55.4581C46.917 55.2205 46.9407 55.0304 46.9643 54.9354C46.988 54.8404 47.059 54.7691 47.13 54.7691C47.1774 54.7691 47.2011 54.7928 47.2484 54.8166C47.2957 54.8404 47.3431 54.8879 47.4141 54.9116C47.4851 54.9354 47.5561 54.9829 47.6272 55.0067C47.7218 55.0304 47.8165 55.0542 47.9349 55.0542C48.0296 55.0542 48.1006 55.0542 48.1716 55.0304C48.2426 55.0067 48.3136 54.9829 48.3846 54.9116C48.4557 54.8641 48.5267 54.7691 48.574 54.674C48.645 54.579 48.716 54.4602 48.7871 54.2938L46.1122 48.8288C46.0648 48.6862 46.0175 48.5912 46.0175 48.5199C46.0175 48.4486 46.0175 48.3774 46.0648 48.3298C46.1122 48.2823 46.2068 48.2585 46.3252 48.2348C46.4436 48.211 46.6093 48.211 46.7986 48.211C46.988 48.211 47.1537 48.211 47.2721 48.2348C47.3904 48.2348 47.4851 48.2585 47.5561 48.2823C47.6272 48.3061 47.6745 48.3536 47.7218 48.4011C47.7692 48.4486 47.7929 48.5199 47.8402 48.615L48.9764 51.0861C49.0948 51.3475 49.2132 51.6089 49.3315 51.8702C49.4499 52.1316 49.5446 52.393 49.6629 52.6543H49.6866C49.7813 52.3692 49.8523 52.1078 49.947 51.8227C50.0417 51.5613 50.1363 51.2762 50.2547 50.9911L51.2016 48.4962C51.2252 48.4486 51.2489 48.4011 51.2726 48.3536C51.2963 48.3061 51.3673 48.2823 51.4146 48.2585C51.4856 48.2348 51.5803 48.2348 51.6987 48.211C51.817 48.211 51.9591 48.211 52.1484 48.211C52.3378 48.211 52.5035 48.211 52.5982 48.2348C52.7166 48.2585 52.7876 48.2823 52.8349 48.3061C52.8823 48.3536 52.9059 48.4011 52.9059 48.4486C52.9059 48.5199 52.8823 48.5912 52.8349 48.6862L50.7281 54.1513ZM59.463 50.7297C59.463 51.1812 59.392 51.5851 59.2499 51.9415C59.1079 52.2979 58.8949 52.5831 58.6345 52.8444C58.3741 53.082 58.019 53.2721 57.6403 53.3909C57.2379 53.5097 56.7881 53.581 56.2436 53.581H55.5572V56.171C55.5572 56.2185 55.5335 56.2423 55.5098 56.2898C55.4861 56.3135 55.4388 56.3611 55.3678 56.3611C55.2968 56.3848 55.2258 56.4086 55.1074 56.4086C55.0127 56.4323 54.8707 56.4323 54.705 56.4323C54.5393 56.4323 54.4209 56.4323 54.3026 56.4086C54.1842 56.3848 54.1132 56.3848 54.0422 56.3611C53.9712 56.3373 53.9238 56.3135 53.9001 56.2898C53.8765 56.266 53.8528 56.2185 53.8528 56.171V48.8526C53.8528 48.6625 53.9001 48.4962 54.0185 48.4011C54.1132 48.3061 54.2552 48.2585 54.4209 48.2585H56.3383C56.5277 48.2585 56.7171 48.2585 56.8828 48.2823C57.0485 48.3061 57.2615 48.3298 57.4982 48.3774C57.735 48.4249 57.9953 48.5199 58.2321 48.6387C58.4688 48.7575 58.7055 48.9239 58.8712 49.1377C59.0369 49.3278 59.1789 49.5654 59.2736 49.8268C59.4156 50.1119 59.463 50.397 59.463 50.7297ZM57.735 50.8485C57.735 50.5634 57.6876 50.3258 57.5929 50.1357C57.4982 49.9456 57.3799 49.803 57.2142 49.7317C57.0722 49.6367 56.9064 49.5892 56.7407 49.5654C56.575 49.5416 56.4093 49.5416 56.2436 49.5416H55.5335V52.3217H56.2673C56.5277 52.3217 56.7644 52.2742 56.9301 52.2029C57.1195 52.1316 57.2615 52.0366 57.3799 51.894C57.4982 51.7752 57.5693 51.6089 57.6403 51.4425C57.7113 51.2762 57.735 51.0623 57.735 50.8485ZM65.3336 48.9476C65.3336 49.0664 65.3336 49.1852 65.3099 49.2565C65.3099 49.3516 65.2862 49.4228 65.2626 49.4704C65.2389 49.5179 65.2152 49.5654 65.1915 49.5892C65.1679 49.6129 65.1205 49.6129 65.0732 49.6129H62.3746V56.1947C62.3746 56.2423 62.3509 56.266 62.3273 56.3135C62.3036 56.3373 62.2562 56.3611 62.1852 56.3848C62.1142 56.4086 62.0432 56.4323 61.9248 56.4323C61.8302 56.4323 61.6881 56.4561 61.5224 56.4561C61.3567 56.4561 61.2384 56.4561 61.12 56.4323C61.0017 56.4323 60.9306 56.4086 60.8596 56.3848C60.7886 56.3611 60.7413 56.3373 60.7176 56.3135C60.6939 56.2898 60.6702 56.2423 60.6702 56.1947V48.7813C60.6702 48.615 60.7176 48.4724 60.8123 48.3774C60.907 48.2823 61.0253 48.2585 61.1673 48.2585H65.0968C65.1915 48.2585 65.2389 48.3061 65.2862 48.4249C65.3099 48.5199 65.3336 48.71 65.3336 48.9476ZM72.8848 56.1947C72.8848 56.2423 72.8612 56.266 72.8375 56.3135C72.8138 56.3373 72.7665 56.3611 72.6955 56.3848C72.6244 56.4086 72.5534 56.4323 72.4351 56.4323C72.3167 56.4323 72.1983 56.4561 72.0326 56.4561C71.867 56.4561 71.7486 56.4561 71.6302 56.4323C71.5119 56.4323 71.4409 56.4086 71.3698 56.3848C71.2988 56.3611 71.2752 56.3373 71.2515 56.3135C71.2278 56.2898 71.2041 56.2423 71.2041 56.1947V51.894C71.2041 51.7277 71.2041 51.5613 71.2041 51.4188C71.2041 51.2524 71.2041 51.1099 71.2278 50.9911H71.2515C71.2278 51.0386 71.1805 51.1099 71.1331 51.2049C71.0858 51.2762 71.0384 51.3712 70.9911 51.4425C70.9438 51.5376 70.8727 51.6089 70.8254 51.7039C70.7544 51.7989 70.707 51.894 70.6597 51.9653L67.8428 56.1947C67.8191 56.2423 67.7718 56.2898 67.7481 56.3135C67.7007 56.3373 67.6771 56.3848 67.606 56.3848C67.5587 56.4086 67.4877 56.4086 67.393 56.4323C67.322 56.4323 67.2036 56.4323 67.0853 56.4323C66.9196 56.4323 66.8012 56.4323 66.6829 56.4086C66.5882 56.4086 66.4935 56.3848 66.4461 56.3611C66.3988 56.3373 66.3514 56.3135 66.3278 56.2898C66.3041 56.266 66.3041 56.2185 66.3041 56.171V48.4724C66.3041 48.4249 66.3278 48.4011 66.3514 48.3536C66.3751 48.3298 66.4225 48.3061 66.4935 48.2823C66.5645 48.2585 66.6355 48.2348 66.7539 48.2348C66.8486 48.2348 66.9906 48.211 67.1563 48.211C67.322 48.211 67.4403 48.211 67.5587 48.2348C67.6534 48.2348 67.7481 48.2585 67.8191 48.2823C67.8901 48.3061 67.9375 48.3298 67.9611 48.3536C67.9848 48.3774 68.0085 48.4249 68.0085 48.4724V52.7969C68.0085 52.9395 68.0085 53.082 68.0085 53.2246C68.0085 53.3672 68.0085 53.5335 67.9848 53.6761H68.0085C68.0795 53.5573 68.1742 53.3909 68.2689 53.2246C68.3872 53.0583 68.4819 52.8682 68.6003 52.7019L71.4172 48.4724C71.4409 48.4249 71.4882 48.4011 71.5119 48.3536C71.5355 48.3298 71.5829 48.3061 71.6539 48.2823C71.7012 48.2585 71.7723 48.2585 71.867 48.2348C71.9616 48.2348 72.0563 48.211 72.1984 48.211C72.3641 48.211 72.4824 48.211 72.5771 48.2348C72.6718 48.2348 72.7428 48.2585 72.8138 48.2823C72.8612 48.3061 72.9085 48.3298 72.9322 48.3536C72.9558 48.3774 72.9558 48.4249 72.9558 48.4724V56.1947H72.8848ZM80.1994 56.1947C80.1994 56.2423 80.1757 56.266 80.152 56.3135C80.1284 56.3373 80.081 56.3611 80.01 56.3848C79.939 56.4086 79.868 56.4323 79.7733 56.4323C79.6786 56.4561 79.5366 56.4561 79.3709 56.4561C79.2052 56.4561 79.0868 56.4561 78.9921 56.4323C78.8738 56.4086 78.8028 56.4086 78.7317 56.3848C78.6607 56.3611 78.6134 56.3373 78.5897 56.3135C78.566 56.2898 78.5424 56.2423 78.5424 56.1947V53.4147C78.3293 53.4385 78.0926 53.4622 77.8796 53.4622C77.6665 53.486 77.4535 53.486 77.2404 53.486C76.7907 53.486 76.3882 53.4385 76.0095 53.3672C75.6544 53.2959 75.323 53.1533 75.0626 52.9395C74.8022 52.7494 74.5892 52.4642 74.4472 52.1316C74.3051 51.7752 74.2341 51.3475 74.2341 50.8247V48.4724C74.2341 48.4249 74.2578 48.4011 74.2815 48.3536C74.3051 48.3298 74.3525 48.3061 74.3998 48.2823C74.4708 48.2585 74.5418 48.2348 74.6365 48.2348C74.7312 48.211 74.8733 48.211 75.0153 48.211C75.181 48.211 75.2993 48.211 75.4177 48.2348C75.5361 48.2585 75.6071 48.2585 75.6781 48.2823C75.7491 48.3061 75.7964 48.3298 75.8201 48.3536C75.8438 48.3774 75.8675 48.4249 75.8675 48.4724V50.6347C75.8675 50.896 75.8911 51.1099 75.9385 51.3C75.9858 51.49 76.0805 51.6326 76.1989 51.7514C76.3172 51.8702 76.4829 51.9653 76.6723 52.0366C76.8617 52.1078 77.1221 52.1316 77.4061 52.1316C77.5955 52.1316 77.7849 52.1316 77.9506 52.1078C78.1399 52.0841 78.3056 52.0841 78.495 52.0603V48.4962C78.495 48.4486 78.5187 48.4249 78.5424 48.3774C78.566 48.3536 78.6134 48.3298 78.6844 48.3061C78.7554 48.2823 78.8264 48.2585 78.9448 48.2585C79.0395 48.2348 79.1815 48.2348 79.3235 48.2348C79.4892 48.2348 79.6076 48.2348 79.7259 48.2585C79.8206 48.2823 79.9153 48.2823 79.9627 48.3061C80.0337 48.3298 80.0574 48.3536 80.1047 48.3774C80.1284 48.4011 80.152 48.4486 80.152 48.4962V56.1947H80.1994ZM86.7801 55.767C86.7801 55.8858 86.7801 55.9809 86.7564 56.0759C86.7564 56.1472 86.7328 56.2185 86.7091 56.266C86.6854 56.3135 86.6618 56.3611 86.6381 56.3848C86.6144 56.4086 86.5671 56.4086 86.5434 56.4086H82.4719C82.3298 56.4086 82.2115 56.3611 82.1168 56.2898C82.0221 56.2185 81.9748 56.0759 81.9748 55.8858V48.7813C81.9748 48.5912 82.0221 48.4724 82.1168 48.3774C82.2115 48.3061 82.3298 48.2585 82.4719 48.2585H86.5197C86.5671 48.2585 86.5907 48.2585 86.6144 48.2823C86.6381 48.3061 86.6618 48.3298 86.6854 48.4011C86.7091 48.4486 86.7328 48.5199 86.7328 48.615C86.7328 48.71 86.7564 48.805 86.7564 48.9239C86.7564 49.0427 86.7564 49.1377 86.7328 49.2327C86.7328 49.304 86.7091 49.3753 86.6854 49.4228C86.6618 49.4704 86.6381 49.5179 86.6144 49.5416C86.5907 49.5654 86.5434 49.5654 86.5197 49.5654H83.6318V51.5613H86.07C86.1173 51.5613 86.141 51.5613 86.1646 51.5851C86.1883 51.6089 86.212 51.6326 86.2357 51.7039C86.2593 51.7514 86.283 51.8227 86.283 51.894C86.283 51.9653 86.3067 52.0841 86.3067 52.1791C86.3067 52.2979 86.3067 52.393 86.283 52.488C86.283 52.5593 86.2593 52.6306 86.2357 52.6781C86.212 52.7256 86.1883 52.7731 86.1646 52.7731C86.141 52.7969 86.0936 52.7969 86.07 52.7969H83.6318V55.1017H86.5434C86.5907 55.1017 86.6144 55.1017 86.6381 55.1255C86.6618 55.1492 86.6854 55.1968 86.7091 55.2443C86.7328 55.2918 86.7564 55.3631 86.7564 55.4344C86.7801 55.5294 86.7801 55.6482 86.7801 55.767ZM93.5739 55.173C93.5739 55.2681 93.5739 55.3631 93.5739 55.4344C93.5739 55.5057 93.5502 55.5769 93.5502 55.6245C93.5502 55.672 93.5265 55.7195 93.5029 55.767C93.4792 55.8146 93.4555 55.8383 93.4082 55.8858C93.3608 55.9334 93.2662 56.0046 93.1478 56.0759C93.0058 56.1472 92.8637 56.2185 92.6744 56.2898C92.485 56.3611 92.2719 56.4086 92.0352 56.4561C91.7985 56.5036 91.5144 56.5274 91.2304 56.5274C90.6859 56.5274 90.1652 56.4323 89.7391 56.266C89.2893 56.0997 88.9106 55.8383 88.6028 55.5057C88.2951 55.173 88.0584 54.7453 87.8927 54.2226C87.727 53.6998 87.6323 53.1058 87.6323 52.4405C87.6323 51.7514 87.727 51.1336 87.9164 50.5871C88.1057 50.0406 88.3661 49.5892 88.6975 49.2327C89.0289 48.8763 89.4313 48.5912 89.8811 48.4011C90.3309 48.211 90.8516 48.116 91.3961 48.116C91.6091 48.116 91.8458 48.1397 92.0352 48.1635C92.2483 48.211 92.4376 48.2585 92.627 48.3061C92.8164 48.3774 92.9584 48.4486 93.1004 48.5199C93.2425 48.5912 93.3372 48.6625 93.4082 48.7338C93.4555 48.7813 93.5029 48.8288 93.5265 48.8763C93.5502 48.9239 93.5739 48.9714 93.5739 49.0189C93.5975 49.0902 93.5975 49.1377 93.5975 49.2327C93.5975 49.304 93.5975 49.3991 93.5975 49.5179C93.5975 49.6367 93.5975 49.7555 93.5739 49.8268C93.5739 49.9218 93.5502 49.9931 93.5265 50.0406C93.5029 50.0881 93.4792 50.1357 93.4555 50.1594C93.4318 50.1832 93.3845 50.207 93.3608 50.207C93.2898 50.207 93.2188 50.1594 93.1241 50.0881C93.0294 50.0169 92.9111 49.9218 92.7454 49.8505C92.6033 49.7555 92.414 49.6842 92.2009 49.6129C91.9879 49.5416 91.7512 49.4941 91.4434 49.4941C91.112 49.4941 90.828 49.5654 90.5913 49.6842C90.3309 49.8268 90.1178 49.9931 89.9521 50.2545C89.7627 50.4921 89.6444 50.801 89.5497 51.1574C89.455 51.5138 89.4077 51.894 89.4077 52.3217C89.4077 52.7969 89.455 53.2246 89.5497 53.5573C89.6444 53.9137 89.7864 54.1988 89.9758 54.4127C90.1652 54.6265 90.3782 54.8166 90.6386 54.9116C90.899 55.0304 91.183 55.078 91.5145 55.078C91.7985 55.078 92.0589 55.0542 92.2719 54.9829C92.485 54.9116 92.6744 54.8404 92.8164 54.7453C92.9821 54.6503 93.1004 54.579 93.1951 54.5315C93.2898 54.4602 93.3608 54.4364 93.4319 54.4364C93.4792 54.4364 93.5029 54.4364 93.5265 54.4602C93.5502 54.4839 93.5739 54.5077 93.5975 54.5552C93.6212 54.6027 93.6212 54.674 93.6449 54.7691C93.5502 54.9116 93.5739 55.0304 93.5739 55.173ZM100.77 56.1947C100.77 56.2423 100.746 56.2898 100.723 56.3135C100.699 56.3373 100.652 56.3611 100.581 56.3848C100.51 56.4086 100.439 56.4323 100.32 56.4323C100.202 56.4323 100.084 56.4561 99.8942 56.4561C99.7048 56.4561 99.5628 56.4561 99.4681 56.4323C99.3498 56.4323 99.2551 56.4086 99.2077 56.3848C99.1367 56.3611 99.0894 56.3373 99.0657 56.2898C99.042 56.2423 99.0184 56.1947 98.9947 56.1472L98.3319 54.3414C98.2372 54.08 98.1425 53.8424 98.0478 53.6761C97.9531 53.486 97.8348 53.3434 97.7164 53.2484C97.5981 53.1296 97.456 53.0583 97.314 53.0108C97.1483 52.9632 96.9826 52.9395 96.7932 52.9395H96.4145V56.2185C96.4145 56.266 96.3908 56.3135 96.3671 56.3373C96.3435 56.3611 96.2961 56.3848 96.2251 56.4086C96.1541 56.4323 96.0831 56.4561 95.9647 56.4561C95.87 56.4561 95.728 56.4799 95.5623 56.4799C95.3966 56.4799 95.2782 56.4799 95.1599 56.4561C95.0415 56.4561 94.9705 56.4323 94.8995 56.4086C94.8285 56.3848 94.7811 56.3611 94.7575 56.3373C94.7338 56.3135 94.7101 56.266 94.7101 56.2185V48.4724C94.7101 48.4249 94.7338 48.3774 94.7575 48.3536C94.7811 48.3298 94.8285 48.3061 94.8995 48.2823C94.9705 48.2585 95.0415 48.2348 95.1599 48.2348C95.2782 48.2348 95.3966 48.211 95.5623 48.211C95.728 48.211 95.8464 48.211 95.9647 48.2348C96.0594 48.2348 96.1541 48.2585 96.2251 48.2823C96.2961 48.3061 96.3435 48.3298 96.3671 48.3536C96.3908 48.3774 96.4145 48.4249 96.4145 48.4724V51.5376H96.7932C96.9826 51.5376 97.1483 51.5138 97.2903 51.4663C97.4324 51.4188 97.5507 51.3237 97.6691 51.2287C97.7874 51.1099 97.8821 50.9673 97.9768 50.801C98.0715 50.6347 98.1662 50.4208 98.2609 50.1594L98.8053 48.5437C98.829 48.4962 98.8527 48.4249 98.8763 48.4011C98.9 48.3536 98.9473 48.3298 99.0184 48.3061C99.0894 48.2823 99.1604 48.2585 99.2788 48.2585C99.3734 48.2585 99.5155 48.2348 99.7048 48.2348C99.8706 48.2348 100.013 48.2348 100.107 48.2585C100.226 48.2585 100.297 48.2823 100.368 48.3061C100.439 48.3298 100.462 48.3536 100.486 48.3774C100.51 48.4011 100.51 48.4486 100.51 48.4962C100.51 48.5437 100.51 48.615 100.486 48.71C100.462 48.7813 100.439 48.9001 100.391 49.0189L99.8469 50.4683C99.7522 50.7297 99.6575 50.9673 99.5391 51.1574C99.4445 51.3475 99.3261 51.5138 99.2314 51.6326C99.1131 51.7752 98.9947 51.8702 98.8763 51.9653C98.758 52.0603 98.616 52.1078 98.4739 52.1791C98.6396 52.2504 98.7817 52.3217 98.9237 52.4167C99.0657 52.5118 99.1841 52.6306 99.3024 52.7494C99.4208 52.8919 99.5391 53.0583 99.6338 53.2721C99.7522 53.486 99.8469 53.7236 99.9652 54.0087L100.628 55.6957C100.699 55.8621 100.746 55.9809 100.746 56.0522C100.746 56.0997 100.77 56.1472 100.77 56.1947ZM108.629 55.7908C108.676 55.9334 108.7 56.0522 108.724 56.1472C108.747 56.2423 108.724 56.3135 108.676 56.3373C108.629 56.3848 108.558 56.4086 108.44 56.4086C108.321 56.4086 108.156 56.4323 107.966 56.4323C107.753 56.4323 107.588 56.4323 107.469 56.4323C107.351 56.4323 107.256 56.4086 107.185 56.3848C107.114 56.3611 107.09 56.3373 107.043 56.3135C107.019 56.2898 106.996 56.2423 106.972 56.171L106.428 54.5315H103.374L102.853 56.1234C102.83 56.1947 102.806 56.2423 102.782 56.266C102.758 56.3135 102.711 56.3373 102.64 56.3611C102.569 56.3848 102.498 56.4086 102.38 56.4086C102.261 56.4086 102.119 56.4323 101.954 56.4323C101.764 56.4323 101.622 56.4323 101.504 56.4086C101.386 56.3848 101.315 56.3611 101.291 56.3135C101.244 56.266 101.244 56.1947 101.244 56.0997C101.267 56.0046 101.291 55.8858 101.338 55.7433L103.847 48.5199C103.871 48.4486 103.895 48.4011 103.942 48.3536C103.966 48.3061 104.037 48.2823 104.108 48.2585C104.179 48.2348 104.273 48.211 104.416 48.211C104.534 48.211 104.723 48.211 104.936 48.211C105.173 48.211 105.386 48.211 105.528 48.211C105.67 48.211 105.788 48.2348 105.859 48.2585C105.931 48.2823 106.002 48.3061 106.025 48.3536C106.049 48.4011 106.096 48.4724 106.12 48.5437L108.629 55.7908ZM104.913 49.803L103.776 53.2721H106.049L104.913 49.803ZM115.352 56.1947C115.352 56.2423 115.328 56.266 115.304 56.3135C115.281 56.3373 115.233 56.3611 115.186 56.3848C115.115 56.4086 115.044 56.4323 114.926 56.4323C114.807 56.4323 114.689 56.4561 114.523 56.4561C114.358 56.4561 114.216 56.4561 114.121 56.4323C114.026 56.4323 113.932 56.4086 113.861 56.3848C113.789 56.3611 113.742 56.3373 113.718 56.3135C113.695 56.2898 113.671 56.2423 113.671 56.1947V53.1533H113.056C112.795 53.1533 112.606 53.1771 112.488 53.2246C112.346 53.2721 112.227 53.3434 112.132 53.4622C112.038 53.5573 111.943 53.6998 111.848 53.8661C111.777 54.0325 111.683 54.1988 111.612 54.4127L110.996 56.171C110.973 56.2185 110.949 56.266 110.925 56.2898C110.902 56.3373 110.831 56.3611 110.76 56.3848C110.689 56.4086 110.594 56.4323 110.499 56.4323C110.381 56.4323 110.239 56.4561 110.073 56.4561C109.884 56.4561 109.742 56.4561 109.623 56.4323C109.505 56.4086 109.434 56.4086 109.363 56.3848C109.316 56.3611 109.268 56.3373 109.245 56.3135C109.221 56.2898 109.221 56.2423 109.221 56.2185C109.221 56.171 109.221 56.1234 109.245 56.0522C109.268 55.9809 109.292 55.9096 109.339 55.767L109.955 54.175C110.026 53.9612 110.12 53.7949 110.191 53.6285C110.286 53.4622 110.357 53.3434 110.475 53.2008C110.57 53.082 110.689 52.9632 110.807 52.892C110.925 52.7969 111.044 52.7494 111.186 52.6781C110.925 52.6068 110.689 52.5118 110.499 52.393C110.31 52.2742 110.144 52.1316 110.002 51.9653C109.86 51.7989 109.765 51.6089 109.694 51.395C109.623 51.1812 109.6 50.9435 109.6 50.6584C109.6 50.2782 109.671 49.9456 109.789 49.6604C109.907 49.3516 110.097 49.1139 110.357 48.9001C110.618 48.6862 110.925 48.5199 111.304 48.4011C111.683 48.2823 112.203 48.2348 112.866 48.2348H114.855C114.997 48.2348 115.091 48.2823 115.186 48.3536C115.281 48.4249 115.328 48.5674 115.328 48.7575V56.1947H115.352ZM113.718 49.5416H112.866C112.511 49.5416 112.251 49.5654 112.061 49.6129C111.896 49.6604 111.754 49.7555 111.635 49.8505C111.517 49.9456 111.446 50.0644 111.399 50.2307C111.351 50.3733 111.328 50.5396 111.328 50.7059C111.328 50.8723 111.351 51.0386 111.399 51.1812C111.446 51.3237 111.541 51.4425 111.659 51.5613C111.777 51.6801 111.919 51.7514 112.085 51.7989C112.275 51.8465 112.511 51.894 112.843 51.894H113.718V49.5416ZM6.01233 69.6435C6.01233 69.691 5.98866 69.7385 5.96499 69.7623C5.94132 69.786 5.89397 69.8098 5.82296 69.8336C5.75194 69.8573 5.68093 69.8811 5.56257 69.8811C5.44421 69.8811 5.32585 69.9049 5.13648 69.9049C4.94711 69.9049 4.80508 69.9049 4.71039 69.8811C4.59203 69.8811 4.49735 69.8573 4.45 69.8336C4.37899 69.8098 4.33164 69.786 4.30797 69.7385C4.2843 69.691 4.26063 69.6435 4.23696 69.596L3.57415 67.7901C3.47946 67.5287 3.38478 67.2911 3.29009 67.1248C3.1954 66.9347 3.07704 66.7922 2.95869 66.6971C2.84033 66.5783 2.6983 66.507 2.55627 66.4595C2.39057 66.412 2.22486 66.3882 2.03549 66.3882H1.63307V69.6672C1.63307 69.7148 1.6094 69.7623 1.58573 69.786C1.56206 69.8098 1.51471 69.8336 1.4437 69.8573C1.37268 69.8811 1.30167 69.9049 1.18331 69.9049C1.08862 69.9049 0.946593 69.9286 0.780891 69.9286C0.61519 69.9286 0.496831 69.9286 0.378473 69.9049C0.260115 69.9049 0.189099 69.8811 0.118084 69.8573C0.0470693 69.8336 -0.00027401 69.8098 -0.0239457 69.786C-0.0476174 69.7623 -0.0712891 69.7148 -0.0712891 69.6672V61.9687C-0.0712891 61.9211 -0.0476174 61.8736 -0.0239457 61.8499C-0.00027401 61.8261 0.0470693 61.8023 0.118084 61.7786C0.189099 61.7548 0.260115 61.731 0.378473 61.731C0.496831 61.731 0.61519 61.7073 0.780891 61.7073C0.946593 61.7073 1.06495 61.7073 1.18331 61.731C1.278 61.731 1.37268 61.7548 1.4437 61.7786C1.51471 61.8023 1.56206 61.8261 1.58573 61.8499C1.6094 61.8736 1.63307 61.9211 1.63307 61.9687V65.0338H2.01182C2.20119 65.0338 2.36689 65.0101 2.50892 64.9626C2.65095 64.915 2.76931 64.82 2.88767 64.7249C3.00603 64.6061 3.10072 64.4636 3.1954 64.2972C3.29009 64.1309 3.38478 63.9171 3.47946 63.6557L4.02391 62.0399C4.04758 61.9924 4.07125 61.9211 4.09493 61.8974C4.1186 61.8499 4.16594 61.8261 4.23696 61.8023C4.30797 61.7786 4.37899 61.7548 4.49735 61.7548C4.59203 61.7548 4.73406 61.731 4.92344 61.731C5.08914 61.731 5.23117 61.7311 5.32585 61.7548C5.44421 61.7548 5.51523 61.7786 5.58624 61.8023C5.65726 61.8261 5.68093 61.8499 5.7046 61.8736C5.72827 61.8974 5.72827 61.9449 5.72827 61.9924C5.72827 62.0399 5.72827 62.1112 5.7046 62.2063C5.68093 62.2776 5.65726 62.3964 5.60991 62.5152L5.06547 63.9646C4.97078 64.226 4.85242 64.4636 4.75773 64.6537C4.66305 64.8437 4.54469 65.0101 4.45 65.1289C4.33164 65.2714 4.21328 65.3665 4.09493 65.4615C3.97657 65.5566 3.83454 65.6041 3.69251 65.6754C3.85821 65.7467 4.00024 65.8179 4.14227 65.913C4.2843 66.008 4.40266 66.1268 4.52102 66.2456C4.63938 66.3882 4.75773 66.5545 4.85242 66.7684C4.97078 66.9822 5.06547 67.2199 5.18382 67.505L5.84663 69.192C5.91765 69.3583 5.96499 69.4771 5.96499 69.5484C6.01233 69.5484 6.01233 69.596 6.01233 69.6435ZM14.2027 65.6991C14.2027 66.3645 14.108 66.9822 13.9423 67.505C13.7766 68.0277 13.5163 68.5029 13.1849 68.8594C12.8534 69.2395 12.451 69.5247 11.9539 69.7148C11.4568 69.9048 10.9124 69.9999 10.2732 69.9999C9.6341 69.9999 9.08965 69.9049 8.61622 69.7623C8.14279 69.596 7.76404 69.3346 7.43263 69.0019C7.1249 68.6693 6.88819 68.2416 6.72248 67.6951C6.55678 67.1723 6.48577 66.5545 6.48577 65.8417C6.48577 65.1764 6.58045 64.5824 6.74616 64.0596C6.91186 63.5369 7.17225 63.0854 7.50365 62.7053C7.83505 62.3251 8.23747 62.0637 8.73458 61.8499C9.23168 61.6598 9.77613 61.5647 10.4389 61.5647C11.0544 61.5647 11.5989 61.636 12.0723 61.8023C12.5457 61.9687 12.9245 62.2063 13.2559 62.5627C13.5636 62.8953 13.8003 63.323 13.966 63.8458C14.108 64.3923 14.2027 64.9863 14.2027 65.6991ZM12.4747 65.7704C12.4747 65.3427 12.451 64.9626 12.38 64.6061C12.309 64.2497 12.1906 63.9646 12.0486 63.7032C11.8829 63.4656 11.6699 63.2518 11.4095 63.133C11.1491 62.9904 10.8177 62.9191 10.4153 62.9191C10.0128 62.9191 9.68144 62.9904 9.39738 63.1567C9.137 63.2993 8.90028 63.5131 8.73458 63.7745C8.56888 64.0359 8.45052 64.321 8.3795 64.6774C8.30849 65.0101 8.28481 65.3902 8.28481 65.7704C8.28481 66.2219 8.30849 66.6258 8.3795 66.9585C8.45052 67.2911 8.56887 67.6238 8.71091 67.8614C8.87661 68.1228 9.08965 68.3129 9.35004 68.4317C9.61043 68.5742 9.9655 68.6217 10.3679 68.6217C10.7703 68.6217 11.1017 68.5505 11.3858 68.3841C11.6462 68.2416 11.8829 68.0277 12.0486 67.7664C12.2143 67.505 12.3327 67.1961 12.4037 66.8634C12.4274 66.5308 12.4747 66.1744 12.4747 65.7704ZM12.7824 37.2809C12.7824 37.7324 12.7114 38.1363 12.5694 38.4928C12.4274 38.8492 12.2143 39.1343 11.9539 39.3957C11.6935 39.6333 11.3385 39.8234 10.9597 39.9422C10.5573 40.061 10.1075 40.1323 9.56309 40.1323H8.87661V42.7222C8.87661 42.7697 8.85293 42.7935 8.82926 42.841C8.80559 42.8648 8.75825 42.9123 8.68723 42.9123C8.61622 42.9123 8.5452 42.9598 8.42684 42.9598C8.33216 42.9836 8.19013 42.9836 8.02443 42.9836C7.85872 42.9836 7.74037 42.9836 7.62201 42.9598C7.50365 42.9361 7.43263 42.9361 7.36162 42.9123C7.2906 42.8886 7.24326 42.8648 7.21959 42.841C7.19592 42.8173 7.17225 42.7697 7.17225 42.7222V35.4038C7.17225 35.2137 7.21959 35.0474 7.33795 34.9524C7.43263 34.8573 7.57466 34.8098 7.74037 34.8098H9.70512C9.89449 34.8098 10.0839 34.8098 10.2496 34.8336C10.4153 34.8573 10.6283 34.8811 10.865 34.9286C11.1017 34.9761 11.3621 35.0712 11.5989 35.19C11.8356 35.3088 12.0723 35.4751 12.238 35.689C12.4037 35.879 12.5457 36.1167 12.6404 36.378C12.7588 36.6632 12.7824 36.9483 12.7824 37.2809ZM11.0781 37.3998C11.0781 37.1146 11.0307 36.877 10.936 36.6869C10.8414 36.4968 10.723 36.3543 10.5573 36.283C10.4153 36.1879 10.2496 36.1404 10.0839 36.1167C9.91816 36.0929 9.75246 36.0929 9.58676 36.0929H8.87661V38.8729H9.61043C9.87082 38.8729 10.1075 38.8254 10.2732 38.7541C10.4626 38.6829 10.6046 38.5878 10.723 38.4452C10.8414 38.3264 10.9124 38.1601 10.9834 37.9938C11.0307 37.8037 11.0781 37.6136 11.0781 37.3998ZM22.5588 42.746C22.5588 42.7935 22.5352 42.8173 22.5115 42.8648C22.4878 42.8886 22.4405 42.9123 22.3695 42.9361C22.2985 42.9598 22.2274 42.9836 22.1091 42.9836C21.9907 42.9836 21.8724 43.0074 21.7067 43.0074C21.541 43.0074 21.4226 43.0074 21.3042 42.9836C21.2096 42.9836 21.1149 42.9598 21.0439 42.9361C20.9728 42.9123 20.9255 42.8886 20.9018 42.8648C20.8782 42.841 20.8545 42.7935 20.8545 42.746V35.0237C20.8545 34.9761 20.8782 34.9524 20.9018 34.9048C20.9255 34.8811 20.9728 34.8573 21.0439 34.8336C21.1149 34.8098 21.1859 34.786 21.3042 34.786C21.4226 34.786 21.541 34.7623 21.7067 34.7623C21.8724 34.7623 21.9907 34.7623 22.1091 34.786C22.2274 34.786 22.2985 34.8098 22.3695 34.8336C22.4405 34.8573 22.4878 34.8811 22.5115 34.9048C22.5352 34.9286 22.5588 34.9761 22.5588 35.0237V42.746ZM19.9076 40.2748C19.9076 40.655 19.8366 41.0114 19.7182 41.3441C19.5999 41.653 19.4105 41.9381 19.1501 42.1757C18.8897 42.4133 18.5583 42.6034 18.1559 42.746C17.7535 42.8886 17.1854 42.9598 16.4752 42.9598H14.5578C14.4868 42.9598 14.4158 42.9598 14.3684 42.9361C14.2974 42.9123 14.2501 42.8886 14.2027 42.841C14.1554 42.7935 14.1317 42.746 14.0844 42.6747C14.0607 42.6034 14.037 42.5321 14.037 42.4371V35.0237C14.037 34.9761 14.0607 34.9524 14.0844 34.9048C14.108 34.8811 14.1554 34.8573 14.2264 34.8336C14.2974 34.8098 14.3684 34.786 14.4868 34.786C14.6052 34.786 14.7235 34.7623 14.8892 34.7623C15.0549 34.7623 15.1733 34.7623 15.2916 34.786C15.3863 34.786 15.481 34.8098 15.552 34.8336C15.623 34.8573 15.6704 34.8811 15.6941 34.9048C15.7177 34.9286 15.7414 34.9761 15.7414 35.0237V37.8512H16.7593C17.3747 37.8512 17.8482 37.8987 18.2033 38.0175C18.5583 38.1126 18.8661 38.2789 19.1264 38.4928C19.3868 38.7066 19.5762 38.9442 19.7182 39.2531C19.8366 39.5382 19.9076 39.8709 19.9076 40.2748ZM18.2033 40.3936C18.2033 40.2036 18.1796 40.0135 18.1086 39.8471C18.0612 39.6808 17.9665 39.562 17.8482 39.4432C17.7298 39.3244 17.5641 39.2531 17.3747 39.1818C17.1854 39.1105 16.9013 39.0868 16.5462 39.0868H15.6941V41.6767H16.5699C16.9487 41.6767 17.2327 41.6292 17.4458 41.5579C17.6351 41.4867 17.8008 41.3678 17.8955 41.249C18.0139 41.1302 18.0849 40.9877 18.1322 40.8451C18.1796 40.7025 18.2033 40.56 18.2033 40.3936ZM33.7792 42.7222C33.7792 42.7697 33.7792 42.7935 33.7555 42.841C33.7319 42.8648 33.6845 42.9123 33.6372 42.9123C33.5662 42.9361 33.4952 42.9598 33.4005 42.9598C33.3058 42.9836 33.1638 42.9836 33.0217 42.9836C32.8797 42.9836 32.7377 42.9836 32.643 42.9598C32.5483 42.9361 32.4536 42.9361 32.4063 42.9123C32.3589 42.8886 32.3116 42.8648 32.2879 42.841C32.2642 42.8173 32.2406 42.7697 32.2406 42.7222V36.0929H32.1932L29.8497 42.7222C29.826 42.7697 29.8024 42.8173 29.7787 42.8648C29.7314 42.9123 29.684 42.9361 29.613 42.9598C29.542 42.9836 29.471 42.9836 29.3763 43.0074C29.2816 43.0074 29.1632 43.0074 29.0212 43.0074C28.8792 43.0074 28.7608 43.0074 28.6661 42.9836C28.5714 42.9836 28.4768 42.9598 28.4294 42.9361C28.3584 42.9123 28.3111 42.8886 28.2637 42.841C28.2164 42.8173 28.1927 42.7697 28.1927 42.7222L25.9202 36.0929H25.8965V42.7222C25.8965 42.7697 25.8965 42.7935 25.8729 42.841C25.8492 42.8648 25.8019 42.9123 25.7545 42.9123C25.6835 42.9361 25.6125 42.9598 25.5178 42.9598C25.4231 42.9836 25.3048 42.9836 25.1391 42.9836C24.997 42.9836 24.855 42.9836 24.7603 42.9598C24.6656 42.9361 24.5709 42.9361 24.5236 42.9123C24.4526 42.8886 24.4289 42.8648 24.4052 42.841C24.3816 42.8173 24.3816 42.7697 24.3816 42.7222V35.4514C24.3816 35.2375 24.4289 35.0712 24.5473 34.9524C24.6656 34.8336 24.8076 34.786 24.997 34.786H26.0859C26.2753 34.786 26.441 34.8098 26.583 34.8336C26.7251 34.8573 26.8434 34.9286 26.9381 34.9999C27.0328 35.0712 27.1275 35.1662 27.1985 35.285C27.2695 35.4038 27.3168 35.5464 27.3642 35.7365L29.1159 40.5837H29.1396L30.9623 35.7365C31.0096 35.5702 31.0806 35.4038 31.1517 35.285C31.2227 35.1662 31.2937 35.0712 31.3884 34.9999C31.4831 34.9286 31.5777 34.8811 31.6961 34.8336C31.8145 34.8098 31.9565 34.786 32.0985 34.786H33.2111C33.3295 34.786 33.4241 34.8098 33.4952 34.8336C33.5662 34.8573 33.6372 34.9048 33.6845 34.9524C33.7319 34.9999 33.7792 35.0712 33.8029 35.1662C33.8266 35.2375 33.8502 35.3325 33.8502 35.4514V42.7222H33.7792ZM41.1648 41.7243C41.1648 41.8193 41.1648 41.9144 41.1648 41.9856C41.1648 42.0569 41.1411 42.1282 41.1411 42.1757C41.1411 42.2232 41.1174 42.2708 41.0938 42.3183C41.0701 42.3658 41.0464 42.3896 40.9991 42.4371C40.9517 42.4846 40.8571 42.5559 40.7387 42.6272C40.5967 42.6985 40.4546 42.7697 40.2653 42.841C40.0759 42.9123 39.8628 42.9598 39.6261 43.0074C39.3894 43.0549 39.1053 43.0786 38.8213 43.0786C38.2768 43.0786 37.7561 42.9836 37.33 42.8173C36.8802 42.6509 36.5015 42.3896 36.1937 42.0569C35.886 41.7243 35.6493 41.2966 35.4836 40.7738C35.3179 40.2511 35.2232 39.6571 35.2232 38.9917C35.2232 38.3027 35.3179 37.6849 35.5073 37.1384C35.6966 36.5919 35.957 36.1404 36.2884 35.784C36.6198 35.4276 37.0222 35.1425 37.472 34.9524C37.9218 34.7623 38.4425 34.6672 38.987 34.6672C39.2 34.6672 39.4367 34.691 39.6261 34.7148C39.8392 34.7623 40.0285 34.8098 40.2179 34.8573C40.4073 34.9286 40.5493 34.9999 40.6913 35.0712C40.8334 35.1425 40.9281 35.2137 40.9991 35.285C41.0464 35.3325 41.0938 35.3801 41.1174 35.4276C41.1411 35.4751 41.1648 35.5226 41.1648 35.5702C41.1885 35.6414 41.1885 35.689 41.1885 35.784C41.1885 35.8553 41.1885 35.9503 41.1885 36.0691C41.1885 36.1879 41.1885 36.3068 41.1648 36.378C41.1648 36.4731 41.1411 36.5444 41.1174 36.5919C41.0938 36.6394 41.0701 36.6869 41.0464 36.7107C41.0228 36.7344 40.9754 36.7582 40.9517 36.7582C40.8807 36.7582 40.8097 36.7107 40.715 36.6394C40.6203 36.5681 40.502 36.4731 40.3363 36.4018C40.1942 36.3067 40.0049 36.2355 39.7918 36.1642C39.5788 36.0929 39.3421 36.0454 39.0343 36.0454C38.7029 36.0454 38.4189 36.1167 38.1822 36.2355C37.9218 36.378 37.7087 36.5444 37.543 36.8057C37.3536 37.0433 37.2353 37.3522 37.1406 37.7086C37.0459 38.0651 36.9986 38.4452 36.9986 38.8729C36.9986 39.3482 37.0459 39.7759 37.1406 40.1085C37.2353 40.4649 37.3773 40.7501 37.5667 40.9639C37.7561 41.1778 37.9691 41.3678 38.2295 41.4629C38.4899 41.5817 38.7739 41.6292 39.1053 41.6292C39.3894 41.6292 39.6498 41.6055 39.8628 41.5342C40.0759 41.4629 40.2653 41.3916 40.4073 41.2966C40.573 41.2015 40.6913 41.1302 40.786 41.0827C40.8807 41.0114 40.9517 40.9877 41.0228 40.9877C41.0701 40.9877 41.0938 40.9877 41.1174 41.0114C41.1411 41.0352 41.1648 41.059 41.1885 41.1065C41.2121 41.154 41.2121 41.2253 41.2358 41.3203C41.1648 41.4629 41.1648 41.5817 41.1648 41.7243ZM48.361 42.746C48.361 42.7935 48.3373 42.841 48.3136 42.8648C48.29 42.8886 48.2426 42.9123 48.1716 42.9361C48.1006 42.9598 48.0296 42.9836 47.9112 42.9836C47.7929 42.9836 47.6745 43.0074 47.4851 43.0074C47.2957 43.0074 47.1537 43.0074 47.059 42.9836C46.9407 42.9836 46.846 42.9598 46.7986 42.9361C46.7276 42.9123 46.6803 42.8886 46.6566 42.841C46.6329 42.7935 46.6093 42.746 46.5856 42.6985L45.9228 40.8689C45.8281 40.6075 45.7334 40.3699 45.6387 40.2036C45.544 40.0372 45.4257 39.8709 45.3073 39.7759C45.189 39.6571 45.0469 39.5858 44.9049 39.5382C44.7392 39.4907 44.5735 39.467 44.3841 39.467H44.0054V42.746C44.0054 42.7935 43.9817 42.841 43.958 42.8648C43.9344 42.8886 43.887 42.9123 43.816 42.9361C43.745 42.9598 43.674 42.9836 43.5556 42.9836C43.4609 42.9836 43.3189 43.0074 43.1532 43.0074C42.9875 43.0074 42.8691 43.0074 42.7508 42.9836C42.6324 42.9836 42.5614 42.9598 42.4904 42.9361C42.4194 42.9123 42.372 42.8886 42.3484 42.8648C42.3247 42.841 42.301 42.7935 42.301 42.746V35.0474C42.301 34.9999 42.3247 34.9524 42.3484 34.9286C42.372 34.9048 42.4194 34.8811 42.4904 34.8573C42.5614 34.8336 42.6324 34.8098 42.7508 34.8098C42.8691 34.8098 42.9875 34.786 43.1532 34.786C43.3189 34.786 43.4373 34.786 43.5556 34.8098C43.6503 34.8098 43.745 34.8336 43.816 34.8573C43.887 34.8811 43.9344 34.9048 43.958 34.9286C43.9817 34.9524 44.0054 34.9999 44.0054 35.0474V38.1126H44.3841C44.5735 38.1126 44.7392 38.0888 44.8812 38.0413C45.0233 37.9938 45.1416 37.8987 45.26 37.8037C45.3783 37.6849 45.473 37.5423 45.5677 37.376C45.6624 37.2097 45.7571 36.9958 45.8518 36.7344L46.3962 35.1187C46.4199 35.0712 46.4436 34.9999 46.4672 34.9761C46.4909 34.9286 46.5383 34.9048 46.6093 34.8811C46.6803 34.8573 46.7513 34.8336 46.8697 34.8336C46.9643 34.8336 47.1064 34.8098 47.2957 34.8098C47.4614 34.8098 47.6035 34.8098 47.6982 34.8336C47.8165 34.8336 47.8875 34.8573 47.9586 34.8811C48.0296 34.9048 48.0532 34.9286 48.0769 34.9524C48.1006 34.9761 48.1006 35.0237 48.1006 35.0712C48.1006 35.1187 48.1006 35.19 48.0769 35.285C48.0532 35.3563 48.0296 35.4751 47.9822 35.5939L47.4378 37.0433C47.3431 37.3047 47.2247 37.5423 47.13 37.7324C47.0354 37.9225 46.917 38.0888 46.8223 38.2076C46.704 38.3502 46.5856 38.4452 46.4672 38.5403C46.3489 38.6353 46.2069 38.6829 46.0648 38.7541C46.2305 38.8254 46.3726 38.8967 46.5146 38.9917C46.6566 39.0868 46.775 39.2056 46.8933 39.3244C47.0117 39.467 47.13 39.6333 47.2247 39.8471C47.3431 40.061 47.4378 40.2986 47.5561 40.5837L48.2189 42.2708C48.29 42.4371 48.3373 42.5559 48.3373 42.6272C48.361 42.6509 48.361 42.6985 48.361 42.746ZM56.22 42.3421C56.2673 42.4846 56.291 42.6034 56.3147 42.6985C56.3383 42.7935 56.3147 42.8648 56.2673 42.8886C56.22 42.9361 56.149 42.9598 56.0306 42.9598C55.9122 42.9598 55.7465 42.9836 55.5572 42.9836C55.3441 42.9836 55.1784 42.9836 55.0601 42.9836C54.9417 42.9836 54.847 42.9598 54.776 42.9361C54.705 42.9123 54.6813 42.8886 54.634 42.8648C54.6103 42.841 54.5866 42.7935 54.563 42.7222L54.0185 41.0827H50.9649L50.4441 42.6747C50.4204 42.746 50.3967 42.7935 50.3731 42.8173C50.3494 42.8648 50.3021 42.8886 50.231 42.9123C50.16 42.9361 50.089 42.9598 49.9706 42.9598C49.8523 42.9598 49.7103 42.9836 49.5446 42.9836C49.3552 42.9836 49.2132 42.9836 49.0948 42.9598C48.9764 42.9361 48.9054 42.9123 48.8818 42.8648C48.8344 42.8173 48.8344 42.746 48.8344 42.6509C48.8581 42.5559 48.8817 42.4371 48.9291 42.2945L51.4383 35.0712C51.462 34.9999 51.4856 34.9524 51.533 34.9048C51.5566 34.8573 51.6277 34.8336 51.6987 34.8098C51.7697 34.786 51.8644 34.7623 52.0064 34.7623C52.1248 34.7623 52.3141 34.7623 52.5272 34.7623C52.7639 34.7623 52.977 34.7623 53.119 34.7623C53.261 34.7623 53.3794 34.786 53.4504 34.8098C53.5214 34.8336 53.5924 34.8573 53.6161 34.9048C53.6398 34.9524 53.6871 35.0237 53.7108 35.0949L56.22 42.3421ZM52.5035 36.3543L51.3673 39.8234H53.6398L52.5035 36.3543ZM62.9664 42.746C62.9664 42.7935 62.9427 42.8173 62.9191 42.8648C62.8954 42.8886 62.848 42.9123 62.8007 42.9361C62.7297 42.9598 62.6587 42.9836 62.5403 42.9836C62.422 42.9836 62.3036 43.0074 62.1379 43.0074C61.9722 43.0074 61.8302 43.0074 61.7355 42.9836C61.6408 42.9836 61.5461 42.9598 61.4751 42.9361C61.4041 42.9123 61.3567 42.8886 61.3331 42.8648C61.3094 42.841 61.2857 42.7935 61.2857 42.746V39.7046H60.6702C60.4099 39.7046 60.2205 39.7283 60.1021 39.7759C59.9601 39.8234 59.8417 39.8947 59.7471 40.0135C59.6524 40.1085 59.5577 40.2511 59.463 40.4174C59.392 40.5837 59.2973 40.7501 59.2263 40.9639L58.6108 42.7222C58.5871 42.7697 58.5635 42.8173 58.5398 42.841C58.5161 42.8886 58.4451 42.9123 58.3741 42.9361C58.3031 42.9598 58.2084 42.9836 58.1137 42.9836C57.9953 42.9836 57.8533 43.0074 57.6876 43.0074C57.4982 43.0074 57.3562 43.0074 57.2379 42.9836C57.1195 42.9598 57.0485 42.9598 56.9775 42.9361C56.9301 42.9123 56.8828 42.8886 56.8591 42.8648C56.8354 42.841 56.8354 42.7935 56.8354 42.7697C56.8354 42.7222 56.8354 42.6747 56.8591 42.6034C56.8828 42.5321 56.9065 42.4609 56.9538 42.3183L57.5693 40.7263C57.6403 40.5124 57.735 40.3461 57.806 40.1798C57.9007 40.0135 57.9717 39.8947 58.09 39.7521C58.1847 39.6333 58.3031 39.5145 58.4214 39.4432C58.5398 39.3482 58.6582 39.3006 58.8002 39.2294C58.5398 39.1581 58.3031 39.063 58.1137 38.9442C57.9243 38.8254 57.7586 38.6829 57.6166 38.5165C57.4746 38.3502 57.3799 38.1601 57.3089 37.9463C57.2379 37.7324 57.2142 37.4948 57.2142 37.2097C57.2142 36.8295 57.2852 36.4968 57.4036 36.2117C57.5219 35.9028 57.7113 35.6652 57.9717 35.4514C58.2321 35.2375 58.5398 35.0712 58.9185 34.9524C59.2973 34.8336 59.8181 34.786 60.4809 34.786H62.4693C62.6113 34.786 62.706 34.8336 62.8007 34.9048C62.8954 34.9761 62.9427 35.1187 62.9427 35.3088V42.746H62.9664ZM61.3094 36.0929H60.4572C60.1021 36.0929 59.8417 36.1167 59.6524 36.1642C59.4867 36.2117 59.3446 36.3067 59.2263 36.4018C59.1079 36.4968 59.0369 36.6156 58.9896 36.782C58.9422 36.9245 58.9185 37.0909 58.9185 37.2572C58.9185 37.4235 58.9422 37.5898 58.9896 37.7324C59.0369 37.875 59.1316 37.9938 59.2499 38.1126C59.3683 38.2314 59.5103 38.3027 59.676 38.3502C59.8654 38.3977 60.1021 38.4452 60.4335 38.4452H61.3094V36.0929ZM16.0255 55.767C16.0255 55.8858 16.0255 55.9809 16.0018 56.0759C16.0018 56.1472 15.9781 56.2185 15.9544 56.266C15.9308 56.3135 15.9071 56.3611 15.8834 56.3848C15.8598 56.4086 15.8124 56.4086 15.7887 56.4086H11.7172C11.5752 56.4086 11.4568 56.3611 11.3621 56.2898C11.2674 56.2185 11.2201 56.0759 11.2201 55.8858V48.7813C11.2201 48.5912 11.2674 48.4724 11.3621 48.3774C11.4568 48.3061 11.5752 48.2585 11.7172 48.2585H15.7651C15.8124 48.2585 15.8361 48.2585 15.8598 48.2823C15.8834 48.3061 15.9071 48.3298 15.9308 48.4011C15.9544 48.4486 15.9781 48.5199 15.9781 48.615C15.9781 48.71 16.0018 48.805 16.0018 48.9239C16.0018 49.0427 16.0018 49.1377 15.9781 49.2327C15.9781 49.304 15.9544 49.3753 15.9308 49.4228C15.9071 49.4704 15.8834 49.5179 15.8598 49.5416C15.8361 49.5654 15.7887 49.5654 15.7651 49.5654H12.8771V51.5613H15.3153C15.3626 51.5613 15.3863 51.5613 15.41 51.5851C15.4337 51.6089 15.4573 51.6326 15.481 51.7039C15.5047 51.7514 15.5283 51.8227 15.5283 51.894C15.5283 51.9653 15.552 52.0841 15.552 52.1791C15.552 52.2979 15.552 52.393 15.5283 52.488C15.5283 52.5593 15.5047 52.6306 15.481 52.6781C15.4573 52.7256 15.4337 52.7731 15.41 52.7731C15.3863 52.7969 15.339 52.7969 15.3153 52.7969H12.8771V55.1017H15.7887C15.8361 55.1017 15.8598 55.1017 15.8834 55.1255C15.9071 55.1492 15.9308 55.1968 15.9544 55.2443C15.9781 55.2918 16.0018 55.3631 16.0018 55.4344C16.0255 55.5294 16.0255 55.6482 16.0255 55.767ZM22.8429 48.9476C22.8429 49.0664 22.8429 49.1615 22.8192 49.2565C22.8192 49.3516 22.7956 49.4228 22.7719 49.4704C22.7482 49.5179 22.7245 49.5654 22.7009 49.5892C22.6772 49.6129 22.6299 49.6367 22.6062 49.6367H20.5704V56.1947C20.5704 56.2423 20.5467 56.266 20.5231 56.3135C20.4994 56.3373 20.4521 56.3848 20.381 56.3848C20.31 56.4086 20.239 56.4323 20.1207 56.4323C20.0023 56.4561 19.8839 56.4561 19.7182 56.4561C19.5525 56.4561 19.4342 56.4561 19.3158 56.4323C19.1975 56.4086 19.1264 56.4086 19.0554 56.3848C18.9844 56.3611 18.9371 56.3373 18.9134 56.3135C18.8897 56.2898 18.8661 56.2423 18.8661 56.1947V49.6367H16.8303C16.7829 49.6367 16.7593 49.6129 16.7119 49.5892C16.6883 49.5654 16.6646 49.5179 16.6409 49.4704C16.6172 49.4228 16.5936 49.3516 16.5936 49.2565C16.5936 49.1615 16.5699 49.0664 16.5699 48.9476C16.5699 48.8288 16.5699 48.71 16.5936 48.6387C16.5936 48.5437 16.6172 48.4724 16.6409 48.4249C16.6646 48.3774 16.6883 48.3298 16.7119 48.3061C16.7356 48.2823 16.7829 48.2823 16.8303 48.2823H22.5352C22.5825 48.2823 22.6062 48.2823 22.6299 48.3061C22.6535 48.3298 22.6772 48.3774 22.7009 48.4249C22.7245 48.4724 22.7482 48.5437 22.7482 48.6387C22.8429 48.71 22.8429 48.8288 22.8429 48.9476ZM29.5893 55.7908C29.6367 55.9334 29.6603 56.0522 29.684 56.1472C29.7077 56.2423 29.684 56.3135 29.6367 56.3373C29.5893 56.3848 29.5183 56.4086 29.4 56.4086C29.2816 56.4086 29.1159 56.4323 28.9265 56.4323C28.7135 56.4323 28.5478 56.4323 28.4294 56.4323C28.3111 56.4323 28.2164 56.4086 28.1454 56.3848C28.0743 56.3611 28.0507 56.3373 28.0033 56.3135C27.9797 56.2898 27.956 56.2423 27.9323 56.171L27.3879 54.5315H24.3342L23.8134 56.1234C23.7898 56.1947 23.7661 56.2423 23.7424 56.266C23.7188 56.3135 23.6714 56.3373 23.6004 56.3611C23.5294 56.3848 23.4584 56.4086 23.34 56.4086C23.2216 56.4086 23.0796 56.4323 22.9139 56.4323C22.7245 56.4323 22.5825 56.4323 22.4642 56.4086C22.3458 56.3848 22.2748 56.3611 22.2511 56.3135C22.2038 56.266 22.2038 56.1947 22.2038 56.0997C22.2274 56.0046 22.2511 55.8858 22.2985 55.7433L24.8076 48.5199C24.8313 48.4486 24.855 48.4011 24.9023 48.3536C24.926 48.3061 24.997 48.2823 25.068 48.2585C25.1391 48.2348 25.2337 48.211 25.3758 48.211C25.4941 48.211 25.6835 48.211 25.8965 48.211C26.1333 48.211 26.3463 48.211 26.4883 48.211C26.6304 48.211 26.7487 48.2348 26.8197 48.2585C26.8908 48.2823 26.9618 48.3061 26.9854 48.3536C27.0091 48.4011 27.0565 48.4724 27.0801 48.5437L29.5893 55.7908ZM25.8492 49.803L24.713 53.2721H26.9854L25.8492 49.803ZM37.0222 56.1947C37.0222 56.2423 36.9986 56.266 36.9749 56.3135C36.9512 56.3373 36.9039 56.3611 36.8329 56.3848C36.7619 56.4086 36.6908 56.4323 36.5725 56.4323C36.4541 56.4323 36.3358 56.4561 36.1701 56.4561C36.0044 56.4561 35.8623 56.4561 35.7676 56.4323C35.673 56.4323 35.5783 56.4086 35.5073 56.3848C35.4362 56.3611 35.3889 56.3373 35.3652 56.3135C35.3415 56.2898 35.3179 56.2423 35.3179 56.1947V49.6129H33.5898C33.4715 50.5871 33.3531 51.4188 33.2348 52.1316C33.1164 52.8444 32.9744 53.4622 32.856 53.985C32.714 54.5077 32.572 54.9116 32.4063 55.2443C32.2406 55.5769 32.0512 55.8383 31.8381 56.0284C31.6251 56.2185 31.3884 56.3611 31.128 56.4323C30.8676 56.5036 30.5599 56.5511 30.2285 56.5511C30.1574 56.5511 30.1101 56.5511 30.0628 56.5274C30.0154 56.5036 29.9917 56.4799 29.9444 56.4323C29.9207 56.3848 29.8971 56.3135 29.8734 56.2423C29.8497 56.1472 29.8497 56.0522 29.8497 55.9334C29.8497 55.7433 29.8497 55.6007 29.8734 55.5057C29.8734 55.3869 29.8971 55.3156 29.9207 55.2443C29.9444 55.173 29.9681 55.1492 30.0154 55.1255C30.0391 55.1017 30.0864 55.1017 30.1338 55.1017C30.2521 55.1017 30.3942 55.078 30.5125 55.0304C30.6309 54.9829 30.7492 54.8641 30.8676 54.7215C30.986 54.5552 31.0806 54.3414 31.199 54.0562C31.2937 53.7711 31.4121 53.4147 31.5067 52.9395C31.6014 52.488 31.6961 51.9177 31.7908 51.2524C31.8855 50.5871 31.9802 49.803 32.0985 48.9001C32.1222 48.6862 32.1695 48.5437 32.2406 48.4486C32.3116 48.3536 32.4299 48.3298 32.572 48.3298H36.5488C36.6908 48.3298 36.8092 48.3774 36.9039 48.4486C36.9749 48.5437 37.0222 48.6625 37.0222 48.8526V56.1947Z" fill="black"/>
<path d="M9.445 56.1947C9.445 56.2423 9.445 56.266 9.42133 56.3135C9.39766 56.3373 9.35031 56.3848 9.30297 56.3848C9.23196 56.4086 9.16094 56.4323 9.06625 56.4323C8.97157 56.4561 8.82954 56.4561 8.68751 56.4561C8.54548 56.4561 8.40345 56.4561 8.30876 56.4323C8.21407 56.4086 8.11939 56.4086 8.07204 56.3848C8.0247 56.3611 7.97736 56.3373 7.95368 56.3135C7.93001 56.2898 7.90634 56.2423 7.90634 56.1947V49.5654H7.88267L5.53917 56.1947C5.5155 56.2423 5.49183 56.2898 5.46816 56.3373C5.42082 56.3848 5.37347 56.4086 5.30246 56.4323C5.23144 56.4561 5.16043 56.4561 5.06574 56.4799C4.97105 56.4799 4.85269 56.4799 4.71066 56.4799C4.56863 56.4799 4.45028 56.4799 4.35559 56.4561C4.2609 56.4561 4.16622 56.4323 4.11887 56.4086C4.07153 56.3848 4.00051 56.3611 3.95317 56.3135C3.90583 56.2898 3.88216 56.2423 3.88216 56.1947L1.60967 49.5654H1.56233V56.1947C1.56233 56.2423 1.56233 56.266 1.53866 56.3135C1.51499 56.3373 1.46764 56.3848 1.4203 56.3848C1.34929 56.4086 1.27827 56.4323 1.18358 56.4323C1.0889 56.4561 0.970539 56.4561 0.804837 56.4561C0.662807 56.4561 0.520777 56.4561 0.42609 56.4323C0.331404 56.4086 0.236717 56.4086 0.189373 56.3848C0.118358 56.3611 0.0946867 56.3373 0.0710151 56.3135C0 56.266 0 56.2185 0 56.1947V48.9239C0 48.71 0.0473434 48.5437 0.165702 48.4249C0.28406 48.3061 0.42609 48.2585 0.615464 48.2585H1.70436C1.89373 48.2585 2.05944 48.2823 2.20147 48.3061C2.3435 48.3298 2.46185 48.4011 2.55654 48.4724C2.65123 48.5437 2.74591 48.6387 2.81693 48.7575C2.88795 48.8763 2.93529 49.0189 2.98263 49.209L4.73434 54.0562H4.75801L6.58073 49.209C6.62807 49.0427 6.69909 48.8763 6.7701 48.7575C6.84112 48.6387 6.91213 48.5437 7.00682 48.4724C7.1015 48.4011 7.19619 48.3536 7.31455 48.3061C7.43291 48.2823 7.57494 48.2585 7.71697 48.2585H8.82954C8.9479 48.2585 9.04258 48.2823 9.1136 48.3061C9.18461 48.3298 9.25563 48.3773 9.30297 48.4249C9.35031 48.4724 9.39766 48.5437 9.42133 48.6387C9.445 48.71 9.46867 48.805 9.46867 48.9239V56.1947H9.445Z" fill="#F50014"/>
</g>
<defs>
<filter id="filter0_d_76_1082" x="-2.02344" y="0" width="88.5078" height="32.4182" filterUnits="userSpaceOnUse" color-interpolation-filters="sRGB">
<feFlood flood-opacity="0" result="BackgroundImageFix"/>
<feColorMatrix in="SourceAlpha" type="matrix" values="0 0 0 0 0 0 0 0 0 0 0 0 0 0 0 0 0 0 127 0" result="hardAlpha"/>
<feOffset dy="2"/>
<feGaussianBlur stdDeviation="1"/>
<feComposite in2="hardAlpha" operator="out"/>
<feColorMatrix type="matrix" values="0 0 0 0 0 0 0 0 0 0 0 0 0 0 0 0 0 0 0.25 0"/>
<feBlend mode="normal" in2="BackgroundImageFix" result="effect1_dropShadow_76_1082"/>
<feBlend mode="normal" in="SourceGraphic" in2="effect1_dropShadow_76_1082" result="shape"/>
</filter>
<filter id="filter1_d_76_1082" x="23.0449" y="0.118896" width="36.5957" height="32.3232" filterUnits="userSpaceOnUse" color-interpolation-filters="sRGB">
<feFlood flood-opacity="0" result="BackgroundImageFix"/>
<feColorMatrix in="SourceAlpha" type="matrix" values="0 0 0 0 0 0 0 0 0 0 0 0 0 0 0 0 0 0 127 0" result="hardAlpha"/>
<feOffset dy="2"/>
<feGaussianBlur stdDeviation="1"/>
<feComposite in2="hardAlpha" operator="out"/>
<feColorMatrix type="matrix" values="0 0 0 0 0 0 0 0 0 0 0 0 0 0 0 0 0 0 0.25 0"/>
<feBlend mode="normal" in2="BackgroundImageFix" result="effect1_dropShadow_76_1082"/>
<feBlend mode="normal" in="SourceGraphic" in2="effect1_dropShadow_76_1082" result="shape"/>
</filter>
<clipPath id="clip0_76_1082">
<rect width="115.352" height="70" fill="white"/>
</clipPath>
</defs>
</svg>
