<svg width="116" height="70" viewBox="0 0 116 70" fill="none" xmlns="http://www.w3.org/2000/svg">
<g clip-path="url(#clip0_32_21)">
<path d="M20.7601 27.5153C20.7601 27.6816 20.7127 27.8004 20.618 27.9192C20.547 28.038 20.3813 28.1093 20.1446 28.2043C19.9315 28.2756 19.6238 28.3232 19.2451 28.3707C18.8663 28.4182 18.3929 28.4182 17.8011 28.4182C17.162 28.4182 16.6649 28.3944 16.2861 28.3707C15.9074 28.3232 15.5996 28.2756 15.3629 28.2043C15.1262 28.1331 14.9605 28.0143 14.8421 27.8717C14.7238 27.7291 14.6528 27.5628 14.5817 27.3489L12.3329 21.076C12.0252 20.1494 11.6938 19.389 11.3387 18.7712C10.9837 18.1534 10.6049 17.6544 10.1788 17.2743C9.77639 16.8941 9.27929 16.6327 8.75851 16.4664C8.21406 16.3001 7.62227 16.2288 6.95947 16.2288H5.68119V27.5153C5.68119 27.6816 5.63385 27.8004 5.53916 27.9192C5.46815 28.038 5.30245 28.1093 5.0894 28.2043C4.87636 28.2756 4.5923 28.3469 4.21355 28.3707C3.85847 28.4182 3.38504 28.4182 2.84059 28.4182C2.29614 28.4182 1.84638 28.3944 1.46763 28.3707C1.08889 28.3232 0.804827 28.2756 0.591782 28.2043C0.378737 28.1331 0.213035 28.038 0.118348 27.9192C0.0236617 27.8004 -0.0236816 27.6816 -0.0236816 27.5153V0.879158C-0.0236816 0.712831 0.0236617 0.594026 0.118348 0.475221C0.213035 0.356415 0.378737 0.285132 0.591782 0.190088C0.804827 0.118805 1.08889 0.0712831 1.46763 0.023761C1.84638 0.023761 2.29614 0 2.86426 0C3.40871 0 3.88215 0.023761 4.23722 0.0475221C4.5923 0.0950441 4.87636 0.142566 5.11307 0.213849C5.32612 0.285132 5.49182 0.380176 5.56284 0.498982C5.65752 0.594026 5.70487 0.736592 5.70487 0.902919V11.4528H6.98314C7.62227 11.4528 8.21406 11.3578 8.6875 11.1914C9.1846 11.0251 9.63437 10.74 10.0368 10.3598C10.4392 9.97963 10.7943 9.48065 11.1257 8.88663C11.4571 8.2926 11.7648 7.53225 12.0725 6.65309L13.9663 1.04549C14.0373 0.855397 14.132 0.665309 14.2267 0.546504C14.2977 0.403938 14.4397 0.308893 14.6764 0.23761C14.8895 0.166327 15.1972 0.0950441 15.5523 0.0712831C15.931 0.023761 16.4281 0 17.0436 0C17.6117 0 18.0615 0.023761 18.4402 0.0475221C18.819 0.0950441 19.103 0.142566 19.3161 0.213849C19.5055 0.285132 19.6475 0.356415 19.7185 0.475221C19.7895 0.594026 19.8369 0.712831 19.8369 0.879158C19.8369 1.06925 19.8132 1.30686 19.7422 1.56823C19.6712 1.85336 19.5765 2.20978 19.4108 2.66124L17.5407 7.65105C17.1856 8.57773 16.8542 9.36185 16.4992 10.0272C16.1441 10.6687 15.789 11.239 15.4103 11.6904C15.0315 12.1419 14.6291 12.5221 14.203 12.8072C13.7769 13.0923 13.3035 13.3299 12.7827 13.52V13.5438C13.3508 13.8052 13.8953 14.0665 14.345 14.3754C14.8185 14.6843 15.2682 15.0883 15.6706 15.5635C16.0731 16.0387 16.4755 16.6327 16.8542 17.3218C17.233 18.0109 17.6117 18.8663 17.9905 19.888L20.2866 25.7332C20.5233 26.3272 20.6654 26.7312 20.689 26.9688C20.7364 27.1826 20.7601 27.3727 20.7601 27.5153ZM84.4842 27.5153C84.4842 27.6816 84.4369 27.8004 84.3422 27.9192C84.2712 28.038 84.1055 28.1093 83.8688 28.2043C83.6557 28.2756 83.348 28.3232 82.9692 28.3707C82.5905 28.4182 82.1171 28.4182 81.5253 28.4182C80.8861 28.4182 80.389 28.3944 80.0103 28.3707C79.6315 28.3232 79.3238 28.2756 79.0871 28.2043C78.8504 28.1331 78.6847 28.0143 78.5663 27.8717C78.448 27.7291 78.3769 27.5628 78.3059 27.3489L76.0571 21.076C75.7494 20.1494 75.418 19.389 75.0629 18.7712C74.7078 18.1534 74.3291 17.6544 73.903 17.2743C73.5006 16.8941 73.0035 16.6327 72.4827 16.4664C71.9382 16.3001 71.3465 16.2288 70.6836 16.2288H69.4054V27.5153C69.4054 27.6816 69.358 27.8004 69.2633 27.9192C69.1923 28.038 69.0266 28.1093 68.8136 28.2043C68.6005 28.2756 68.3165 28.3469 67.9377 28.3707C67.5826 28.4182 67.1092 28.4182 66.5648 28.4182C66.0203 28.4182 65.5706 28.3944 65.1918 28.3707C64.8131 28.3232 64.529 28.2756 64.316 28.2043C64.1029 28.1331 63.9372 28.038 63.8425 27.9192C63.7478 27.8004 63.7005 27.6816 63.7005 27.5153V0.879158C63.7005 0.712831 63.7478 0.594026 63.8425 0.475221C63.9372 0.356415 64.1029 0.285132 64.316 0.190088C64.529 0.118805 64.8131 0.0712831 65.1918 0.023761C65.5706 0.023761 66.044 0 66.5884 0C67.1329 0 67.6063 0.023761 67.9614 0.0475221C68.3165 0.0950441 68.6005 0.142566 68.8372 0.213849C69.0503 0.285132 69.216 0.380176 69.287 0.498982C69.3817 0.594026 69.429 0.736592 69.429 0.902919V11.4528H70.7073C71.3465 11.4528 71.9382 11.3578 72.4117 11.1914C72.9088 11.0251 73.3585 10.74 73.761 10.3598C74.1634 9.97963 74.5185 9.48065 74.8499 8.88663C75.1813 8.2926 75.489 7.53225 75.7967 6.65309L77.6905 1.04549C77.7615 0.855397 77.8562 0.665309 77.9508 0.546504C78.0455 0.403938 78.2112 0.285132 78.448 0.213849C78.661 0.142566 78.9687 0.0712831 79.3238 0.0475221C79.6789 0 80.176 0 80.7914 0C81.3596 0 81.8093 0.023761 82.1881 0.0475221C82.5668 0.0950441 82.8509 0.142566 83.0639 0.213849C83.277 0.285132 83.419 0.356415 83.49 0.475221C83.561 0.594026 83.6084 0.712831 83.6084 0.879158C83.6084 1.06925 83.5847 1.30686 83.5137 1.56823C83.4427 1.85336 83.348 2.20978 83.1823 2.66124L81.3122 7.65105C80.9572 8.57773 80.6257 9.36185 80.2707 10.0272C79.9156 10.6687 79.5605 11.239 79.1818 11.6904C78.803 12.1419 78.4006 12.5221 77.9745 12.8072C77.5484 13.0923 77.075 13.3299 76.5542 13.52V13.5438C77.1223 13.8052 77.6668 14.0665 78.1165 14.3754C78.59 14.6843 79.0397 15.0883 79.4422 15.5635C79.8446 16.0387 80.247 16.6327 80.6257 17.3218C81.0045 18.0109 81.3832 18.8663 81.762 19.888L84.0581 25.7332C84.2949 26.3272 84.4369 26.7312 84.4606 26.9688C84.4606 27.1826 84.4842 27.3727 84.4842 27.5153Z" fill="white"/>
<path d="M57.6169 27.4916C57.6169 27.6342 57.5696 27.7767 57.4986 27.8955C57.4275 28.0143 57.2618 28.1094 57.0725 28.1807C56.8594 28.252 56.5754 28.2995 56.244 28.347C55.8889 28.3945 55.4628 28.4183 54.9183 28.4183C54.3976 28.4183 53.9478 28.3945 53.6164 28.347C53.2613 28.2995 53.0009 28.252 52.7879 28.1807C52.5985 28.1094 52.4328 28.0143 52.3618 27.8955C52.2671 27.7767 52.2198 27.6342 52.2198 27.4916V6.29676C52.2198 6.1542 52.1251 6.03539 51.9831 6.01163C51.841 5.98787 51.699 6.05915 51.6516 6.20172L44.1004 27.4678C44.053 27.6579 43.9584 27.8005 43.8163 27.9431C43.6743 28.0619 43.5086 28.1569 43.2955 28.2282C43.0825 28.2995 42.7748 28.347 42.4434 28.3708C42.0883 28.3945 41.6859 28.3945 41.1888 28.3945C40.6917 28.3945 40.2892 28.3708 39.9342 28.347C39.5791 28.2995 39.295 28.252 39.082 28.1807C38.8689 28.1094 38.6796 28.0143 38.5612 27.8955C38.4428 27.7767 38.3482 27.6342 38.3008 27.4916L31.0099 6.29676C30.9626 6.1542 30.8206 6.08292 30.6785 6.10668C30.5365 6.13044 30.4418 6.24924 30.4418 6.39181V27.5154C30.4418 27.6579 30.3945 27.8005 30.3235 27.9193C30.2524 28.0381 30.0867 28.1332 29.8737 28.2044C29.6607 28.2757 29.3766 28.3232 29.0215 28.3708C28.6901 28.4183 28.2404 28.442 27.7196 28.442C27.1988 28.442 26.749 28.4183 26.4176 28.3708C26.0626 28.3232 25.7785 28.2757 25.5891 28.2044C25.3761 28.1332 25.2341 28.0381 25.163 27.9193C25.092 27.8005 25.0447 27.6579 25.0447 27.5154V2.42372C25.0447 1.68712 25.2341 1.11686 25.6365 0.712922C26.0389 0.308985 26.536 0.118896 27.1988 0.118896H30.9153C31.5781 0.118896 32.1462 0.166419 32.6196 0.285224C33.0931 0.404029 33.5191 0.570356 33.8505 0.831727C34.1819 1.0931 34.4897 1.42575 34.7264 1.82969C34.9631 2.23363 35.1525 2.75637 35.3419 3.37416L41.3781 20.1257H41.4728L47.7222 3.39792C47.9115 2.78013 48.1246 2.28115 48.3376 1.85345C48.5743 1.44951 48.8347 1.0931 49.1188 0.831727C49.4028 0.570356 49.7579 0.380268 50.1603 0.285224C50.5628 0.166419 51.0362 0.118896 51.5806 0.118896H55.4155C55.8179 0.118896 56.1493 0.166419 56.4097 0.285224C56.6937 0.380268 56.9304 0.522834 57.0961 0.736683C57.2855 0.926772 57.4039 1.16438 57.4986 1.44951C57.5932 1.73465 57.6406 2.0673 57.6406 2.42372V27.4916H57.6169Z" fill="#F50014"/>
<path d="M6.01258 42.746C6.01258 42.7935 5.98891 42.841 5.96523 42.8648C5.94156 42.8886 5.89422 42.9123 5.8232 42.9361C5.75219 42.9598 5.68117 42.9836 5.56282 42.9836C5.44446 42.9836 5.3261 43.0074 5.13672 43.0074C4.94735 43.0074 4.80532 43.0074 4.71063 42.9836C4.59228 42.9836 4.49759 42.9598 4.45025 42.9361C4.37923 42.9123 4.33189 42.8886 4.30822 42.841C4.28454 42.7935 4.26087 42.746 4.2372 42.6985L3.57439 40.8926C3.47971 40.6313 3.38502 40.3936 3.29033 40.2273C3.19565 40.061 3.07729 39.8947 2.95893 39.7996C2.84057 39.6808 2.69854 39.6095 2.55651 39.562C2.39081 39.5145 2.22511 39.4907 2.03573 39.4907H1.63332V42.7697C1.63332 42.8173 1.60964 42.8648 1.58597 42.8886C1.5623 42.9123 1.51496 42.9361 1.44394 42.9598C1.37293 42.9836 1.30191 43.0074 1.18355 43.0074C1.08887 43.0074 0.946837 43.0311 0.781136 43.0311C0.615434 43.0311 0.497075 43.0311 0.378717 43.0074C0.260359 43.0074 0.189344 42.9836 0.118329 42.9598C0.0473135 42.9361 -2.98694e-05 42.9123 -0.0237016 42.8886C0.0236418 42.8173 -2.98694e-05 42.7697 -2.98694e-05 42.7222V35.0237C-2.98694e-05 34.9761 0.0236418 34.9286 0.0473135 34.9048C0.0709852 34.8811 0.118329 34.8573 0.189344 34.8336C0.260359 34.8098 0.331374 34.786 0.449732 34.786C0.56809 34.786 0.686449 34.7623 0.852151 34.7623C1.01785 34.7623 1.13621 34.7623 1.25457 34.786C1.34926 34.786 1.44394 34.8098 1.51496 34.8336C1.58597 34.8573 1.63332 34.8811 1.65699 34.9048C1.68066 34.9286 1.70433 34.9761 1.70433 35.0237V38.0888H2.08308C2.27245 38.0888 2.43815 38.0651 2.58018 38.0175C2.72221 37.97 2.84057 37.875 2.95893 37.7799C3.07729 37.6611 3.17198 37.5186 3.26666 37.3522C3.36135 37.1859 3.45604 36.9721 3.55072 36.7107L4.09517 35.0949C4.11884 35.0474 4.14251 34.9761 4.16619 34.9524C4.18986 34.9048 4.2372 34.8811 4.30822 34.8573C4.37923 34.8336 4.45025 34.8098 4.5686 34.8098C4.66329 34.8098 4.80532 34.786 4.9947 34.786C5.1604 34.786 5.30243 34.786 5.39711 34.8098C5.51547 34.8098 5.58649 34.8336 5.6575 34.8573C5.72852 34.8811 5.75219 34.9048 5.77586 34.9286C5.79953 34.9524 5.79953 34.9999 5.79953 35.0474C5.79953 35.0949 5.79953 35.1662 5.77586 35.2613C5.75219 35.3325 5.72852 35.4514 5.68117 35.5702L5.13672 37.0196C5.04204 37.281 4.92368 37.5186 4.82899 37.7086C4.73431 37.8987 4.61595 38.0651 4.52126 38.1839C4.4029 38.3264 4.28454 38.4215 4.16619 38.5165C4.04783 38.6116 3.9058 38.6591 3.76377 38.7304C3.92947 38.8017 4.0715 38.8729 4.21353 38.968C4.35556 39.063 4.47392 39.1818 4.59228 39.3006C4.71063 39.4432 4.82899 39.6095 4.92368 39.8234C5.04204 40.0372 5.13672 40.2748 5.25508 40.56L5.91789 42.247C5.98891 42.4133 6.03625 42.5321 6.03625 42.6034C6.01258 42.6509 6.01258 42.6985 6.01258 42.746ZM25.0446 69.6435C25.0446 69.691 25.0446 69.7148 25.0209 69.7623C24.9973 69.786 24.9499 69.8336 24.9026 69.8336C24.8316 69.8573 24.7605 69.8811 24.6659 69.8811C24.5712 69.9049 24.4291 69.9049 24.2871 69.9049C24.1451 69.9049 24.0031 69.9049 23.9084 69.8811C23.8137 69.8573 23.719 69.8573 23.6717 69.8336C23.6243 69.8098 23.577 69.786 23.5533 69.7623C23.5296 69.7385 23.506 69.691 23.506 69.6435V63.0142H23.4823L21.1388 69.6435C21.1151 69.691 21.0914 69.7385 21.0678 69.786C21.0204 69.8336 20.9731 69.8573 20.9021 69.8811C20.8311 69.9049 20.76 69.9048 20.6653 69.9286C20.5707 69.9286 20.4523 69.9286 20.3103 69.9286C20.1682 69.9286 20.0499 69.9286 19.9552 69.9049C19.8605 69.9049 19.7658 69.8811 19.7185 69.8573C19.6475 69.8336 19.6001 69.8098 19.5528 69.7623C19.5054 69.7385 19.4818 69.691 19.4818 69.6435L17.2093 63.0142H17.1856V69.6435C17.1856 69.691 17.1856 69.7148 17.1619 69.7623C17.1383 69.786 17.0909 69.8336 17.0436 69.8336C16.9726 69.8573 16.9016 69.8811 16.8069 69.8811C16.7122 69.9049 16.5938 69.9049 16.4281 69.9049C16.2861 69.9049 16.1441 69.9049 16.0494 69.8811C15.9547 69.8573 15.86 69.8573 15.8127 69.8336C15.7416 69.8098 15.718 69.786 15.6943 69.7623C15.6706 69.7385 15.6706 69.691 15.6706 69.6435V62.3726C15.6706 62.1588 15.718 61.9924 15.8363 61.8736C15.9547 61.7548 16.0967 61.7073 16.2861 61.7073H17.375C17.5644 61.7073 17.7301 61.7311 17.8721 61.7548C18.0141 61.7786 18.1325 61.8499 18.2272 61.9211C18.3219 61.9924 18.4165 62.0875 18.4876 62.2063C18.5586 62.3251 18.6059 62.4676 18.6533 62.6577L20.405 67.505H20.3576L22.1803 62.6577C22.2277 62.4914 22.2987 62.3251 22.3697 62.2063C22.4407 62.0875 22.5117 61.9924 22.6064 61.9211C22.7011 61.8499 22.7958 61.8023 22.9142 61.7548C23.0325 61.7311 23.1745 61.7073 23.3166 61.7073H24.4291C24.5475 61.7073 24.6422 61.7311 24.7132 61.7548C24.7842 61.7786 24.8552 61.8261 24.9026 61.8736C24.9499 61.9211 24.9973 61.9924 25.0209 62.0875C25.0446 62.1587 25.0683 62.2538 25.0683 62.3726V69.6435H25.0446ZM33.1403 69.6435C33.1403 69.691 33.1167 69.7148 33.093 69.7623C33.0693 69.786 33.022 69.8098 32.951 69.8336C32.8799 69.8573 32.8089 69.8811 32.6906 69.8811C32.5722 69.8811 32.4538 69.9049 32.2881 69.9049C32.1224 69.9049 32.0041 69.9049 31.8857 69.8811C31.7674 69.8811 31.6964 69.8573 31.6253 69.8336C31.5543 69.8098 31.507 69.786 31.4833 69.7623C31.4596 69.7385 31.436 69.691 31.436 69.6435V63.0854H28.406V69.6435C28.406 69.691 28.3823 69.7148 28.3586 69.7623C28.335 69.786 28.2876 69.8098 28.2166 69.8336C28.1456 69.8573 28.0746 69.8811 27.9562 69.8811C27.8615 69.8811 27.7195 69.9049 27.5538 69.9049C27.3881 69.9049 27.2697 69.9049 27.1514 69.8811C27.033 69.8811 26.962 69.8573 26.891 69.8336C26.82 69.8098 26.7726 69.786 26.749 69.7623C26.7253 69.7385 26.7016 69.691 26.7016 69.6435V62.23C26.7016 62.0637 26.749 61.9211 26.8437 61.8261C26.9383 61.7311 27.0567 61.7073 27.1987 61.7073H32.6669C32.8089 61.7073 32.9273 61.7548 33.022 61.8261C33.1167 61.9211 33.1403 62.0399 33.1403 62.23V69.6435ZM41.5438 69.2395C41.5911 69.3821 41.6148 69.5009 41.6385 69.596C41.6621 69.691 41.6385 69.7623 41.5911 69.786C41.5438 69.8336 41.4728 69.8573 41.3544 69.8573C41.236 69.8573 41.0703 69.8811 40.881 69.8811C40.6679 69.8811 40.5022 69.8811 40.3839 69.8811C40.2655 69.8811 40.1708 69.8573 40.0998 69.8336C40.0288 69.8098 40.0051 69.786 39.9578 69.7623C39.9341 69.7385 39.9104 69.691 39.8868 69.6197L39.3423 67.9802H36.2887L35.7679 69.5722C35.7442 69.6435 35.7205 69.691 35.6969 69.7148C35.6732 69.7623 35.6259 69.786 35.5548 69.8098C35.4838 69.8336 35.4128 69.8573 35.2944 69.8573C35.1761 69.8573 35.0341 69.8811 34.8684 69.8811C34.679 69.8811 34.537 69.8811 34.4186 69.8573C34.3002 69.8336 34.2292 69.8098 34.2056 69.7623C34.1582 69.7148 34.1582 69.6435 34.1582 69.5484C34.1819 69.4534 34.2056 69.3346 34.2529 69.192L36.7621 61.9687C36.7858 61.8974 36.8094 61.8499 36.8568 61.8023C36.8805 61.7548 36.9515 61.7311 37.0225 61.7073C37.0935 61.6835 37.1882 61.6598 37.3302 61.6598C37.4486 61.6598 37.6379 61.6598 37.851 61.6598C38.0877 61.6598 38.3008 61.6598 38.4428 61.6598C38.5848 61.6598 38.7032 61.6835 38.7742 61.7073C38.8452 61.7311 38.9162 61.7548 38.9399 61.8023C38.9636 61.8499 39.0109 61.9211 39.0346 61.9924L41.5438 69.2395ZM37.8273 63.2755L36.6911 66.7446H38.9636L37.8273 63.2755ZM49.024 69.6435C49.024 69.691 49.0004 69.7148 48.9767 69.7623C48.953 69.786 48.9057 69.8336 48.8347 69.8336C48.7636 69.8573 48.6926 69.8811 48.5743 69.8811C48.4796 69.9049 48.3375 69.9049 48.1718 69.9049C48.0061 69.9049 47.8641 69.9049 47.7694 69.8811C47.6511 69.8573 47.5801 69.8573 47.509 69.8336C47.438 69.8098 47.4144 69.786 47.367 69.7623C47.3433 69.7385 47.3197 69.691 47.3197 69.6435V66.3407H44.266V69.6435C44.266 69.691 44.2423 69.7148 44.2187 69.7623C44.195 69.786 44.1477 69.8336 44.0766 69.8336C44.0056 69.8573 43.9346 69.8811 43.8163 69.8811C43.7216 69.9049 43.5795 69.9049 43.4138 69.9049C43.2481 69.9049 43.1298 69.9049 43.0114 69.8811C42.8931 69.8573 42.822 69.8573 42.751 69.8336C42.68 69.8098 42.6327 69.786 42.609 69.7623C42.5853 69.7385 42.5617 69.691 42.5617 69.6435V61.9449C42.5617 61.8974 42.5853 61.8736 42.609 61.8261C42.6327 61.8023 42.68 61.7548 42.751 61.7548C42.822 61.7311 42.8931 61.7073 43.0114 61.7073C43.1298 61.6835 43.2481 61.6835 43.4138 61.6835C43.5795 61.6835 43.6979 61.6835 43.8163 61.7073C43.9109 61.7311 44.0056 61.7311 44.0766 61.7548C44.1477 61.7786 44.195 61.8023 44.2187 61.8261C44.2423 61.8499 44.266 61.8974 44.266 61.9449V64.9388H47.3197V61.9449C47.3197 61.8974 47.3433 61.8736 47.367 61.8261C47.3907 61.8023 47.438 61.7548 47.509 61.7548C47.5801 61.7311 47.6511 61.7073 47.7694 61.7073C47.8878 61.6835 48.0061 61.6835 48.1718 61.6835C48.3375 61.6835 48.4559 61.6835 48.5743 61.7073C48.6689 61.7311 48.7636 61.7311 48.8347 61.7548C48.9057 61.7786 48.953 61.8023 48.9767 61.8261C49.0004 61.8499 49.024 61.8974 49.024 61.9449V69.6435ZM57.4038 69.6435C57.4038 69.691 57.3801 69.7148 57.3565 69.7623C57.3328 69.786 57.2854 69.8098 57.2144 69.8336C57.1434 69.8573 57.0724 69.8811 56.954 69.8811C56.8357 69.8811 56.7173 69.9049 56.5516 69.9049C56.3859 69.9049 56.2676 69.9049 56.1492 69.8811C56.0308 69.8811 55.9598 69.8573 55.8888 69.8336C55.8178 69.8098 55.7941 69.786 55.7705 69.7623C55.7468 69.7385 55.7231 69.691 55.7231 69.6435V65.3427C55.7231 65.1764 55.7231 65.0101 55.7231 64.8675C55.7231 64.7012 55.7231 64.5586 55.7468 64.4398H55.7231C55.6994 64.4873 55.6521 64.5586 55.6048 64.6537C55.5574 64.7249 55.5101 64.82 55.4627 64.8913C55.4154 64.9863 55.3444 65.0576 55.297 65.1526C55.226 65.2477 55.1787 65.3427 55.1313 65.414L52.3144 69.6435C52.2907 69.691 52.2434 69.7385 52.2197 69.7623C52.1724 69.786 52.1487 69.8336 52.0777 69.8336C52.0303 69.8573 51.9593 69.8573 51.8646 69.8811C51.7936 69.8811 51.6753 69.8811 51.5569 69.8811C51.3912 69.8811 51.2728 69.8811 51.1545 69.8573C51.0598 69.8573 50.9651 69.8336 50.9178 69.8098C50.8704 69.786 50.8231 69.7623 50.7994 69.7385C50.7757 69.7148 50.7757 69.6672 50.7757 69.6197V61.9211C50.7757 61.8736 50.7994 61.8499 50.8231 61.8023C50.8467 61.7786 50.8941 61.7548 50.9651 61.731C51.0361 61.7073 51.1071 61.6835 51.2255 61.6835C51.3202 61.6835 51.4622 61.6598 51.6279 61.6598C51.7936 61.6598 51.912 61.6598 52.0303 61.6835C52.125 61.6835 52.2197 61.7073 52.2907 61.731C52.3617 61.7548 52.4091 61.7786 52.4327 61.8023C52.4564 61.8261 52.4801 61.8736 52.4801 61.9211V66.2456C52.4801 66.3882 52.4801 66.5308 52.4801 66.6733C52.4801 66.8159 52.4801 66.9822 52.4564 67.1248H52.4801C52.5511 67.006 52.6458 66.8397 52.7405 66.6733C52.8588 66.507 52.9535 66.3169 53.0719 66.1506L55.8888 61.9211C55.9125 61.8736 55.9598 61.8499 55.9835 61.8023C56.0072 61.7786 56.0545 61.7548 56.1255 61.731C56.1729 61.7073 56.2439 61.7073 56.3386 61.6835C56.4333 61.6835 56.5279 61.6598 56.67 61.6598C56.8357 61.6598 56.954 61.6598 57.0487 61.6835C57.1434 61.6835 57.2144 61.7073 57.2854 61.731C57.3328 61.7548 57.3801 61.7786 57.4038 61.8023C57.4275 61.8261 57.4275 61.8736 57.4275 61.9211V69.6435H57.4038ZM64.7657 69.6435C64.7657 69.691 64.742 69.7148 64.7183 69.7623C64.6947 69.786 64.6473 69.8098 64.6 69.8336C64.529 69.8573 64.458 69.8811 64.3396 69.8811C64.2212 69.8811 64.1029 69.9049 63.9372 69.9049C63.7715 69.9049 63.6294 69.9049 63.5348 69.8811C63.4401 69.8811 63.3454 69.8573 63.2744 69.8336C63.2034 69.8098 63.156 69.786 63.1323 69.7623C63.1087 69.7385 63.085 69.691 63.085 69.6435V66.6021H62.4695C62.2091 66.6021 62.0198 66.6258 61.9014 66.6733C61.7594 66.7209 61.641 66.7922 61.5463 66.911C61.4517 67.006 61.357 67.1486 61.2623 67.3149C61.1913 67.4812 61.0966 67.6475 61.0256 67.8614L60.4101 69.6197C60.3864 69.6672 60.3628 69.7148 60.3391 69.7385C60.3154 69.786 60.2444 69.8098 60.1734 69.8336C60.1024 69.8573 60.0077 69.8811 59.913 69.8811C59.7946 69.8811 59.6526 69.9049 59.4869 69.9049C59.2975 69.9049 59.1555 69.9049 59.0371 69.8811C58.9188 69.8573 58.8478 69.8573 58.7768 69.8336C58.7294 69.8098 58.6821 69.786 58.6584 69.7623C58.6347 69.7385 58.6347 69.691 58.6347 69.6672C58.6347 69.6197 58.6347 69.5722 58.6584 69.5009C58.6821 69.4296 58.7057 69.3583 58.7531 69.2158L59.3685 67.6238C59.4396 67.4099 59.5343 67.2436 59.6053 67.0773C59.7 66.911 59.771 66.7922 59.8893 66.6496C59.984 66.5308 60.1024 66.412 60.2207 66.3407C60.3391 66.2457 60.4574 66.1981 60.5995 66.1268C60.3391 66.0556 60.1024 65.9605 59.913 65.8417C59.7236 65.7229 59.5579 65.5803 59.4159 65.414C59.2739 65.2477 59.1792 65.0576 59.1082 64.8437C59.0371 64.6299 59.0135 64.3923 59.0135 64.1072C59.0135 63.727 59.0845 63.3943 59.2029 63.1092C59.3212 62.8003 59.5106 62.5627 59.771 62.3488C60.0314 62.135 60.3391 61.9687 60.7178 61.8499C61.0966 61.731 61.6174 61.6835 62.2802 61.6835H64.2686C64.4106 61.6835 64.5053 61.7311 64.6 61.8023C64.6947 61.8736 64.742 62.0162 64.742 62.2063V69.6435H64.7657ZM63.1323 62.9904H62.2802C61.9251 62.9904 61.6647 63.0141 61.4753 63.0617C61.3096 63.1092 61.1676 63.2042 61.0492 63.2993C60.9309 63.3943 60.8599 63.5131 60.8125 63.6795C60.7652 63.822 60.7415 63.9883 60.7415 64.1547C60.7415 64.321 60.7652 64.4873 60.8125 64.6299C60.8599 64.7725 60.9545 64.8913 61.0729 65.0101C61.1913 65.1289 61.3333 65.2002 61.499 65.2477C61.6884 65.2952 61.9251 65.3427 62.2565 65.3427H63.1323V62.9904ZM45.0945 56.1947C45.0945 56.2423 45.0709 56.266 45.0472 56.3135C45.0235 56.3373 44.9762 56.3611 44.9052 56.3848C44.8341 56.4086 44.7631 56.4323 44.6448 56.4323C44.5264 56.4323 44.408 56.4561 44.2423 56.4561C44.0766 56.4561 43.9346 56.4561 43.8399 56.4323C43.7452 56.4323 43.6506 56.4086 43.5795 56.3848C43.5085 56.3611 43.4612 56.3373 43.4375 56.3135C43.4138 56.2898 43.3902 56.2423 43.3902 56.1947V49.6129H41.6621C41.5438 50.5871 41.4254 51.4188 41.3071 52.1316C41.1887 52.8444 41.0467 53.4622 40.9283 53.985C40.7863 54.5077 40.6442 54.9116 40.4785 55.2443C40.3128 55.5769 40.1235 55.8383 39.9104 56.0284C39.6974 56.2185 39.4607 56.3611 39.2003 56.4323C38.9399 56.5036 38.6322 56.5511 38.3008 56.5511C38.2297 56.5511 38.1824 56.5511 38.1351 56.5274C38.0877 56.5036 38.064 56.4799 38.0167 56.4323C37.993 56.3848 37.9693 56.3135 37.9457 56.2423C37.922 56.1472 37.922 56.0522 37.922 55.9334C37.922 55.7433 37.922 55.6007 37.9457 55.5057C37.9457 55.3869 37.9693 55.3156 37.993 55.2443C38.0167 55.173 38.0404 55.1492 38.0877 55.1255C38.1114 55.1017 38.1587 55.1017 38.2061 55.1017C38.3244 55.1017 38.4665 55.078 38.5848 55.0304C38.7032 54.9829 38.8215 54.8641 38.9399 54.7215C39.0582 54.5552 39.1529 54.3414 39.2713 54.0562C39.366 53.7711 39.4843 53.4147 39.579 52.9395C39.6737 52.488 39.7684 51.9177 39.8631 51.2524C39.9578 50.5871 40.0525 49.803 40.1708 48.9001C40.1945 48.6862 40.2418 48.5437 40.3128 48.4486C40.3839 48.3536 40.5022 48.3298 40.6442 48.3298H44.6211C44.7631 48.3298 44.8815 48.3774 44.9762 48.4486C45.0472 48.5437 45.0945 48.6625 45.0945 48.8526V56.1947ZM50.7284 54.1513C50.539 54.6265 50.3733 55.0067 50.1839 55.3156C49.9946 55.6245 49.8052 55.8621 49.6158 56.0522C49.4028 56.2423 49.1897 56.3611 48.953 56.4323C48.7163 56.5036 48.4322 56.5274 48.1245 56.5274C48.0061 56.5274 47.9115 56.5274 47.7931 56.5036C47.6747 56.4799 47.5801 56.4799 47.4854 56.4323C47.3907 56.4086 47.296 56.3848 47.225 56.3373C47.154 56.3135 47.1066 56.266 47.0593 56.2423C47.0356 56.2185 46.9883 56.171 46.9883 56.1472C46.9646 56.1234 46.9646 56.0759 46.9409 56.0046C46.9172 55.9571 46.9172 55.8621 46.9172 55.7908C46.9172 55.6958 46.9172 55.5769 46.9172 55.4581C46.9172 55.2205 46.9409 55.0304 46.9646 54.9354C46.9883 54.8404 47.0593 54.7691 47.1303 54.7691C47.1776 54.7691 47.2013 54.7928 47.2486 54.8166C47.296 54.8404 47.3433 54.8879 47.4144 54.9116C47.4854 54.9354 47.5564 54.9829 47.6274 55.0067C47.7221 55.0304 47.8168 55.0542 47.9351 55.0542C48.0298 55.0542 48.1008 55.0542 48.1718 55.0304C48.2429 55.0067 48.3139 54.9829 48.3849 54.9116C48.4559 54.8641 48.5269 54.7691 48.5743 54.674C48.6453 54.579 48.7163 54.4602 48.7873 54.2938L46.1124 48.8288C46.0651 48.6862 46.0177 48.5912 46.0177 48.5199C46.0177 48.4486 46.0177 48.3774 46.0651 48.3298C46.1124 48.2823 46.2071 48.2585 46.3255 48.2348C46.4438 48.211 46.6095 48.211 46.7989 48.211C46.9883 48.211 47.154 48.211 47.2723 48.2348C47.3907 48.2348 47.4854 48.2585 47.5564 48.2823C47.6274 48.3061 47.6747 48.3536 47.7221 48.4011C47.7694 48.4486 47.7931 48.5199 47.8404 48.615L48.9767 51.0861C49.095 51.3475 49.2134 51.6089 49.3318 51.8702C49.4501 52.1316 49.5448 52.393 49.6632 52.6543H49.6868C49.7815 52.3692 49.8525 52.1078 49.9472 51.8227C50.0419 51.5613 50.1366 51.2762 50.255 50.9911L51.2018 48.4962C51.2255 48.4486 51.2492 48.4011 51.2728 48.3536C51.2965 48.3061 51.3675 48.2823 51.4149 48.2585C51.4859 48.2348 51.5806 48.2348 51.6989 48.211C51.8173 48.211 51.9593 48.211 52.1487 48.211C52.3381 48.211 52.5038 48.211 52.5984 48.2348C52.7168 48.2585 52.7878 48.2823 52.8352 48.3061C52.8825 48.3536 52.9062 48.4011 52.9062 48.4486C52.9062 48.5199 52.8825 48.5912 52.8352 48.6862L50.7284 54.1513ZM59.4632 50.7297C59.4632 51.1812 59.3922 51.5851 59.2502 51.9415C59.1082 52.2979 58.8951 52.5831 58.6347 52.8444C58.3743 53.082 58.0193 53.2721 57.6405 53.3909C57.2381 53.5097 56.7883 53.581 56.2439 53.581H55.5574V56.171C55.5574 56.2185 55.5337 56.2423 55.5101 56.2898C55.4864 56.3135 55.439 56.3611 55.368 56.3611C55.297 56.3848 55.226 56.4086 55.1076 56.4086C55.013 56.4323 54.8709 56.4323 54.7052 56.4323C54.5395 56.4323 54.4212 56.4323 54.3028 56.4086C54.1844 56.3848 54.1134 56.3848 54.0424 56.3611C53.9714 56.3373 53.9241 56.3135 53.9004 56.2898C53.8767 56.266 53.853 56.2185 53.853 56.171V48.8526C53.853 48.6625 53.9004 48.4962 54.0187 48.4011C54.1134 48.3061 54.2555 48.2585 54.4212 48.2585H56.3386C56.5279 48.2585 56.7173 48.2585 56.883 48.2823C57.0487 48.3061 57.2618 48.3298 57.4985 48.3774C57.7352 48.4249 57.9956 48.5199 58.2323 48.6387C58.469 48.7575 58.7057 48.9239 58.8714 49.1377C59.0371 49.3278 59.1792 49.5654 59.2739 49.8268C59.4159 50.1119 59.4632 50.397 59.4632 50.7297ZM57.7352 50.8485C57.7352 50.5634 57.6879 50.3258 57.5932 50.1357C57.4985 49.9456 57.3801 49.803 57.2144 49.7317C57.0724 49.6367 56.9067 49.5892 56.741 49.5654C56.5753 49.5416 56.4096 49.5416 56.2439 49.5416H55.5337V52.3217H56.2676C56.5279 52.3217 56.7647 52.2742 56.9304 52.2029C57.1197 52.1316 57.2618 52.0366 57.3801 51.894C57.4985 51.7752 57.5695 51.6089 57.6405 51.4425C57.7115 51.2762 57.7352 51.0623 57.7352 50.8485ZM65.3338 48.9476C65.3338 49.0664 65.3338 49.1852 65.3101 49.2565C65.3101 49.3516 65.2865 49.4228 65.2628 49.4704C65.2391 49.5179 65.2154 49.5654 65.1918 49.5892C65.1681 49.6129 65.1208 49.6129 65.0734 49.6129H62.3749V56.1947C62.3749 56.2423 62.3512 56.266 62.3275 56.3135C62.3038 56.3373 62.2565 56.3611 62.1855 56.3848C62.1145 56.4086 62.0434 56.4323 61.9251 56.4323C61.8304 56.4323 61.6884 56.4561 61.5227 56.4561C61.357 56.4561 61.2386 56.4561 61.1203 56.4323C61.0019 56.4323 60.9309 56.4086 60.8599 56.3848C60.7888 56.3611 60.7415 56.3373 60.7178 56.3135C60.6942 56.2898 60.6705 56.2423 60.6705 56.1947V48.7813C60.6705 48.615 60.7178 48.4724 60.8125 48.3774C60.9072 48.2823 61.0256 48.2585 61.1676 48.2585H65.0971C65.1918 48.2585 65.2391 48.3061 65.2865 48.4249C65.3101 48.5199 65.3338 48.71 65.3338 48.9476ZM72.8851 56.1947C72.8851 56.2423 72.8614 56.266 72.8377 56.3135C72.8141 56.3373 72.7667 56.3611 72.6957 56.3848C72.6247 56.4086 72.5537 56.4323 72.4353 56.4323C72.317 56.4323 72.1986 56.4561 72.0329 56.4561C71.8672 56.4561 71.7488 56.4561 71.6305 56.4323C71.5121 56.4323 71.4411 56.4086 71.3701 56.3848C71.2991 56.3611 71.2754 56.3373 71.2517 56.3135C71.2281 56.2898 71.2044 56.2423 71.2044 56.1947V51.894C71.2044 51.7277 71.2044 51.5613 71.2044 51.4188C71.2044 51.2524 71.2044 51.1099 71.2281 50.9911H71.2517C71.2281 51.0386 71.1807 51.1099 71.1334 51.2049C71.086 51.2762 71.0387 51.3712 70.9913 51.4425C70.944 51.5376 70.873 51.6089 70.8256 51.7039C70.7546 51.7989 70.7073 51.894 70.6599 51.9653L67.843 56.1947C67.8193 56.2423 67.772 56.2898 67.7483 56.3135C67.701 56.3373 67.6773 56.3848 67.6063 56.3848C67.559 56.4086 67.4879 56.4086 67.3932 56.4323C67.3222 56.4323 67.2039 56.4323 67.0855 56.4323C66.9198 56.4323 66.8015 56.4323 66.6831 56.4086C66.5884 56.4086 66.4937 56.3848 66.4464 56.3611C66.399 56.3373 66.3517 56.3135 66.328 56.2898C66.3044 56.266 66.3044 56.2185 66.3044 56.171V48.4724C66.3044 48.4249 66.328 48.4011 66.3517 48.3536C66.3754 48.3298 66.4227 48.3061 66.4937 48.2823C66.5647 48.2585 66.6357 48.2348 66.7541 48.2348C66.8488 48.2348 66.9908 48.211 67.1565 48.211C67.3222 48.211 67.4406 48.211 67.5589 48.2348C67.6536 48.2348 67.7483 48.2585 67.8193 48.2823C67.8904 48.3061 67.9377 48.3298 67.9614 48.3536C67.985 48.3774 68.0087 48.4249 68.0087 48.4724V52.7969C68.0087 52.9395 68.0087 53.082 68.0087 53.2246C68.0087 53.3672 68.0087 53.5335 67.985 53.6761H68.0087C68.0797 53.5573 68.1744 53.3909 68.2691 53.2246C68.3875 53.0583 68.4821 52.8682 68.6005 52.7019L71.4174 48.4724C71.4411 48.4249 71.4884 48.4011 71.5121 48.3536C71.5358 48.3298 71.5831 48.3061 71.6542 48.2823C71.7015 48.2585 71.7725 48.2585 71.8672 48.2348C71.9619 48.2348 72.0566 48.211 72.1986 48.211C72.3643 48.211 72.4827 48.211 72.5773 48.2348C72.672 48.2348 72.743 48.2585 72.8141 48.2823C72.8614 48.3061 72.9088 48.3298 72.9324 48.3536C72.9561 48.3774 72.9561 48.4249 72.9561 48.4724V56.1947H72.8851ZM80.1996 56.1947C80.1996 56.2423 80.176 56.266 80.1523 56.3135C80.1286 56.3373 80.0813 56.3611 80.0103 56.3848C79.9392 56.4086 79.8682 56.4323 79.7735 56.4323C79.6788 56.4561 79.5368 56.4561 79.3711 56.4561C79.2054 56.4561 79.0871 56.4561 78.9924 56.4323C78.874 56.4086 78.803 56.4086 78.732 56.3848C78.661 56.3611 78.6136 56.3373 78.59 56.3135C78.5663 56.2898 78.5426 56.2423 78.5426 56.1947V53.4147C78.3296 53.4385 78.0928 53.4622 77.8798 53.4622C77.6668 53.486 77.4537 53.486 77.2407 53.486C76.7909 53.486 76.3885 53.4385 76.0097 53.3672C75.6547 53.2959 75.3233 53.1533 75.0629 52.9395C74.8025 52.7494 74.5894 52.4642 74.4474 52.1316C74.3054 51.7752 74.2344 51.3475 74.2344 50.8247V48.4724C74.2344 48.4249 74.258 48.4011 74.2817 48.3536C74.3054 48.3298 74.3527 48.3061 74.4001 48.2823C74.4711 48.2585 74.5421 48.2348 74.6368 48.2348C74.7315 48.211 74.8735 48.211 75.0155 48.211C75.1812 48.211 75.2996 48.211 75.4179 48.2348C75.5363 48.2585 75.6073 48.2585 75.6783 48.2823C75.7494 48.3061 75.7967 48.3298 75.8204 48.3536C75.844 48.3774 75.8677 48.4249 75.8677 48.4724V50.6347C75.8677 50.896 75.8914 51.1099 75.9387 51.3C75.9861 51.49 76.0807 51.6326 76.1991 51.7514C76.3175 51.8702 76.4832 51.9653 76.6725 52.0366C76.8619 52.1078 77.1223 52.1316 77.4064 52.1316C77.5957 52.1316 77.7851 52.1316 77.9508 52.1078C78.1402 52.0841 78.3059 52.0841 78.4953 52.0603V48.4962C78.4953 48.4486 78.5189 48.4249 78.5426 48.3774C78.5663 48.3536 78.6136 48.3298 78.6846 48.3061C78.7557 48.2823 78.8267 48.2585 78.945 48.2585C79.0397 48.2348 79.1817 48.2348 79.3238 48.2348C79.4895 48.2348 79.6078 48.2348 79.7262 48.2585C79.8209 48.2823 79.9156 48.2823 79.9629 48.3061C80.0339 48.3298 80.0576 48.3536 80.1049 48.3774C80.1286 48.4011 80.1523 48.4486 80.1523 48.4962V56.1947H80.1996ZM86.7804 55.767C86.7804 55.8858 86.7804 55.9809 86.7567 56.0759C86.7567 56.1472 86.733 56.2185 86.7093 56.266C86.6857 56.3135 86.662 56.3611 86.6383 56.3848C86.6147 56.4086 86.5673 56.4086 86.5436 56.4086H82.4721C82.3301 56.4086 82.2117 56.3611 82.117 56.2898C82.0223 56.2185 81.975 56.0759 81.975 55.8858V48.7813C81.975 48.5912 82.0223 48.4724 82.117 48.3774C82.2117 48.3061 82.3301 48.2585 82.4721 48.2585H86.52C86.5673 48.2585 86.591 48.2585 86.6147 48.2823C86.6383 48.3061 86.662 48.3298 86.6857 48.4011C86.7093 48.4486 86.733 48.5199 86.733 48.615C86.733 48.71 86.7567 48.805 86.7567 48.9239C86.7567 49.0427 86.7567 49.1377 86.733 49.2327C86.733 49.304 86.7093 49.3753 86.6857 49.4228C86.662 49.4704 86.6383 49.5179 86.6147 49.5416C86.591 49.5654 86.5436 49.5654 86.52 49.5654H83.632V51.5613H86.0702C86.1175 51.5613 86.1412 51.5613 86.1649 51.5851C86.1886 51.6089 86.2122 51.6326 86.2359 51.7039C86.2596 51.7514 86.2832 51.8227 86.2832 51.894C86.2832 51.9653 86.3069 52.0841 86.3069 52.1791C86.3069 52.2979 86.3069 52.393 86.2832 52.488C86.2832 52.5593 86.2596 52.6306 86.2359 52.6781C86.2122 52.7256 86.1886 52.7731 86.1649 52.7731C86.1412 52.7969 86.0939 52.7969 86.0702 52.7969H83.632V55.1017H86.5436C86.591 55.1017 86.6147 55.1017 86.6383 55.1255C86.662 55.1492 86.6857 55.1968 86.7093 55.2443C86.733 55.2918 86.7567 55.3631 86.7567 55.4344C86.7804 55.5294 86.7804 55.6482 86.7804 55.767ZM93.5741 55.173C93.5741 55.2681 93.5741 55.3631 93.5741 55.4344C93.5741 55.5057 93.5505 55.5769 93.5505 55.6245C93.5505 55.672 93.5268 55.7195 93.5031 55.767C93.4794 55.8146 93.4558 55.8383 93.4084 55.8858C93.3611 55.9334 93.2664 56.0046 93.148 56.0759C93.006 56.1472 92.864 56.2185 92.6746 56.2898C92.4852 56.3611 92.2722 56.4086 92.0355 56.4561C91.7987 56.5036 91.5147 56.5274 91.2306 56.5274C90.6862 56.5274 90.1654 56.4323 89.7393 56.266C89.2896 56.0997 88.9108 55.8383 88.6031 55.5057C88.2953 55.173 88.0586 54.7453 87.8929 54.2226C87.7272 53.6998 87.6325 53.1058 87.6325 52.4405C87.6325 51.7514 87.7272 51.1336 87.9166 50.5871C88.106 50.0406 88.3664 49.5892 88.6978 49.2327C89.0292 48.8763 89.4316 48.5912 89.8813 48.4011C90.3311 48.211 90.8519 48.116 91.3963 48.116C91.6094 48.116 91.8461 48.1397 92.0355 48.1635C92.2485 48.211 92.4379 48.2585 92.6273 48.3061C92.8166 48.3774 92.9587 48.4486 93.1007 48.5199C93.2427 48.5912 93.3374 48.6625 93.4084 48.7338C93.4558 48.7813 93.5031 48.8288 93.5268 48.8763C93.5505 48.9239 93.5741 48.9714 93.5741 49.0189C93.5978 49.0902 93.5978 49.1377 93.5978 49.2327C93.5978 49.304 93.5978 49.3991 93.5978 49.5179C93.5978 49.6367 93.5978 49.7555 93.5741 49.8268C93.5741 49.9218 93.5505 49.9931 93.5268 50.0406C93.5031 50.0881 93.4794 50.1357 93.4558 50.1594C93.4321 50.1832 93.3848 50.207 93.3611 50.207C93.2901 50.207 93.219 50.1594 93.1244 50.0881C93.0297 50.0169 92.9113 49.9218 92.7456 49.8505C92.6036 49.7555 92.4142 49.6842 92.2012 49.6129C91.9881 49.5416 91.7514 49.4941 91.4437 49.4941C91.1123 49.4941 90.8282 49.5654 90.5915 49.6842C90.3311 49.8268 90.1181 49.9931 89.9524 50.2545C89.763 50.4921 89.6446 50.801 89.5499 51.1574C89.4553 51.5138 89.4079 51.894 89.4079 52.3217C89.4079 52.7969 89.4553 53.2246 89.5499 53.5573C89.6446 53.9137 89.7867 54.1988 89.976 54.4127C90.1654 54.6265 90.3784 54.8166 90.6388 54.9116C90.8992 55.0304 91.1833 55.078 91.5147 55.078C91.7988 55.078 92.0591 55.0542 92.2722 54.9829C92.4852 54.9116 92.6746 54.8404 92.8166 54.7453C92.9823 54.6503 93.1007 54.579 93.1954 54.5315C93.2901 54.4602 93.3611 54.4364 93.4321 54.4364C93.4794 54.4364 93.5031 54.4364 93.5268 54.4602C93.5505 54.4839 93.5741 54.5077 93.5978 54.5552C93.6215 54.6027 93.6215 54.674 93.6451 54.7691C93.5505 54.9116 93.5741 55.0304 93.5741 55.173ZM100.77 56.1947C100.77 56.2423 100.747 56.2898 100.723 56.3135C100.699 56.3373 100.652 56.3611 100.581 56.3848C100.51 56.4086 100.439 56.4323 100.321 56.4323C100.202 56.4323 100.084 56.4561 99.8945 56.4561C99.7051 56.4561 99.5631 56.4561 99.4684 56.4323C99.35 56.4323 99.2553 56.4086 99.208 56.3848C99.137 56.3611 99.0896 56.3373 99.066 56.2898C99.0423 56.2423 99.0186 56.1947 98.9949 56.1472L98.3321 54.3414C98.2374 54.08 98.1428 53.8424 98.0481 53.6761C97.9534 53.486 97.835 53.3434 97.7167 53.2484C97.5983 53.1296 97.4563 53.0583 97.3143 53.0108C97.1486 52.9632 96.9828 52.9395 96.7935 52.9395H96.4147V56.2185C96.4147 56.266 96.3911 56.3135 96.3674 56.3373C96.3437 56.3611 96.2964 56.3848 96.2254 56.4086C96.1543 56.4323 96.0833 56.4561 95.965 56.4561C95.8703 56.4561 95.7283 56.4799 95.5626 56.4799C95.3969 56.4799 95.2785 56.4799 95.1601 56.4561C95.0418 56.4561 94.9708 56.4323 94.8997 56.4086C94.8287 56.3848 94.7814 56.3611 94.7577 56.3373C94.734 56.3135 94.7104 56.266 94.7104 56.2185V48.4724C94.7104 48.4249 94.734 48.3774 94.7577 48.3536C94.7814 48.3298 94.8287 48.3061 94.8997 48.2823C94.9708 48.2585 95.0418 48.2348 95.1601 48.2348C95.2785 48.2348 95.3969 48.211 95.5626 48.211C95.7283 48.211 95.8466 48.211 95.965 48.2348C96.0597 48.2348 96.1543 48.2585 96.2254 48.2823C96.2964 48.3061 96.3437 48.3298 96.3674 48.3536C96.3911 48.3774 96.4147 48.4249 96.4147 48.4724V51.5376H96.7935C96.9828 51.5376 97.1486 51.5138 97.2906 51.4663C97.4326 51.4188 97.551 51.3237 97.6693 51.2287C97.7877 51.1099 97.8824 50.9673 97.9771 50.801C98.0717 50.6347 98.1664 50.4208 98.2611 50.1594L98.8056 48.5437C98.8292 48.4962 98.8529 48.4249 98.8766 48.4011C98.9003 48.3536 98.9476 48.3298 99.0186 48.3061C99.0896 48.2823 99.1606 48.2585 99.279 48.2585C99.3737 48.2585 99.5157 48.2348 99.7051 48.2348C99.8708 48.2348 100.013 48.2348 100.108 48.2585C100.226 48.2585 100.297 48.2823 100.368 48.3061C100.439 48.3298 100.463 48.3536 100.486 48.3774C100.51 48.4011 100.51 48.4486 100.51 48.4962C100.51 48.5437 100.51 48.615 100.486 48.71C100.463 48.7813 100.439 48.9001 100.392 49.0189L99.8471 50.4683C99.7524 50.7297 99.6578 50.9673 99.5394 51.1574C99.4447 51.3475 99.3263 51.5138 99.2317 51.6326C99.1133 51.7752 98.9949 51.8702 98.8766 51.9653C98.7582 52.0603 98.6162 52.1078 98.4742 52.1791C98.6399 52.2504 98.7819 52.3217 98.9239 52.4167C99.066 52.5118 99.1843 52.6306 99.3027 52.7494C99.421 52.8919 99.5394 53.0583 99.6341 53.2721C99.7524 53.486 99.8471 53.7236 99.9655 54.0087L100.628 55.6957C100.699 55.8621 100.747 55.9809 100.747 56.0522C100.747 56.0997 100.77 56.1472 100.77 56.1947ZM108.629 55.7908C108.677 55.9334 108.7 56.0522 108.724 56.1472C108.748 56.2423 108.724 56.3135 108.677 56.3373C108.629 56.3848 108.558 56.4086 108.44 56.4086C108.322 56.4086 108.156 56.4323 107.967 56.4323C107.753 56.4323 107.588 56.4323 107.469 56.4323C107.351 56.4323 107.256 56.4086 107.185 56.3848C107.114 56.3611 107.091 56.3373 107.043 56.3135C107.02 56.2898 106.996 56.2423 106.972 56.171L106.428 54.5315H103.374L102.853 56.1234C102.83 56.1947 102.806 56.2423 102.782 56.266C102.759 56.3135 102.711 56.3373 102.64 56.3611C102.569 56.3848 102.498 56.4086 102.38 56.4086C102.262 56.4086 102.12 56.4323 101.954 56.4323C101.765 56.4323 101.622 56.4323 101.504 56.4086C101.386 56.3848 101.315 56.3611 101.291 56.3135C101.244 56.266 101.244 56.1947 101.244 56.0997C101.267 56.0046 101.291 55.8858 101.338 55.7433L103.848 48.5199C103.871 48.4486 103.895 48.4011 103.942 48.3536C103.966 48.3061 104.037 48.2823 104.108 48.2585C104.179 48.2348 104.274 48.211 104.416 48.211C104.534 48.211 104.723 48.211 104.937 48.211C105.173 48.211 105.386 48.211 105.528 48.211C105.67 48.211 105.789 48.2348 105.86 48.2585C105.931 48.2823 106.002 48.3061 106.025 48.3536C106.049 48.4011 106.096 48.4724 106.12 48.5437L108.629 55.7908ZM104.913 49.803L103.777 53.2721H106.049L104.913 49.803ZM115.352 56.1947C115.352 56.2423 115.328 56.266 115.305 56.3135C115.281 56.3373 115.234 56.3611 115.186 56.3848C115.115 56.4086 115.044 56.4323 114.926 56.4323C114.808 56.4323 114.689 56.4561 114.524 56.4561C114.358 56.4561 114.216 56.4561 114.121 56.4323C114.026 56.4323 113.932 56.4086 113.861 56.3848C113.79 56.3611 113.742 56.3373 113.719 56.3135C113.695 56.2898 113.671 56.2423 113.671 56.1947V53.1533H113.056C112.796 53.1533 112.606 53.1771 112.488 53.2246C112.346 53.2721 112.227 53.3434 112.133 53.4622C112.038 53.5573 111.943 53.6998 111.849 53.8661C111.778 54.0325 111.683 54.1988 111.612 54.4127L110.996 56.171C110.973 56.2185 110.949 56.266 110.925 56.2898C110.902 56.3373 110.831 56.3611 110.76 56.3848C110.689 56.4086 110.594 56.4323 110.499 56.4323C110.381 56.4323 110.239 56.4561 110.073 56.4561C109.884 56.4561 109.742 56.4561 109.624 56.4323C109.505 56.4086 109.434 56.4086 109.363 56.3848C109.316 56.3611 109.268 56.3373 109.245 56.3135C109.221 56.2898 109.221 56.2423 109.221 56.2185C109.221 56.171 109.221 56.1234 109.245 56.0522C109.268 55.9809 109.292 55.9096 109.339 55.767L109.955 54.175C110.026 53.9612 110.121 53.7949 110.192 53.6285C110.286 53.4622 110.357 53.3434 110.476 53.2008C110.57 53.082 110.689 52.9632 110.807 52.892C110.925 52.7969 111.044 52.7494 111.186 52.6781C110.925 52.6068 110.689 52.5118 110.499 52.393C110.31 52.2742 110.144 52.1316 110.002 51.9653C109.86 51.7989 109.766 51.6089 109.695 51.395C109.624 51.1812 109.6 50.9435 109.6 50.6584C109.6 50.2782 109.671 49.9456 109.789 49.6604C109.908 49.3516 110.097 49.1139 110.357 48.9001C110.618 48.6862 110.925 48.5199 111.304 48.4011C111.683 48.2823 112.204 48.2348 112.867 48.2348H114.855C114.997 48.2348 115.092 48.2823 115.186 48.3536C115.281 48.4249 115.328 48.5674 115.328 48.7575V56.1947H115.352ZM113.719 49.5416H112.867C112.511 49.5416 112.251 49.5654 112.062 49.6129C111.896 49.6604 111.754 49.7555 111.636 49.8505C111.517 49.9456 111.446 50.0644 111.399 50.2307C111.352 50.3733 111.328 50.5396 111.328 50.7059C111.328 50.8723 111.352 51.0386 111.399 51.1812C111.446 51.3237 111.541 51.4425 111.659 51.5613C111.778 51.6801 111.92 51.7514 112.085 51.7989C112.275 51.8465 112.511 51.894 112.843 51.894H113.719V49.5416ZM6.01258 69.6435C6.01258 69.691 5.98891 69.7385 5.96523 69.7623C5.94156 69.786 5.89422 69.8098 5.8232 69.8336C5.75219 69.8573 5.68117 69.8811 5.56282 69.8811C5.44446 69.8811 5.3261 69.9049 5.13672 69.9049C4.94735 69.9049 4.80532 69.9049 4.71063 69.8811C4.59228 69.8811 4.49759 69.8573 4.45025 69.8336C4.37923 69.8098 4.33189 69.786 4.30822 69.7385C4.28454 69.691 4.26087 69.6435 4.2372 69.596L3.57439 67.7901C3.47971 67.5287 3.38502 67.2911 3.29033 67.1248C3.19565 66.9347 3.07729 66.7922 2.95893 66.6971C2.84057 66.5783 2.69854 66.507 2.55651 66.4595C2.39081 66.412 2.22511 66.3882 2.03573 66.3882H1.63332V69.6672C1.63332 69.7148 1.60964 69.7623 1.58597 69.786C1.5623 69.8098 1.51496 69.8336 1.44394 69.8573C1.37293 69.8811 1.30191 69.9049 1.18355 69.9049C1.08887 69.9049 0.946837 69.9286 0.781136 69.9286C0.615434 69.9286 0.497075 69.9286 0.378717 69.9049C0.260359 69.9049 0.189344 69.8811 0.118329 69.8573C0.0473135 69.8336 -2.98694e-05 69.8098 -0.0237016 69.786C-0.0473732 69.7623 -0.0710449 69.7148 -0.0710449 69.6672V61.9687C-0.0710449 61.9211 -0.0473732 61.8736 -0.0237016 61.8499C-2.98694e-05 61.8261 0.0473135 61.8023 0.118329 61.7786C0.189344 61.7548 0.260359 61.731 0.378717 61.731C0.497075 61.731 0.615434 61.7073 0.781136 61.7073C0.946837 61.7073 1.0652 61.7073 1.18355 61.731C1.27824 61.731 1.37293 61.7548 1.44394 61.7786C1.51496 61.8023 1.5623 61.8261 1.58597 61.8499C1.60964 61.8736 1.63332 61.9211 1.63332 61.9687V65.0338H2.01206C2.20144 65.0338 2.36714 65.0101 2.50917 64.9626C2.6512 64.915 2.76956 64.82 2.88792 64.7249C3.00627 64.6061 3.10096 64.4636 3.19565 64.2972C3.29033 64.1309 3.38502 63.9171 3.47971 63.6557L4.02416 62.0399C4.04783 61.9924 4.0715 61.9211 4.09517 61.8974C4.11884 61.8499 4.16619 61.8261 4.2372 61.8023C4.30822 61.7786 4.37923 61.7548 4.49759 61.7548C4.59228 61.7548 4.73431 61.731 4.92368 61.731C5.08938 61.731 5.23141 61.7311 5.3261 61.7548C5.44446 61.7548 5.51547 61.7786 5.58649 61.8023C5.6575 61.8261 5.68117 61.8499 5.70485 61.8736C5.72852 61.8974 5.72852 61.9449 5.72852 61.9924C5.72852 62.0399 5.72852 62.1112 5.70485 62.2063C5.68117 62.2776 5.6575 62.3964 5.61016 62.5152L5.06571 63.9646C4.97102 64.226 4.85266 64.4636 4.75798 64.6537C4.66329 64.8437 4.54493 65.0101 4.45025 65.1289C4.33189 65.2714 4.21353 65.3665 4.09517 65.4615C3.97681 65.5566 3.83478 65.6041 3.69275 65.6754C3.85845 65.7467 4.00048 65.8179 4.14251 65.913C4.28454 66.008 4.4029 66.1268 4.52126 66.2456C4.63962 66.3882 4.75798 66.5545 4.85266 66.7684C4.97102 66.9822 5.06571 67.2199 5.18407 67.505L5.84688 69.192C5.91789 69.3583 5.96523 69.4771 5.96523 69.5484C6.01258 69.5484 6.01258 69.596 6.01258 69.6435ZM14.203 65.6991C14.203 66.3645 14.1083 66.9822 13.9426 67.505C13.7769 68.0277 13.5165 68.5029 13.1851 68.8594C12.8537 69.2395 12.4513 69.5247 11.9542 69.7148C11.4571 69.9048 10.9126 69.9999 10.2735 69.9999C9.63435 69.9999 9.0899 69.9049 8.61646 69.7623C8.14303 69.596 7.76428 69.3346 7.43288 69.0019C7.12515 68.6693 6.88843 68.2416 6.72273 67.6951C6.55703 67.1723 6.48601 66.5545 6.48601 65.8417C6.48601 65.1764 6.5807 64.5824 6.7464 64.0596C6.9121 63.5369 7.17249 63.0854 7.50389 62.7053C7.8353 62.3251 8.23772 62.0637 8.73482 61.8499C9.23193 61.6598 9.77637 61.5647 10.4392 61.5647C11.0546 61.5647 11.5991 61.636 12.0725 61.8023C12.546 61.9687 12.9247 62.2063 13.2561 62.5627C13.5638 62.8953 13.8006 63.323 13.9663 63.8458C14.1083 64.3923 14.203 64.9863 14.203 65.6991ZM12.4749 65.7704C12.4749 65.3427 12.4513 64.9626 12.3803 64.6061C12.3092 64.2497 12.1909 63.9646 12.0489 63.7032C11.8832 63.4656 11.6701 63.2518 11.4097 63.133C11.1493 62.9904 10.8179 62.9191 10.4155 62.9191C10.0131 62.9191 9.68169 62.9904 9.39763 63.1567C9.13724 63.2993 8.90052 63.5131 8.73482 63.7745C8.56912 64.0359 8.45076 64.321 8.37975 64.6774C8.30873 65.0101 8.28506 65.3902 8.28506 65.7704C8.28506 66.2219 8.30873 66.6258 8.37975 66.9585C8.45076 67.2911 8.56912 67.6238 8.71115 67.8614C8.87685 68.1228 9.0899 68.3129 9.35028 68.4317C9.61067 68.5742 9.96575 68.6217 10.3682 68.6217C10.7706 68.6217 11.102 68.5505 11.386 68.3841C11.6464 68.2416 11.8832 68.0277 12.0489 67.7664C12.2146 67.505 12.3329 67.1961 12.4039 66.8634C12.4276 66.5308 12.4749 66.1744 12.4749 65.7704ZM12.7827 37.2809C12.7827 37.7324 12.7117 38.1363 12.5696 38.4928C12.4276 38.8492 12.2146 39.1343 11.9542 39.3957C11.6938 39.6333 11.3387 39.8234 10.96 39.9422C10.5575 40.061 10.1078 40.1323 9.56333 40.1323H8.87685V42.7222C8.87685 42.7697 8.85318 42.7935 8.82951 42.841C8.80584 42.8648 8.75849 42.9123 8.68748 42.9123C8.61646 42.9123 8.54545 42.9598 8.42709 42.9598C8.3324 42.9836 8.19037 42.9836 8.02467 42.9836C7.85897 42.9836 7.74061 42.9836 7.62225 42.9598C7.50389 42.9361 7.43288 42.9361 7.36186 42.9123C7.29085 42.8886 7.2435 42.8648 7.21983 42.841C7.19616 42.8173 7.17249 42.7697 7.17249 42.7222V35.4038C7.17249 35.2137 7.21983 35.0474 7.33819 34.9524C7.43288 34.8573 7.57491 34.8098 7.74061 34.8098H9.70536C9.89473 34.8098 10.0841 34.8098 10.2498 34.8336C10.4155 34.8573 10.6286 34.8811 10.8653 34.9286C11.102 34.9761 11.3624 35.0712 11.5991 35.19C11.8358 35.3088 12.0725 35.4751 12.2382 35.689C12.4039 35.879 12.546 36.1167 12.6406 36.378C12.759 36.6632 12.7827 36.9483 12.7827 37.2809ZM11.0783 37.3998C11.0783 37.1146 11.031 36.877 10.9363 36.6869C10.8416 36.4968 10.7232 36.3543 10.5575 36.283C10.4155 36.1879 10.2498 36.1404 10.0841 36.1167C9.9184 36.0929 9.7527 36.0929 9.587 36.0929H8.87685V38.8729H9.61067C9.87106 38.8729 10.1078 38.8254 10.2735 38.7541C10.4629 38.6829 10.6049 38.5878 10.7232 38.4452C10.8416 38.3264 10.9126 38.1601 10.9836 37.9938C11.031 37.8037 11.0783 37.6136 11.0783 37.3998ZM22.5591 42.746C22.5591 42.7935 22.5354 42.8173 22.5117 42.8648C22.4881 42.8886 22.4407 42.9123 22.3697 42.9361C22.2987 42.9598 22.2277 42.9836 22.1093 42.9836C21.991 42.9836 21.8726 43.0074 21.7069 43.0074C21.5412 43.0074 21.4228 43.0074 21.3045 42.9836C21.2098 42.9836 21.1151 42.9598 21.0441 42.9361C20.9731 42.9123 20.9257 42.8886 20.9021 42.8648C20.8784 42.841 20.8547 42.7935 20.8547 42.746V35.0237C20.8547 34.9761 20.8784 34.9524 20.9021 34.9048C20.9257 34.8811 20.9731 34.8573 21.0441 34.8336C21.1151 34.8098 21.1861 34.786 21.3045 34.786C21.4228 34.786 21.5412 34.7623 21.7069 34.7623C21.8726 34.7623 21.991 34.7623 22.1093 34.786C22.2277 34.786 22.2987 34.8098 22.3697 34.8336C22.4407 34.8573 22.4881 34.8811 22.5117 34.9048C22.5354 34.9286 22.5591 34.9761 22.5591 35.0237V42.746ZM19.9079 40.2748C19.9079 40.655 19.8368 41.0114 19.7185 41.3441C19.6001 41.653 19.4108 41.9381 19.1504 42.1757C18.89 42.4133 18.5586 42.6034 18.1562 42.746C17.7537 42.8886 17.1856 42.9598 16.4755 42.9598H14.5581C14.487 42.9598 14.416 42.9598 14.3687 42.9361C14.2977 42.9123 14.2503 42.8886 14.203 42.841C14.1556 42.7935 14.132 42.746 14.0846 42.6747C14.0609 42.6034 14.0373 42.5321 14.0373 42.4371V35.0237C14.0373 34.9761 14.0609 34.9524 14.0846 34.9048C14.1083 34.8811 14.1556 34.8573 14.2267 34.8336C14.2977 34.8098 14.3687 34.786 14.487 34.786C14.6054 34.786 14.7238 34.7623 14.8895 34.7623C15.0552 34.7623 15.1735 34.7623 15.2919 34.786C15.3866 34.786 15.4812 34.8098 15.5523 34.8336C15.6233 34.8573 15.6706 34.8811 15.6943 34.9048C15.718 34.9286 15.7416 34.9761 15.7416 35.0237V37.8512H16.7595C17.375 37.8512 17.8484 37.8987 18.2035 38.0175C18.5586 38.1126 18.8663 38.2789 19.1267 38.4928C19.3871 38.7066 19.5765 38.9442 19.7185 39.2531C19.8368 39.5382 19.9079 39.8709 19.9079 40.2748ZM18.2035 40.3936C18.2035 40.2036 18.1798 40.0135 18.1088 39.8471C18.0615 39.6808 17.9668 39.562 17.8484 39.4432C17.7301 39.3244 17.5644 39.2531 17.375 39.1818C17.1856 39.1105 16.9016 39.0868 16.5465 39.0868H15.6943V41.6767H16.5701C16.9489 41.6767 17.233 41.6292 17.446 41.5579C17.6354 41.4867 17.8011 41.3678 17.8958 41.249C18.0141 41.1302 18.0851 40.9877 18.1325 40.8451C18.1798 40.7025 18.2035 40.56 18.2035 40.3936ZM33.7795 42.7222C33.7795 42.7697 33.7795 42.7935 33.7558 42.841C33.7321 42.8648 33.6848 42.9123 33.6374 42.9123C33.5664 42.9361 33.4954 42.9598 33.4007 42.9598C33.306 42.9836 33.164 42.9836 33.022 42.9836C32.8799 42.9836 32.7379 42.9836 32.6432 42.9598C32.5485 42.9361 32.4538 42.9361 32.4065 42.9123C32.3592 42.8886 32.3118 42.8648 32.2881 42.841C32.2645 42.8173 32.2408 42.7697 32.2408 42.7222V36.0929H32.1935L29.85 42.7222C29.8263 42.7697 29.8026 42.8173 29.7789 42.8648C29.7316 42.9123 29.6843 42.9361 29.6132 42.9598C29.5422 42.9836 29.4712 42.9836 29.3765 43.0074C29.2818 43.0074 29.1635 43.0074 29.0215 43.0074C28.8794 43.0074 28.7611 43.0074 28.6664 42.9836C28.5717 42.9836 28.477 42.9598 28.4297 42.9361C28.3586 42.9123 28.3113 42.8886 28.264 42.841C28.2166 42.8173 28.1929 42.7697 28.1929 42.7222L25.9205 36.0929H25.8968V42.7222C25.8968 42.7697 25.8968 42.7935 25.8731 42.841C25.8494 42.8648 25.8021 42.9123 25.7548 42.9123C25.6837 42.9361 25.6127 42.9598 25.518 42.9598C25.4234 42.9836 25.305 42.9836 25.1393 42.9836C24.9973 42.9836 24.8552 42.9836 24.7605 42.9598C24.6659 42.9361 24.5712 42.9361 24.5238 42.9123C24.4528 42.8886 24.4291 42.8648 24.4055 42.841C24.3818 42.8173 24.3818 42.7697 24.3818 42.7222V35.4514C24.3818 35.2375 24.4291 35.0712 24.5475 34.9524C24.6659 34.8336 24.8079 34.786 24.9973 34.786H26.0862C26.2755 34.786 26.4412 34.8098 26.5833 34.8336C26.7253 34.8573 26.8437 34.9286 26.9383 34.9999C27.033 35.0712 27.1277 35.1662 27.1987 35.285C27.2697 35.4038 27.3171 35.5464 27.3644 35.7365L29.1161 40.5837H29.1398L30.9625 35.7365C31.0099 35.5702 31.0809 35.4038 31.1519 35.285C31.2229 35.1662 31.2939 35.0712 31.3886 34.9999C31.4833 34.9286 31.578 34.8811 31.6964 34.8336C31.8147 34.8098 31.9567 34.786 32.0988 34.786H33.2113C33.3297 34.786 33.4244 34.8098 33.4954 34.8336C33.5664 34.8573 33.6374 34.9048 33.6848 34.9524C33.7321 34.9999 33.7795 35.0712 33.8031 35.1662C33.8268 35.2375 33.8505 35.3325 33.8505 35.4514V42.7222H33.7795ZM41.165 41.7243C41.165 41.8193 41.165 41.9144 41.165 41.9856C41.165 42.0569 41.1414 42.1282 41.1414 42.1757C41.1414 42.2232 41.1177 42.2708 41.094 42.3183C41.0703 42.3658 41.0467 42.3896 40.9993 42.4371C40.952 42.4846 40.8573 42.5559 40.7389 42.6272C40.5969 42.6985 40.4549 42.7697 40.2655 42.841C40.0761 42.9123 39.8631 42.9598 39.6264 43.0074C39.3896 43.0549 39.1056 43.0786 38.8215 43.0786C38.2771 43.0786 37.7563 42.9836 37.3302 42.8173C36.8805 42.6509 36.5017 42.3896 36.194 42.0569C35.8862 41.7243 35.6495 41.2966 35.4838 40.7738C35.3181 40.2511 35.2234 39.6571 35.2234 38.9917C35.2234 38.3027 35.3181 37.6849 35.5075 37.1384C35.6969 36.5919 35.9573 36.1404 36.2887 35.784C36.6201 35.4276 37.0225 35.1425 37.4722 34.9524C37.922 34.7623 38.4428 34.6672 38.9872 34.6672C39.2003 34.6672 39.437 34.691 39.6264 34.7148C39.8394 34.7623 40.0288 34.8098 40.2182 34.8573C40.4075 34.9286 40.5496 34.9999 40.6916 35.0712C40.8336 35.1425 40.9283 35.2137 40.9993 35.285C41.0467 35.3325 41.094 35.3801 41.1177 35.4276C41.1414 35.4751 41.165 35.5226 41.165 35.5702C41.1887 35.6414 41.1887 35.689 41.1887 35.784C41.1887 35.8553 41.1887 35.9503 41.1887 36.0691C41.1887 36.1879 41.1887 36.3068 41.165 36.378C41.165 36.4731 41.1414 36.5444 41.1177 36.5919C41.094 36.6394 41.0703 36.6869 41.0467 36.7107C41.023 36.7344 40.9757 36.7582 40.952 36.7582C40.881 36.7582 40.81 36.7107 40.7153 36.6394C40.6206 36.5681 40.5022 36.4731 40.3365 36.4018C40.1945 36.3067 40.0051 36.2355 39.7921 36.1642C39.579 36.0929 39.3423 36.0454 39.0346 36.0454C38.7032 36.0454 38.4191 36.1167 38.1824 36.2355C37.922 36.378 37.709 36.5444 37.5433 36.8057C37.3539 37.0433 37.2355 37.3522 37.1408 37.7086C37.0462 38.0651 36.9988 38.4452 36.9988 38.8729C36.9988 39.3482 37.0462 39.7759 37.1408 40.1085C37.2355 40.4649 37.3776 40.7501 37.5669 40.9639C37.7563 41.1778 37.9693 41.3678 38.2297 41.4629C38.4901 41.5817 38.7742 41.6292 39.1056 41.6292C39.3896 41.6292 39.65 41.6055 39.8631 41.5342C40.0761 41.4629 40.2655 41.3916 40.4075 41.2966C40.5732 41.2015 40.6916 41.1302 40.7863 41.0827C40.881 41.0114 40.952 40.9877 41.023 40.9877C41.0703 40.9877 41.094 40.9877 41.1177 41.0114C41.1414 41.0352 41.165 41.059 41.1887 41.1065C41.2124 41.154 41.2124 41.2253 41.236 41.3203C41.165 41.4629 41.165 41.5817 41.165 41.7243ZM48.3612 42.746C48.3612 42.7935 48.3375 42.841 48.3139 42.8648C48.2902 42.8886 48.2429 42.9123 48.1718 42.9361C48.1008 42.9598 48.0298 42.9836 47.9115 42.9836C47.7931 42.9836 47.6747 43.0074 47.4854 43.0074C47.296 43.0074 47.154 43.0074 47.0593 42.9836C46.9409 42.9836 46.8462 42.9598 46.7989 42.9361C46.7279 42.9123 46.6805 42.8886 46.6569 42.841C46.6332 42.7935 46.6095 42.746 46.5858 42.6985L45.923 40.8689C45.8283 40.6075 45.7337 40.3699 45.639 40.2036C45.5443 40.0372 45.4259 39.8709 45.3076 39.7759C45.1892 39.6571 45.0472 39.5858 44.9052 39.5382C44.7394 39.4907 44.5737 39.467 44.3844 39.467H44.0056V42.746C44.0056 42.7935 43.982 42.841 43.9583 42.8648C43.9346 42.8886 43.8873 42.9123 43.8163 42.9361C43.7452 42.9598 43.6742 42.9836 43.5559 42.9836C43.4612 42.9836 43.3191 43.0074 43.1535 43.0074C42.9877 43.0074 42.8694 43.0074 42.751 42.9836C42.6327 42.9836 42.5617 42.9598 42.4906 42.9361C42.4196 42.9123 42.3723 42.8886 42.3486 42.8648C42.3249 42.841 42.3013 42.7935 42.3013 42.746V35.0474C42.3013 34.9999 42.3249 34.9524 42.3486 34.9286C42.3723 34.9048 42.4196 34.8811 42.4906 34.8573C42.5617 34.8336 42.6327 34.8098 42.751 34.8098C42.8694 34.8098 42.9877 34.786 43.1535 34.786C43.3191 34.786 43.4375 34.786 43.5559 34.8098C43.6506 34.8098 43.7452 34.8336 43.8163 34.8573C43.8873 34.8811 43.9346 34.9048 43.9583 34.9286C43.982 34.9524 44.0056 34.9999 44.0056 35.0474V38.1126H44.3844C44.5737 38.1126 44.7395 38.0888 44.8815 38.0413C45.0235 37.9938 45.1419 37.8987 45.2602 37.8037C45.3786 37.6849 45.4733 37.5423 45.568 37.376C45.6626 37.2097 45.7573 36.9958 45.852 36.7344L46.3965 35.1187C46.4201 35.0712 46.4438 34.9999 46.4675 34.9761C46.4912 34.9286 46.5385 34.9048 46.6095 34.8811C46.6805 34.8573 46.7515 34.8336 46.8699 34.8336C46.9646 34.8336 47.1066 34.8098 47.296 34.8098C47.4617 34.8098 47.6037 34.8098 47.6984 34.8336C47.8168 34.8336 47.8878 34.8573 47.9588 34.8811C48.0298 34.9048 48.0535 34.9286 48.0772 34.9524C48.1008 34.9761 48.1008 35.0237 48.1008 35.0712C48.1008 35.1187 48.1008 35.19 48.0772 35.285C48.0535 35.3563 48.0298 35.4751 47.9825 35.5939L47.438 37.0433C47.3433 37.3047 47.225 37.5423 47.1303 37.7324C47.0356 37.9225 46.9172 38.0888 46.8226 38.2076C46.7042 38.3502 46.5858 38.4452 46.4675 38.5403C46.3491 38.6353 46.2071 38.6829 46.0651 38.7541C46.2308 38.8254 46.3728 38.8967 46.5148 38.9917C46.6569 39.0868 46.7752 39.2056 46.8936 39.3244C47.0119 39.467 47.1303 39.6333 47.225 39.8471C47.3433 40.061 47.438 40.2986 47.5564 40.5837L48.2192 42.2708C48.2902 42.4371 48.3375 42.5559 48.3375 42.6272C48.3612 42.6509 48.3612 42.6985 48.3612 42.746ZM56.2202 42.3421C56.2676 42.4846 56.2912 42.6034 56.3149 42.6985C56.3386 42.7935 56.3149 42.8648 56.2676 42.8886C56.2202 42.9361 56.1492 42.9598 56.0308 42.9598C55.9125 42.9598 55.7468 42.9836 55.5574 42.9836C55.3444 42.9836 55.1787 42.9836 55.0603 42.9836C54.9419 42.9836 54.8473 42.9598 54.7762 42.9361C54.7052 42.9123 54.6816 42.8886 54.6342 42.8648C54.6105 42.841 54.5869 42.7935 54.5632 42.7222L54.0187 41.0827H50.9651L50.4443 42.6747C50.4207 42.746 50.397 42.7935 50.3733 42.8173C50.3496 42.8648 50.3023 42.8886 50.2313 42.9123C50.1603 42.9361 50.0893 42.9598 49.9709 42.9598C49.8525 42.9598 49.7105 42.9836 49.5448 42.9836C49.3554 42.9836 49.2134 42.9836 49.095 42.9598C48.9767 42.9361 48.9057 42.9123 48.882 42.8648C48.8347 42.8173 48.8347 42.746 48.8347 42.6509C48.8583 42.5559 48.882 42.4371 48.9293 42.2945L51.4385 35.0712C51.4622 34.9999 51.4859 34.9524 51.5332 34.9048C51.5569 34.8573 51.6279 34.8336 51.6989 34.8098C51.7699 34.786 51.8646 34.7623 52.0067 34.7623C52.125 34.7623 52.3144 34.7623 52.5274 34.7623C52.7641 34.7623 52.9772 34.7623 53.1192 34.7623C53.2613 34.7623 53.3796 34.786 53.4506 34.8098C53.5216 34.8336 53.5927 34.8573 53.6163 34.9048C53.64 34.9524 53.6873 35.0237 53.711 35.0949L56.2202 42.3421ZM52.5038 36.3543L51.3675 39.8234H53.64L52.5038 36.3543ZM62.9666 42.746C62.9666 42.7935 62.943 42.8173 62.9193 42.8648C62.8956 42.8886 62.8483 42.9123 62.8009 42.9361C62.7299 42.9598 62.6589 42.9836 62.5406 42.9836C62.4222 42.9836 62.3038 43.0074 62.1381 43.0074C61.9724 43.0074 61.8304 43.0074 61.7357 42.9836C61.641 42.9836 61.5463 42.9598 61.4753 42.9361C61.4043 42.9123 61.357 42.8886 61.3333 42.8648C61.3096 42.841 61.2859 42.7935 61.2859 42.746V39.7046H60.6705C60.4101 39.7046 60.2207 39.7283 60.1024 39.7759C59.9603 39.8234 59.842 39.8947 59.7473 40.0135C59.6526 40.1085 59.5579 40.2511 59.4632 40.4174C59.3922 40.5837 59.2975 40.7501 59.2265 40.9639L58.6111 42.7222C58.5874 42.7697 58.5637 42.8173 58.54 42.841C58.5164 42.8886 58.4454 42.9123 58.3743 42.9361C58.3033 42.9598 58.2086 42.9836 58.1139 42.9836C57.9956 42.9836 57.8536 43.0074 57.6879 43.0074C57.4985 43.0074 57.3565 43.0074 57.2381 42.9836C57.1197 42.9598 57.0487 42.9598 56.9777 42.9361C56.9304 42.9123 56.883 42.8886 56.8594 42.8648C56.8357 42.841 56.8357 42.7935 56.8357 42.7697C56.8357 42.7222 56.8357 42.6747 56.8594 42.6034C56.883 42.5321 56.9067 42.4609 56.954 42.3183L57.5695 40.7263C57.6405 40.5124 57.7352 40.3461 57.8062 40.1798C57.9009 40.0135 57.9719 39.8947 58.0903 39.7521C58.185 39.6333 58.3033 39.5145 58.4217 39.4432C58.54 39.3482 58.6584 39.3006 58.8004 39.2294C58.54 39.1581 58.3033 39.063 58.1139 38.9442C57.9246 38.8254 57.7589 38.6829 57.6168 38.5165C57.4748 38.3502 57.3801 38.1601 57.3091 37.9463C57.2381 37.7324 57.2144 37.4948 57.2144 37.2097C57.2144 36.8295 57.2854 36.4968 57.4038 36.2117C57.5222 35.9028 57.7115 35.6652 57.9719 35.4514C58.2323 35.2375 58.54 35.0712 58.9188 34.9524C59.2975 34.8336 59.8183 34.786 60.4811 34.786H62.4695C62.6116 34.786 62.7062 34.8336 62.8009 34.9048C62.8956 34.9761 62.943 35.1187 62.943 35.3088V42.746H62.9666ZM61.3096 36.0929H60.4574C60.1024 36.0929 59.842 36.1167 59.6526 36.1642C59.4869 36.2117 59.3449 36.3067 59.2265 36.4018C59.1082 36.4968 59.0371 36.6156 58.9898 36.782C58.9425 36.9245 58.9188 37.0909 58.9188 37.2572C58.9188 37.4235 58.9425 37.5898 58.9898 37.7324C59.0371 37.875 59.1318 37.9938 59.2502 38.1126C59.3685 38.2314 59.5106 38.3027 59.6763 38.3502C59.8657 38.3977 60.1024 38.4452 60.4338 38.4452H61.3096V36.0929ZM16.0257 55.767C16.0257 55.8858 16.0257 55.9809 16.002 56.0759C16.002 56.1472 15.9784 56.2185 15.9547 56.266C15.931 56.3135 15.9073 56.3611 15.8837 56.3848C15.86 56.4086 15.8127 56.4086 15.789 56.4086H11.7175C11.5754 56.4086 11.4571 56.3611 11.3624 56.2898C11.2677 56.2185 11.2203 56.0759 11.2203 55.8858V48.7813C11.2203 48.5912 11.2677 48.4724 11.3624 48.3774C11.4571 48.3061 11.5754 48.2585 11.7175 48.2585H15.7653C15.8127 48.2585 15.8363 48.2585 15.86 48.2823C15.8837 48.3061 15.9073 48.3298 15.931 48.4011C15.9547 48.4486 15.9784 48.5199 15.9784 48.615C15.9784 48.71 16.002 48.805 16.002 48.9239C16.002 49.0427 16.002 49.1377 15.9784 49.2327C15.9784 49.304 15.9547 49.3753 15.931 49.4228C15.9073 49.4704 15.8837 49.5179 15.86 49.5416C15.8363 49.5654 15.789 49.5654 15.7653 49.5654H12.8774V51.5613H15.3155C15.3629 51.5613 15.3866 51.5613 15.4102 51.5851C15.4339 51.6089 15.4576 51.6326 15.4813 51.7039C15.5049 51.7514 15.5286 51.8227 15.5286 51.894C15.5286 51.9653 15.5523 52.0841 15.5523 52.1791C15.5523 52.2979 15.5523 52.393 15.5286 52.488C15.5286 52.5593 15.5049 52.6306 15.4813 52.6781C15.4576 52.7256 15.4339 52.7731 15.4102 52.7731C15.3866 52.7969 15.3392 52.7969 15.3155 52.7969H12.8774V55.1017H15.789C15.8363 55.1017 15.86 55.1017 15.8837 55.1255C15.9073 55.1492 15.931 55.1968 15.9547 55.2443C15.9784 55.2918 16.002 55.3631 16.002 55.4344C16.0257 55.5294 16.0257 55.6482 16.0257 55.767ZM22.8431 48.9476C22.8431 49.0664 22.8431 49.1615 22.8195 49.2565C22.8195 49.3516 22.7958 49.4228 22.7721 49.4704C22.7485 49.5179 22.7248 49.5654 22.7011 49.5892C22.6774 49.6129 22.6301 49.6367 22.6064 49.6367H20.5707V56.1947C20.5707 56.2423 20.547 56.266 20.5233 56.3135C20.4996 56.3373 20.4523 56.3848 20.3813 56.3848C20.3103 56.4086 20.2393 56.4323 20.1209 56.4323C20.0025 56.4561 19.8842 56.4561 19.7185 56.4561C19.5528 56.4561 19.4344 56.4561 19.3161 56.4323C19.1977 56.4086 19.1267 56.4086 19.0557 56.3848C18.9847 56.3611 18.9373 56.3373 18.9136 56.3135C18.89 56.2898 18.8663 56.2423 18.8663 56.1947V49.6367H16.8305C16.7832 49.6367 16.7595 49.6129 16.7122 49.5892C16.6885 49.5654 16.6648 49.5179 16.6412 49.4704C16.6175 49.4228 16.5938 49.3516 16.5938 49.2565C16.5938 49.1615 16.5701 49.0664 16.5701 48.9476C16.5701 48.8288 16.5701 48.71 16.5938 48.6387C16.5938 48.5437 16.6175 48.4724 16.6412 48.4249C16.6648 48.3774 16.6885 48.3298 16.7122 48.3061C16.7358 48.2823 16.7832 48.2823 16.8305 48.2823H22.5354C22.5828 48.2823 22.6064 48.2823 22.6301 48.3061C22.6538 48.3298 22.6774 48.3774 22.7011 48.4249C22.7248 48.4724 22.7485 48.5437 22.7485 48.6387C22.8431 48.71 22.8431 48.8288 22.8431 48.9476ZM29.5896 55.7908C29.6369 55.9334 29.6606 56.0522 29.6843 56.1472C29.7079 56.2423 29.6843 56.3135 29.6369 56.3373C29.5896 56.3848 29.5186 56.4086 29.4002 56.4086C29.2818 56.4086 29.1161 56.4323 28.9268 56.4323C28.7137 56.4323 28.548 56.4323 28.4297 56.4323C28.3113 56.4323 28.2166 56.4086 28.1456 56.3848C28.0746 56.3611 28.0509 56.3373 28.0036 56.3135C27.9799 56.2898 27.9562 56.2423 27.9326 56.171L27.3881 54.5315H24.3345L23.8137 56.1234C23.79 56.1947 23.7663 56.2423 23.7427 56.266C23.719 56.3135 23.6717 56.3373 23.6006 56.3611C23.5296 56.3848 23.4586 56.4086 23.3403 56.4086C23.2219 56.4086 23.0799 56.4323 22.9142 56.4323C22.7248 56.4323 22.5828 56.4323 22.4644 56.4086C22.346 56.3848 22.275 56.3611 22.2514 56.3135C22.204 56.266 22.204 56.1947 22.204 56.0997C22.2277 56.0046 22.2514 55.8858 22.2987 55.7433L24.8079 48.5199C24.8316 48.4486 24.8552 48.4011 24.9026 48.3536C24.9263 48.3061 24.9973 48.2823 25.0683 48.2585C25.1393 48.2348 25.234 48.211 25.376 48.211C25.4944 48.211 25.6837 48.211 25.8968 48.211C26.1335 48.211 26.3466 48.211 26.4886 48.211C26.6306 48.211 26.749 48.2348 26.82 48.2585C26.891 48.2823 26.962 48.3061 26.9857 48.3536C27.0094 48.4011 27.0567 48.4724 27.0804 48.5437L29.5896 55.7908ZM25.8494 49.803L24.7132 53.2721H26.9857L25.8494 49.803ZM37.0225 56.1947C37.0225 56.2423 36.9988 56.266 36.9751 56.3135C36.9515 56.3373 36.9041 56.3611 36.8331 56.3848C36.7621 56.4086 36.6911 56.4323 36.5727 56.4323C36.4544 56.4323 36.336 56.4561 36.1703 56.4561C36.0046 56.4561 35.8626 56.4561 35.7679 56.4323C35.6732 56.4323 35.5785 56.4086 35.5075 56.3848C35.4365 56.3611 35.3891 56.3373 35.3655 56.3135C35.3418 56.2898 35.3181 56.2423 35.3181 56.1947V49.6129H33.5901C33.4717 50.5871 33.3534 51.4188 33.235 52.1316C33.1167 52.8444 32.9746 53.4622 32.8563 53.985C32.7142 54.5077 32.5722 54.9116 32.4065 55.2443C32.2408 55.5769 32.0514 55.8383 31.8384 56.0284C31.6253 56.2185 31.3886 56.3611 31.1282 56.4323C30.8678 56.5036 30.5601 56.5511 30.2287 56.5511C30.1577 56.5511 30.1103 56.5511 30.063 56.5274C30.0157 56.5036 29.992 56.4799 29.9446 56.4323C29.921 56.3848 29.8973 56.3135 29.8736 56.2423C29.85 56.1472 29.85 56.0522 29.85 55.9334C29.85 55.7433 29.85 55.6007 29.8736 55.5057C29.8736 55.3869 29.8973 55.3156 29.921 55.2443C29.9446 55.173 29.9683 55.1492 30.0157 55.1255C30.0393 55.1017 30.0867 55.1017 30.134 55.1017C30.2524 55.1017 30.3944 55.078 30.5128 55.0304C30.6311 54.9829 30.7495 54.8641 30.8678 54.7215C30.9862 54.5552 31.0809 54.3414 31.1992 54.0562C31.2939 53.7711 31.4123 53.4147 31.507 52.9395C31.6017 52.488 31.6964 51.9177 31.791 51.2524C31.8857 50.5871 31.9804 49.803 32.0988 48.9001C32.1224 48.6862 32.1698 48.5437 32.2408 48.4486C32.3118 48.3536 32.4302 48.3298 32.5722 48.3298H36.549C36.6911 48.3298 36.8094 48.3774 36.9041 48.4486C36.9751 48.5437 37.0225 48.6625 37.0225 48.8526V56.1947Z" fill="white"/>
<path d="M9.445 56.1947C9.445 56.2423 9.445 56.266 9.42133 56.3135C9.39766 56.3373 9.35031 56.3848 9.30297 56.3848C9.23196 56.4086 9.16094 56.4323 9.06625 56.4323C8.97157 56.4561 8.82954 56.4561 8.68751 56.4561C8.54548 56.4561 8.40345 56.4561 8.30876 56.4323C8.21407 56.4086 8.11939 56.4086 8.07204 56.3848C8.0247 56.3611 7.97736 56.3373 7.95368 56.3135C7.93001 56.2898 7.90634 56.2423 7.90634 56.1947V49.5654H7.88267L5.53917 56.1947C5.5155 56.2423 5.49183 56.2898 5.46816 56.3373C5.42082 56.3848 5.37347 56.4086 5.30246 56.4323C5.23144 56.4561 5.16043 56.4561 5.06574 56.4799C4.97105 56.4799 4.85269 56.4799 4.71066 56.4799C4.56863 56.4799 4.45028 56.4799 4.35559 56.4561C4.2609 56.4561 4.16622 56.4323 4.11887 56.4086C4.07153 56.3848 4.00051 56.3611 3.95317 56.3135C3.90583 56.2898 3.88216 56.2423 3.88216 56.1947L1.60967 49.5654H1.56233V56.1947C1.56233 56.2423 1.56233 56.266 1.53866 56.3135C1.51499 56.3373 1.46764 56.3848 1.4203 56.3848C1.34929 56.4086 1.27827 56.4323 1.18358 56.4323C1.0889 56.4561 0.970539 56.4561 0.804837 56.4561C0.662807 56.4561 0.520777 56.4561 0.42609 56.4323C0.331404 56.4086 0.236717 56.4086 0.189373 56.3848C0.118358 56.3611 0.0946867 56.3373 0.0710151 56.3135C0 56.266 0 56.2185 0 56.1947V48.9239C0 48.71 0.0473434 48.5437 0.165702 48.4249C0.28406 48.3061 0.42609 48.2585 0.615464 48.2585H1.70436C1.89373 48.2585 2.05944 48.2823 2.20147 48.3061C2.3435 48.3298 2.46185 48.4011 2.55654 48.4724C2.65123 48.5437 2.74591 48.6387 2.81693 48.7575C2.88795 48.8763 2.93529 49.0189 2.98263 49.209L4.73434 54.0562H4.75801L6.58073 49.209C6.62807 49.0427 6.69909 48.8763 6.7701 48.7575C6.84112 48.6387 6.91213 48.5437 7.00682 48.4724C7.1015 48.4011 7.19619 48.3536 7.31455 48.3061C7.43291 48.2823 7.57494 48.2585 7.71697 48.2585H8.82954C8.9479 48.2585 9.04258 48.2823 9.1136 48.3061C9.18461 48.3298 9.25563 48.3773 9.30297 48.4249C9.35031 48.4724 9.39766 48.5437 9.42133 48.6387C9.445 48.71 9.46867 48.805 9.46867 48.9239V56.1947H9.445Z" fill="#F50014"/>
</g>
<defs>
<clipPath id="clip0_32_21">
<rect width="115.352" height="70" fill="white"/>
</clipPath>
</defs>
</svg>
