<svg width="1113" height="741" viewBox="0 0 1113 741" fill="none" xmlns="http://www.w3.org/2000/svg">
<g clip-path="url(#clip0_70_682)">
<mask id="path-1-outside-1_70_682" maskUnits="userSpaceOnUse" x="0.425781" y="0.125122" width="1122" height="740" fill="black">
<rect fill="white" x="0.425781" y="0.125122" width="1122" height="740"/>
<path d="M1073.86 208.544C1072.65 211.131 1071.74 212.956 1072.19 214.782C1072.5 216.456 1075.54 219.803 1075.54 219.803C1075.54 219.803 1077.66 221.933 1079.64 223.15C1085.11 226.954 1088.3 228.627 1088.3 228.627L1090.88 232.279C1090.88 232.279 1088.15 235.474 1086.63 237.908C1083.13 243.385 1080.25 243.841 1079.64 246.732C1079.18 249.775 1077.36 253.122 1077.82 255.404C1078.27 257.534 1078.42 261.642 1078.42 261.642C1078.42 261.642 1076.45 263.163 1074.62 266.054C1072.8 268.793 1071.43 262.555 1072.8 268.793C1074.02 275.031 1072.65 279.443 1072.8 281.116C1073.26 282.79 1073.26 282.79 1073.26 282.79L1071.28 285.528C1071.28 285.528 1068.09 287.811 1065.51 289.028C1062.77 290.093 1054.11 285.224 1052.59 286.289C1051.07 287.05 1048.64 287.05 1048.03 289.484C1047.27 292.071 1046.96 293.288 1050.16 295.113C1053.35 296.787 1055.02 296.026 1056.84 296.331C1058.82 297.396 1063.83 295.874 1063.83 295.874L1067.03 294.353C1072.04 295.874 1072.95 296.939 1074.62 296.635C1076.3 296.331 1077.51 294.353 1079.18 293.288L1082.22 296.331C1082.22 296.331 1082.37 300.438 1084.05 301.808C1085.41 303.329 1086.63 305.459 1086.63 305.459C1086.63 305.459 1087.54 308.198 1089.82 310.023C1095.44 314.892 1100.16 311.849 1098.18 316.565C1096.05 321.13 1093.47 322.955 1092.1 323.868C1090.43 324.629 1084.05 327.672 1084.05 327.672C1084.05 327.672 1081.61 330.563 1080.85 332.54C1079.94 334.366 1077.51 336.496 1077.51 336.496C1077.51 336.496 1073.86 339.083 1067.03 340.452C1060.19 341.821 1055.48 338.626 1052.59 341.365C1049.7 344.408 1047.12 346.69 1043.93 351.102C1040.73 355.057 1041.65 358.252 1035.57 356.579C1029.34 354.905 1026.6 349.58 1023.26 350.95C1019.91 352.015 1024.02 357.796 1019.91 352.015C1015.81 346.385 1018.7 347.755 1015.81 346.385C1013.23 345.016 1016.72 343.951 1013.23 345.016C1009.88 346.385 1013.53 349.124 1009.88 346.385C1006.39 343.495 1007.76 346.994 1006.39 343.495C1005.17 340.3 1004.41 336.344 1004.41 336.344C1004.41 336.344 1004.87 329.802 1001.37 332.693C997.877 335.888 996.662 339.387 998.485 341.669C1000.01 343.647 999.701 344.255 1000.61 346.538C1002.28 351.406 1002.13 353.84 1002.13 353.84C993.622 355.514 993.774 355.97 990.887 356.579C987.999 357.187 986.935 356.883 984.96 359.013C982.984 361.295 982.68 358.861 980.401 362.969C978.273 366.925 979.489 361.295 978.273 366.925C977.057 372.402 980.401 368.75 977.057 372.402C973.562 376.053 976.297 374.38 973.562 376.053C970.826 377.879 971.282 380.009 967.483 378.335C963.836 376.966 969.155 377.575 963.836 376.966C958.365 376.205 962.924 372.25 958.365 376.205C953.805 380.161 957.453 377.575 953.805 380.161C950.158 382.747 949.854 383.204 947.575 384.117C945.447 385.334 949.398 384.421 945.447 385.334C941.344 386.095 947.271 389.137 941.344 386.095C935.417 383.052 935.721 384.269 933.289 381.074C931.161 378.031 931.161 378.64 928.73 376.053C926.602 373.619 921.283 364.642 918.396 365.251C915.508 365.707 896.208 353.84 893.776 354.145C891.497 354.601 874.324 350.493 871.892 350.341C869.461 350.189 841.953 356.731 840.282 357.187C838.61 357.492 830.859 362.512 829.036 365.251C827.06 367.99 819.461 376.662 817.486 378.64C815.662 380.77 810.799 386.551 808.975 389.289C807.304 391.876 804.72 394.767 804.568 396.592C804.416 398.418 805.48 403.439 807.152 403.743C808.975 403.895 814.294 407.851 817.486 405.873C820.677 404.047 828.58 404.96 822.653 408.307C816.878 411.959 811.863 416.371 811.863 416.371L812.167 423.978C812.167 423.978 814.446 427.173 816.726 429.607C819.005 432.194 813.534 433.867 813.534 433.867L806.24 429.912L795.906 430.824L788.307 430.977C788.307 430.977 784.508 427.173 783.14 428.542C781.62 429.912 780.556 430.216 779.341 432.65C778.125 435.237 775.997 433.259 775.389 437.214C774.933 440.561 774.933 441.17 776.605 442.844C778.125 444.365 780.556 442.387 781.012 444.213C782.076 449.234 783.9 447.104 782.076 449.234C779.948 451.211 779.948 451.211 779.948 451.211L772.198 453.494C772.198 453.494 759.128 467.339 758.672 477.228C758.216 487.421 758.672 492.138 755.785 495.637C753.049 499.136 748.794 505.07 748.794 505.07C748.794 505.07 745.603 509.026 742.107 506.287C738.612 504.309 738.46 500.049 736.028 500.049C733.597 499.745 731.621 498.984 729.797 498.832C727.974 498.528 726.454 496.55 725.694 494.876C724.782 493.203 722.047 491.377 722.047 491.377L714.904 491.073C714.904 491.073 712.473 491.529 710.801 494.268C708.977 496.854 708.977 496.854 707.002 498.528C704.874 500.201 703.202 500.049 701.531 501.571C700.163 502.788 698.339 503.244 697.883 506.287C697.123 509.33 697.731 509.178 694.54 509.786C691.044 510.547 686.941 510.851 686.941 510.851L682.078 510.091L678.583 512.981C673.416 510.547 676.911 510.395 673.416 510.547C669.92 510.547 673.416 507.504 669.92 510.547C666.425 513.742 663.537 514.198 662.018 514.959C660.498 516.024 656.547 514.959 655.179 515.872C653.507 516.785 651.379 517.85 649.86 518.611C648.34 519.676 644.541 524.544 644.541 524.544C644.541 524.544 639.982 527.891 638.31 529.26C636.942 530.934 617.186 544.779 617.186 544.779L605.332 555.277L596.517 561.21L587.703 569.73C587.703 569.73 585.271 575.208 583.448 578.403C581.776 581.597 577.521 587.227 577.521 587.227C577.521 587.227 569.618 600.007 569.314 601.985C569.162 603.658 568.098 610.505 568.098 610.505C568.098 610.505 566.731 612.482 567.187 615.221C567.794 618.112 565.667 619.633 565.515 621.915C565.515 624.349 564.451 628.153 564.451 628.153C563.843 633.934 564.755 636.521 562.931 638.499C559.436 641.389 557.612 641.085 555.029 642.911C552.445 644.432 553.509 640.781 552.445 644.432C551.381 648.236 549.102 651.127 547.582 653.104C546.214 655.082 544.847 657.212 543.327 658.582C541.959 660.103 544.087 662.689 540.135 663.45C536.336 664.211 528.889 665.732 525.394 665.884C521.899 665.884 516.428 665.276 516.428 665.276C515.516 672.883 513.844 670.297 514.148 676.991C513.996 683.229 513.388 685.815 513.844 687.489C514.148 689.01 514.908 689.771 512.324 692.357C510.045 695.248 510.197 698.139 508.525 699.204C501.99 702.246 502.294 701.486 499.711 702.703C496.975 703.768 493.936 703.768 492.112 705.898C490.288 708.028 488.465 711.984 488.465 711.984L484.209 716.852C484.209 716.852 465.213 721.721 462.173 721.721C459.438 721.721 457.158 722.633 451.687 722.177C446.064 721.264 444.089 720.047 441.201 720.047C438.162 720.047 436.794 718.069 433.906 722.025C431.171 726.133 430.867 726.741 426.156 730.697C421.597 734.501 427.828 732.827 421.597 734.501C415.518 736.478 413.086 739.065 409.287 737.696C405.336 735.87 402.752 734.044 401.384 732.675C396.977 728.871 396.369 728.263 395.457 726.741C394.545 725.22 393.786 724.155 390.746 723.698C387.707 723.09 385.883 725.372 384.515 721.873C383.3 718.526 383.907 723.851 383.3 718.526C382.844 713.353 382.236 710.462 382.236 710.462C382.236 710.462 381.628 709.397 379.348 707.724C377.221 705.746 375.093 704.376 373.269 703.92C371.598 703.616 369.47 699.508 366.734 700.573C363.999 701.79 363.695 700.573 361.415 701.181C359.136 701.638 357.92 701.181 356.4 702.094C354.729 702.855 350.473 706.05 348.802 705.441C344.243 703.311 341.811 699.66 341.811 699.66C341.811 699.66 339.683 696.921 337.556 698.899C331.325 703.464 332.085 701.029 329.349 695.704C326.462 690.379 322.966 692.966 320.383 691.596C317.647 690.227 304.882 684.446 304.882 684.446L298.347 678.208C298.347 678.208 301.082 671.209 305.034 673.339C309.137 675.621 310.201 675.317 311.264 672.122C312.48 669.232 310.049 668.927 315.52 666.189C320.839 663.298 321.751 661.929 323.878 661.472C326.158 661.016 326.158 660.407 329.653 660.864C333.301 661.32 336.492 663.146 336.492 663.146C336.492 663.146 338.62 664.515 341.355 663.602C344.091 662.233 346.37 661.776 346.37 661.776C346.37 661.776 350.321 666.341 351.689 664.971C353.209 663.45 355.033 661.32 355.033 661.32C355.033 661.32 355.489 657.06 353.209 657.06C350.777 656.756 347.89 654.017 346.066 654.322C344.546 654.626 337.708 653.561 337.708 653.561L333.604 653.865C333.452 649.757 335.884 644.584 335.884 644.584C335.884 644.584 336.036 642.607 337.556 641.237C338.923 639.868 338.62 637.586 338.012 634.695C337.404 631.957 336.188 628.609 335.124 626.023C333.908 623.284 331.933 619.025 332.237 617.047C332.389 615.221 331.933 610.048 331.933 610.048C331.933 610.048 329.805 604.723 329.805 601.68C329.805 598.637 329.045 594.834 328.589 592.4C328.133 590.27 327.829 588.444 327.374 586.314C326.766 584.032 326.158 580.076 327.374 577.49C330.565 570.187 329.045 571.86 330.565 570.187C332.085 568.665 333.908 568.97 336.492 567.753C339.227 566.688 339.987 564.101 339.987 564.101L341.203 558.624C341.203 558.624 339.075 544.931 338.316 540.975C337.404 536.868 337.252 532.912 336.036 528.956C334.668 525.153 331.173 519.828 330.869 517.698C330.413 515.263 328.285 516.328 330.565 509.938C332.845 503.548 332.845 500.201 332.845 500.201C332.845 500.201 331.325 495.789 328.741 494.42C326.158 493.203 323.574 492.138 324.79 489.399C326.158 486.813 327.526 488.334 332.693 487.421C337.86 486.356 345.914 482.857 340.747 481.031C335.58 478.901 333.604 477.076 330.869 477.836C327.981 478.445 325.094 478.901 322.966 479.358C320.687 479.966 318.255 479.053 317.951 477.38C317.647 475.859 315.976 473.12 315.976 473.12L312.328 469.773C312.328 469.773 308.681 466.73 311.264 464.6C313.696 462.47 319.775 460.34 319.775 460.34L327.526 460.796C327.526 460.796 327.222 453.189 324.486 453.646C321.599 454.254 315.824 454.863 315.824 454.863C315.824 454.863 313.544 454.711 311.872 455.624C310.353 456.384 304.73 461.101 304.73 461.101C304.73 461.101 302.906 460.949 301.082 461.253C299.411 461.709 296.675 459.731 296.219 457.601C295.763 455.319 295.763 452.429 295.763 452.429L300.93 449.081C300.93 449.081 303.21 445.126 303.362 442.844C303.362 440.409 302.906 437.975 302.906 437.975L306.553 434.932L305.793 431.129C305.793 431.129 300.93 430.824 301.082 427.934C301.082 424.891 298.955 429.455 301.082 424.891C303.058 420.327 304.426 417.588 304.426 417.588C304.426 417.588 304.274 414.697 302.754 412.719C301.234 410.589 299.866 409.829 296.067 411.654C292.42 413.632 288.924 411.807 287.253 414.545C285.429 417.284 281.478 418.044 279.806 421.392C278.134 424.587 276.615 426.108 273.879 427.021C271.144 428.086 266.28 429.759 266.28 429.759C266.28 429.759 262.785 430.977 261.873 429.455C261.873 429.455 257.922 427.325 256.25 427.629C254.579 428.086 253.971 428.238 252.451 429.607C250.931 431.129 248.348 435.541 248.348 435.541L247.588 440.409L247.892 444.517C245.004 450.451 245.612 450.907 243.029 452.124C240.293 453.189 239.229 454.102 237.558 455.015L233.758 465.209C233.758 465.209 230.871 468.708 226.92 466.73C222.968 464.448 223.424 461.253 220.993 460.036C218.409 458.819 210.658 452.733 210.658 452.733C210.658 452.733 205.339 452.581 203.668 452.885C201.996 453.341 200.172 449.994 197.589 449.386C195.157 448.625 185.887 443.452 185.887 443.452L178.288 437.823C178.288 437.823 176.161 430.064 174.033 428.694C172.209 427.325 174.033 422.761 171.298 419.87C168.41 416.827 168.41 411.502 164.915 414.697C161.419 417.74 164.763 414.089 161.419 417.74C158.076 421.392 162.635 423.826 158.076 421.392C153.365 418.805 150.021 419.262 151.389 414.393C152.757 409.372 151.693 407.242 153.213 405.264L161.267 398.722C161.267 398.722 158.076 394.31 164.763 388.833C171.298 383.356 175.249 376.662 178.288 373.619C181.176 370.728 192.726 354.905 192.726 354.905C192.726 354.905 196.069 350.189 190.294 351.406C184.671 352.471 182.088 358.252 180.416 360.991C178.592 363.73 173.577 370.576 171.601 372.706C169.626 374.836 165.674 378.487 163.091 380.77C160.659 383.052 156.1 384.573 152.149 388.225C148.198 392.028 148.198 392.028 144.094 394.615C139.839 397.049 142.575 396.136 136.8 397.201C131.177 398.266 127.681 399.027 120.691 398.722C113.548 398.418 112.636 397.809 106.101 399.179C99.2624 400.548 86.3447 401.309 83.7612 402.374C81.0257 403.439 74.9467 405.264 71.4514 408.459C67.804 411.35 63.3968 413.024 61.8771 416.675C60.3574 420.479 59.4455 422.457 56.862 424.282C54.2784 425.804 53.0627 428.999 47.8956 426.412C42.7285 423.978 43.9443 423.674 37.8654 423.826C31.9385 423.674 27.8352 420.327 24.0359 422.304C20.3885 424.282 22.6681 424.282 15.8293 425.195C8.99056 425.804 11.1182 418.957 12.182 415.762C13.2458 412.719 17.3491 408.003 14.9175 407.699C5.79913 406.482 0.784033 411.046 2.91165 404.047C5.03927 397.049 12.4859 380.465 14.3096 377.727C15.9813 374.988 19.6287 369.359 24.1878 365.707C28.747 361.904 30.2668 359.774 33.7621 357.187C37.4095 354.753 37.1055 353.08 42.7285 349.58C48.5035 346.081 45.464 348.363 51.8469 344.408C58.0778 340.148 57.3179 342.734 60.9653 337.257C60.9653 337.257 64.0047 334.975 68.4119 331.019C73.1231 327.215 72.5152 334.214 72.5152 334.214C72.5152 334.214 77.2263 342.886 81.6336 336.192C86.1927 329.345 83.3053 326.303 88.7763 324.173C94.0953 321.89 100.022 321.282 100.63 318.848C101.238 316.261 97.1348 313.066 91.3598 313.523C85.5848 314.131 81.3296 316.109 89.0802 308.045C96.9828 299.982 99.4144 297.396 102.15 293.136C104.733 289.028 112.18 281.573 116.131 278.53C120.235 275.335 123.882 272.748 127.833 269.097C131.937 265.293 134.368 260.729 138.015 257.534C141.663 254.644 145.006 251.601 147.286 250.536C149.413 249.623 146.982 252.514 154.429 248.101C161.875 243.689 160.507 246.124 164.003 242.472C167.346 238.821 167.346 238.821 167.346 238.821C167.346 238.821 167.194 229.388 177.528 231.061C187.863 232.735 186.191 233.039 193.637 226.041C201.236 219.194 205.187 215.999 207.619 213.413C210.051 210.522 213.09 208.24 215.978 204.741C218.713 201.242 217.041 196.221 220.689 195.612C224.032 195.004 223.272 196.373 227.983 197.134C232.846 198.047 234.974 199.416 236.798 196.221C238.317 192.722 234.062 191.657 236.19 187.853C238.469 183.897 235.43 180.854 242.421 183.137C249.411 185.267 247.588 185.571 253.211 186.788C258.682 188.005 254.579 194.091 258.682 188.005C262.937 181.919 259.594 180.398 262.329 176.138C265.065 172.03 264.913 171.574 267.496 169.139C269.928 166.857 268.864 166.705 270.08 164.727C271.448 162.597 278.59 163.054 283.149 168.075C287.709 173.095 292.572 173.856 290.14 177.203C288.013 180.702 286.493 188.462 291.052 185.267C295.763 181.919 300.778 183.897 297.587 175.834C294.243 167.77 292.572 166.097 293.484 161.228C294.243 156.36 293.18 150.274 295.155 152.1C297.283 154.077 301.842 159.402 301.386 154.382C301.082 149.209 298.195 147.231 302.146 146.47C306.249 145.71 307.921 149.057 308.529 152.252C309.289 155.599 310.049 153.621 312.024 157.425C313.848 161.228 313.696 159.555 313.24 166.249C312.784 172.791 314.608 179.333 318.407 174.464C322.206 169.596 322.814 169.9 322.966 164.727C322.966 159.25 323.574 165.184 322.966 159.25C322.51 153.469 323.726 156.816 322.51 151.035C321.447 145.405 324.638 146.47 320.231 142.667C315.976 138.863 312.48 135.972 308.529 133.842C304.578 131.712 303.97 128.67 300.018 129.43C295.915 130.191 295.611 128.213 290.9 131.256C286.341 134.603 284.821 135.972 279.958 138.255C275.095 140.385 279.046 145.557 275.095 140.385C271.144 135.212 270.536 135.364 271.448 130.495C272.359 125.779 273.423 125.475 273.271 122.432C273.423 119.541 274.183 118.172 276.311 117.107C278.59 116.042 280.87 113.303 280.87 113.303C282.542 106.457 286.797 104.327 276.767 104.175C266.736 103.87 266.129 106.761 264.457 101.284C262.633 95.8069 260.809 97.9369 263.849 92.4597C266.888 86.9826 269.624 94.2854 266.888 86.9826C264.305 79.8319 265.217 82.1141 261.721 78.7669C258.074 75.2676 254.579 70.0948 254.123 67.2041C253.515 64.4655 247.892 65.5305 253.515 60.8141C259.138 56.2499 258.074 56.402 264.761 52.2942C271.6 48.0342 276.919 42.8613 280.11 37.9928C283.301 33.2763 283.605 28.8642 289.684 31.9071C295.459 35.1021 293.94 32.9721 298.499 35.5585C303.058 37.9928 304.122 40.2749 307.465 39.0578C310.657 37.8406 311.872 34.6456 314.152 37.8406C316.583 40.7313 317.191 43.622 320.079 46.5127C323.118 49.5556 324.486 50.9249 327.374 51.077C330.261 51.2291 332.237 51.9899 334.972 53.6634C337.708 55.4891 338.772 55.1849 343.635 58.9884C348.498 62.6398 348.65 63.4005 354.881 62.0313C361.112 60.8141 368.71 59.9013 373.725 58.9884C378.892 57.9234 375.397 54.7284 387.403 62.1834C399.561 69.7905 405.184 71.6162 412.326 72.0727C419.469 72.3769 418.861 69.4862 424.484 70.8555C429.803 71.9205 430.107 75.5719 434.21 72.3769C438.314 69.0298 439.529 65.987 444.545 67.9648C449.712 70.0948 451.991 70.2469 456.246 71.0077C460.502 71.9205 465.821 74.5069 468.252 78.0062C470.684 81.6576 474.179 87.439 477.067 87.439C480.106 87.439 484.817 90.634 487.553 92.4597C490.288 94.2854 495.455 93.829 497.127 101.74C498.799 109.804 498.495 111.478 501.838 116.65C505.334 121.823 507.613 124.562 509.741 120.91C512.172 117.563 512.172 111.782 513.996 109.043C515.82 106.305 520.075 102.045 523.722 102.197C527.522 102.805 532.233 100.675 529.193 96.5676C525.85 92.4597 523.874 93.3726 522.507 89.4169C521.291 85.6133 520.987 81.0491 520.987 81.0491C520.987 81.0491 522.507 77.2455 526.61 79.5276C530.409 81.5055 532.689 86.374 536.032 85.7655C539.376 85.0048 543.935 84.0919 544.847 88.8083C545.758 93.3726 545.758 93.3726 544.999 98.8497C544.239 104.327 547.734 108.891 544.087 111.934C540.439 114.673 540.135 116.65 535.272 118.324C530.409 119.845 532.385 116.042 529.041 122.432C525.698 128.974 525.85 128.974 523.874 132.169C519.467 139.624 517.947 137.494 517.947 144.036C518.099 150.578 514.148 151.795 518.099 153.317C521.899 154.99 521.139 153.925 525.242 150.73C529.345 147.687 530.257 149.209 533.753 143.123C537.248 137.19 539.224 135.06 542.415 130.191C545.606 125.627 547.886 122.28 551.381 119.693C555.029 117.259 559.892 114.064 562.627 114.064C565.667 113.912 570.53 114.825 565.971 118.628C561.412 122.584 562.019 122.432 559.74 125.779C557.308 129.126 555.485 131.865 555.637 134.755C555.637 137.798 553.661 136.429 556.093 140.08C558.676 143.732 560.348 143.884 564.147 141.906C567.642 140.08 570.226 137.037 570.834 134.299C571.442 131.256 572.506 129.887 576.761 131.408C581.168 132.777 582.84 132.321 584.056 135.212C585.119 137.95 585.119 137.95 585.119 137.95C585.119 137.95 590.438 141.145 588.615 146.166C586.639 151.339 587.703 151.035 583.448 156.055C579.192 160.924 579.648 160.924 575.849 162.141C571.898 163.51 570.074 162.75 568.554 167.01C567.187 171.574 562.475 168.227 567.187 171.574C571.746 174.464 576.609 174.312 580.712 171.726C584.815 169.139 587.247 167.01 592.414 165.336C597.429 163.662 604.268 163.054 607.915 160.467C611.563 158.033 614.906 156.816 616.882 155.295C619.009 153.469 624.176 147.383 619.769 157.577C615.362 168.074 614.298 168.835 615.514 171.422C616.578 174.16 618.401 180.398 620.833 175.529C623.568 171.117 624.176 165.488 627.368 169.748C630.559 173.704 628.888 177.659 632.687 178.572C636.486 179.637 635.574 178.572 639.526 180.246C643.173 181.767 641.197 183.441 646.06 183.593C650.772 183.897 654.419 180.854 658.218 182.528C662.018 184.049 663.233 178.42 666.273 187.701C669.312 196.982 669.464 188.918 671.288 192.113C673.112 195.308 674.631 193.939 676.911 199.264C679.191 204.741 679.646 207.023 681.014 208.392C682.534 209.762 685.725 207.936 686.485 212.5C687.549 217.216 688.917 221.629 690.437 223.606C692.108 225.584 697.123 231.214 697.731 233.952C698.339 236.843 700.467 238.669 700.163 242.32C699.707 245.971 703.202 245.971 698.491 249.623C694.084 253.426 692.564 252.057 689.981 257.23C687.549 262.555 682.534 258.599 684.206 263.163C685.725 267.728 686.485 269.097 690.74 272.901C695.148 276.856 696.363 283.094 698.795 283.703C701.379 284.463 702.746 285.985 705.026 288.876C707.457 291.918 706.546 292.831 710.953 293.744C715.208 294.657 716.424 294.961 719.463 298.004C722.351 300.743 722.351 301.199 725.086 303.329C727.822 305.307 731.317 302.112 732.229 298.308C733.445 294.657 734.357 292.679 738.916 295.874C743.627 299.069 746.666 299.221 749.554 299.678C752.745 300.438 754.873 302.72 759.736 303.481C764.599 304.242 775.237 304.698 778.125 307.133C780.86 309.415 785.571 306.22 787.395 308.654C788.915 311.24 786.483 310.632 786.787 314.74C786.939 318.848 785.724 327.824 791.802 322.499C797.729 317.326 796.665 314.588 801.529 312.458C806.24 310.328 810.343 311.849 810.799 308.806C811.255 305.915 814.446 303.938 807.76 299.373C801.073 294.809 793.778 291.158 789.219 285.985C784.812 280.964 782.228 280.356 772.654 273.357C763.08 266.358 749.858 259.512 744.387 252.209C738.916 245.211 733.293 236.843 724.023 229.084C714.904 221.629 707.913 213.109 703.506 208.392C699.099 203.98 700.011 206.11 691.5 197.742C682.838 189.527 676.455 187.853 674.327 182.376C672.2 176.899 674.023 177.812 669.312 175.073C664.601 172.487 663.689 170.965 658.978 167.618C654.267 164.575 643.781 150.122 638.158 139.928C632.535 129.887 635.878 128.061 627.52 121.519C619.161 114.825 617.034 107.674 615.058 111.63C612.778 115.738 615.97 116.042 609.739 120.758C603.66 125.779 600.165 128.67 598.797 119.541C597.581 110.413 600.165 105.848 599.861 100.98C599.557 96.4154 600.621 96.2633 598.189 90.1776C595.757 84.244 593.63 81.6576 593.022 78.7669C592.414 75.8762 593.174 75.7241 590.894 70.8555C588.615 65.987 589.982 57.467 586.183 53.0549C582.384 48.3385 577.977 46.3606 576.153 37.2321C574.329 28.2556 572.658 25.6692 571.442 17.4535C570.682 9.39 565.667 -0.347117 572.202 2.69573C578.737 5.58644 580.408 2.2393 581.168 9.08571C582.08 15.9321 581.928 18.3664 584.511 25.6692C587.095 32.8199 589.982 42.2527 591.958 45.2956C593.782 48.6427 598.341 57.0106 598.341 57.0106C598.341 57.0106 595.909 59.4448 599.101 66.8998C602.444 74.5069 601.076 73.5941 605.332 80.5926C609.435 87.2869 610.955 88.3519 612.778 91.3947C614.45 94.5897 615.362 95.6547 618.401 99.7626C621.593 103.718 625.24 107.218 627.976 112.695C630.863 118.02 631.319 117.411 634.511 121.975C637.854 126.692 640.589 128.517 643.325 133.995C646.212 139.167 647.428 140.689 650.164 144.34C652.595 147.992 654.267 149.97 656.699 153.621C659.13 157.272 659.13 156.816 661.562 159.707C663.841 162.902 663.233 163.054 668.096 166.705C672.96 170.357 674.327 171.422 676.607 174.617C679.039 177.659 680.558 178.572 682.686 181.007C684.965 183.441 684.206 183.593 687.853 186.484C691.348 189.222 693.78 189.983 696.667 192.265C699.555 194.699 711.409 204.132 714.6 208.849C717.792 213.413 717.184 210.066 722.959 217.825C728.582 225.432 729.19 225.28 732.381 229.996C735.572 234.865 738.308 236.386 741.955 239.277C745.451 242.168 748.946 242.168 753.353 247.036C757.912 252.057 770.07 260.273 773.566 263.316C777.213 265.902 782.38 268.641 787.699 271.531C793.018 274.574 788.611 273.813 796.21 278.834C803.656 283.855 803.808 284.92 807.152 287.202C810.647 289.484 812.319 289.18 815.206 292.071C818.398 295.113 818.398 295.57 822.653 296.483C827.06 297.396 824.173 298.461 829.644 296.178C835.115 294.048 831.771 297.7 838.762 291.614C845.753 285.376 840.282 287.658 845.753 285.376C851.224 283.094 856.391 273.813 862.926 271.531C869.461 268.945 876.451 265.75 880.251 263.316C883.746 260.729 886.481 255.708 887.393 252.514C888.609 249.471 891.041 250.079 889.065 246.276C887.241 242.624 883.746 242.624 887.393 238.212C891.345 234.104 892.864 232.583 894.536 229.236C896.36 226.041 898.031 223.15 897.727 221.02C897.12 218.586 895.904 214.934 898.335 211.891C900.767 209.153 901.375 206.719 904.262 206.11C907.15 205.654 911.101 202.307 909.885 207.327C908.366 212.348 908.973 205.654 908.366 212.348C908.062 219.042 904.414 221.476 908.366 223.759C912.317 225.736 911.709 225.889 915.204 225.736C918.548 225.584 917.636 220.564 922.499 227.258C927.362 233.952 930.554 234.561 932.377 235.321C934.353 236.234 937.088 235.626 939.52 235.626C941.8 235.93 947.271 236.234 948.942 235.626C950.614 235.474 951.982 236.082 955.325 235.321C958.82 234.713 964.747 228.171 964.747 228.171L968.091 221.629C968.091 221.629 969.155 220.868 968.243 216.304C967.483 211.891 964.443 212.348 966.875 209.001C969.003 205.502 971.586 203.219 971.586 203.219C971.586 203.219 970.522 198.807 974.474 196.677C978.121 194.852 982.528 193.33 986.632 190.135C990.887 187.244 999.397 185.875 1001.07 185.114C1002.59 184.049 1010.8 183.745 1012.31 182.832C1013.99 181.767 1013.68 180.55 1017.63 179.333C1021.43 178.268 1021.89 177.355 1026.3 179.029C1030.55 180.55 1034.2 180.398 1037.24 178.116C1040.28 175.529 1043.47 177.355 1047.57 179.637C1051.37 181.615 1052.28 180.398 1056.69 181.311C1060.95 182.224 1063.68 183.289 1067.03 182.224C1070.22 181.007 1067.33 177.964 1074.02 179.029C1080.55 180.094 1081.92 182.832 1084.96 183.441C1088.15 184.049 1093.16 183.441 1095.44 182.984C1097.72 182.528 1099.55 179.942 1102.74 178.724C1106.08 177.507 1116.42 174.16 1116.87 175.834C1117.18 177.659 1114.44 185.114 1114.44 185.114C1114.44 185.114 1114.74 189.222 1116.11 193.026C1117.33 196.829 1121.74 200.785 1119.46 203.676C1117.02 206.414 1115.2 209.153 1111.25 209.457C1106.99 209.457 1101.67 212.196 1098.33 210.066C1094.99 207.784 1087.54 205.806 1087.54 205.806C1087.54 205.806 1081.61 202.154 1079.33 203.219C1075.99 205.045 1074.93 205.958 1073.86 208.544Z"/>
</mask>
<path d="M1073.86 208.544C1072.65 211.131 1071.74 212.956 1072.19 214.782C1072.5 216.456 1075.54 219.803 1075.54 219.803C1075.54 219.803 1077.66 221.933 1079.64 223.15C1085.11 226.954 1088.3 228.627 1088.3 228.627L1090.88 232.279C1090.88 232.279 1088.15 235.474 1086.63 237.908C1083.13 243.385 1080.25 243.841 1079.64 246.732C1079.18 249.775 1077.36 253.122 1077.82 255.404C1078.27 257.534 1078.42 261.642 1078.42 261.642C1078.42 261.642 1076.45 263.163 1074.62 266.054C1072.8 268.793 1071.43 262.555 1072.8 268.793C1074.02 275.031 1072.65 279.443 1072.8 281.116C1073.26 282.79 1073.26 282.79 1073.26 282.79L1071.28 285.528C1071.28 285.528 1068.09 287.811 1065.51 289.028C1062.77 290.093 1054.11 285.224 1052.59 286.289C1051.07 287.05 1048.64 287.05 1048.03 289.484C1047.27 292.071 1046.96 293.288 1050.16 295.113C1053.35 296.787 1055.02 296.026 1056.84 296.331C1058.82 297.396 1063.83 295.874 1063.83 295.874L1067.03 294.353C1072.04 295.874 1072.95 296.939 1074.62 296.635C1076.3 296.331 1077.51 294.353 1079.18 293.288L1082.22 296.331C1082.22 296.331 1082.37 300.438 1084.05 301.808C1085.41 303.329 1086.63 305.459 1086.63 305.459C1086.63 305.459 1087.54 308.198 1089.82 310.023C1095.44 314.892 1100.16 311.849 1098.18 316.565C1096.05 321.13 1093.47 322.955 1092.1 323.868C1090.43 324.629 1084.05 327.672 1084.05 327.672C1084.05 327.672 1081.61 330.563 1080.85 332.54C1079.94 334.366 1077.51 336.496 1077.51 336.496C1077.51 336.496 1073.86 339.083 1067.03 340.452C1060.19 341.821 1055.48 338.626 1052.59 341.365C1049.7 344.408 1047.12 346.69 1043.93 351.102C1040.73 355.057 1041.65 358.252 1035.57 356.579C1029.34 354.905 1026.6 349.58 1023.26 350.95C1019.91 352.015 1024.02 357.796 1019.91 352.015C1015.81 346.385 1018.7 347.755 1015.81 346.385C1013.23 345.016 1016.72 343.951 1013.23 345.016C1009.88 346.385 1013.53 349.124 1009.88 346.385C1006.39 343.495 1007.76 346.994 1006.39 343.495C1005.17 340.3 1004.41 336.344 1004.41 336.344C1004.41 336.344 1004.87 329.802 1001.37 332.693C997.877 335.888 996.662 339.387 998.485 341.669C1000.01 343.647 999.701 344.255 1000.61 346.538C1002.28 351.406 1002.13 353.84 1002.13 353.84C993.622 355.514 993.774 355.97 990.887 356.579C987.999 357.187 986.935 356.883 984.96 359.013C982.984 361.295 982.68 358.861 980.401 362.969C978.273 366.925 979.489 361.295 978.273 366.925C977.057 372.402 980.401 368.75 977.057 372.402C973.562 376.053 976.297 374.38 973.562 376.053C970.826 377.879 971.282 380.009 967.483 378.335C963.836 376.966 969.155 377.575 963.836 376.966C958.365 376.205 962.924 372.25 958.365 376.205C953.805 380.161 957.453 377.575 953.805 380.161C950.158 382.747 949.854 383.204 947.575 384.117C945.447 385.334 949.398 384.421 945.447 385.334C941.344 386.095 947.271 389.137 941.344 386.095C935.417 383.052 935.721 384.269 933.289 381.074C931.161 378.031 931.161 378.64 928.73 376.053C926.602 373.619 921.283 364.642 918.396 365.251C915.508 365.707 896.208 353.84 893.776 354.145C891.497 354.601 874.324 350.493 871.892 350.341C869.461 350.189 841.953 356.731 840.282 357.187C838.61 357.492 830.859 362.512 829.036 365.251C827.06 367.99 819.461 376.662 817.486 378.64C815.662 380.77 810.799 386.551 808.975 389.289C807.304 391.876 804.72 394.767 804.568 396.592C804.416 398.418 805.48 403.439 807.152 403.743C808.975 403.895 814.294 407.851 817.486 405.873C820.677 404.047 828.58 404.96 822.653 408.307C816.878 411.959 811.863 416.371 811.863 416.371L812.167 423.978C812.167 423.978 814.446 427.173 816.726 429.607C819.005 432.194 813.534 433.867 813.534 433.867L806.24 429.912L795.906 430.824L788.307 430.977C788.307 430.977 784.508 427.173 783.14 428.542C781.62 429.912 780.556 430.216 779.341 432.65C778.125 435.237 775.997 433.259 775.389 437.214C774.933 440.561 774.933 441.17 776.605 442.844C778.125 444.365 780.556 442.387 781.012 444.213C782.076 449.234 783.9 447.104 782.076 449.234C779.948 451.211 779.948 451.211 779.948 451.211L772.198 453.494C772.198 453.494 759.128 467.339 758.672 477.228C758.216 487.421 758.672 492.138 755.785 495.637C753.049 499.136 748.794 505.07 748.794 505.07C748.794 505.07 745.603 509.026 742.107 506.287C738.612 504.309 738.46 500.049 736.028 500.049C733.597 499.745 731.621 498.984 729.797 498.832C727.974 498.528 726.454 496.55 725.694 494.876C724.782 493.203 722.047 491.377 722.047 491.377L714.904 491.073C714.904 491.073 712.473 491.529 710.801 494.268C708.977 496.854 708.977 496.854 707.002 498.528C704.874 500.201 703.202 500.049 701.531 501.571C700.163 502.788 698.339 503.244 697.883 506.287C697.123 509.33 697.731 509.178 694.54 509.786C691.044 510.547 686.941 510.851 686.941 510.851L682.078 510.091L678.583 512.981C673.416 510.547 676.911 510.395 673.416 510.547C669.92 510.547 673.416 507.504 669.92 510.547C666.425 513.742 663.537 514.198 662.018 514.959C660.498 516.024 656.547 514.959 655.179 515.872C653.507 516.785 651.379 517.85 649.86 518.611C648.34 519.676 644.541 524.544 644.541 524.544C644.541 524.544 639.982 527.891 638.31 529.26C636.942 530.934 617.186 544.779 617.186 544.779L605.332 555.277L596.517 561.21L587.703 569.73C587.703 569.73 585.271 575.208 583.448 578.403C581.776 581.597 577.521 587.227 577.521 587.227C577.521 587.227 569.618 600.007 569.314 601.985C569.162 603.658 568.098 610.505 568.098 610.505C568.098 610.505 566.731 612.482 567.187 615.221C567.794 618.112 565.667 619.633 565.515 621.915C565.515 624.349 564.451 628.153 564.451 628.153C563.843 633.934 564.755 636.521 562.931 638.499C559.436 641.389 557.612 641.085 555.029 642.911C552.445 644.432 553.509 640.781 552.445 644.432C551.381 648.236 549.102 651.127 547.582 653.104C546.214 655.082 544.847 657.212 543.327 658.582C541.959 660.103 544.087 662.689 540.135 663.45C536.336 664.211 528.889 665.732 525.394 665.884C521.899 665.884 516.428 665.276 516.428 665.276C515.516 672.883 513.844 670.297 514.148 676.991C513.996 683.229 513.388 685.815 513.844 687.489C514.148 689.01 514.908 689.771 512.324 692.357C510.045 695.248 510.197 698.139 508.525 699.204C501.99 702.246 502.294 701.486 499.711 702.703C496.975 703.768 493.936 703.768 492.112 705.898C490.288 708.028 488.465 711.984 488.465 711.984L484.209 716.852C484.209 716.852 465.213 721.721 462.173 721.721C459.438 721.721 457.158 722.633 451.687 722.177C446.064 721.264 444.089 720.047 441.201 720.047C438.162 720.047 436.794 718.069 433.906 722.025C431.171 726.133 430.867 726.741 426.156 730.697C421.597 734.501 427.828 732.827 421.597 734.501C415.518 736.478 413.086 739.065 409.287 737.696C405.336 735.87 402.752 734.044 401.384 732.675C396.977 728.871 396.369 728.263 395.457 726.741C394.545 725.22 393.786 724.155 390.746 723.698C387.707 723.09 385.883 725.372 384.515 721.873C383.3 718.526 383.907 723.851 383.3 718.526C382.844 713.353 382.236 710.462 382.236 710.462C382.236 710.462 381.628 709.397 379.348 707.724C377.221 705.746 375.093 704.376 373.269 703.92C371.598 703.616 369.47 699.508 366.734 700.573C363.999 701.79 363.695 700.573 361.415 701.181C359.136 701.638 357.92 701.181 356.4 702.094C354.729 702.855 350.473 706.05 348.802 705.441C344.243 703.311 341.811 699.66 341.811 699.66C341.811 699.66 339.683 696.921 337.556 698.899C331.325 703.464 332.085 701.029 329.349 695.704C326.462 690.379 322.966 692.966 320.383 691.596C317.647 690.227 304.882 684.446 304.882 684.446L298.347 678.208C298.347 678.208 301.082 671.209 305.034 673.339C309.137 675.621 310.201 675.317 311.264 672.122C312.48 669.232 310.049 668.927 315.52 666.189C320.839 663.298 321.751 661.929 323.878 661.472C326.158 661.016 326.158 660.407 329.653 660.864C333.301 661.32 336.492 663.146 336.492 663.146C336.492 663.146 338.62 664.515 341.355 663.602C344.091 662.233 346.37 661.776 346.37 661.776C346.37 661.776 350.321 666.341 351.689 664.971C353.209 663.45 355.033 661.32 355.033 661.32C355.033 661.32 355.489 657.06 353.209 657.06C350.777 656.756 347.89 654.017 346.066 654.322C344.546 654.626 337.708 653.561 337.708 653.561L333.604 653.865C333.452 649.757 335.884 644.584 335.884 644.584C335.884 644.584 336.036 642.607 337.556 641.237C338.923 639.868 338.62 637.586 338.012 634.695C337.404 631.957 336.188 628.609 335.124 626.023C333.908 623.284 331.933 619.025 332.237 617.047C332.389 615.221 331.933 610.048 331.933 610.048C331.933 610.048 329.805 604.723 329.805 601.68C329.805 598.637 329.045 594.834 328.589 592.4C328.133 590.27 327.829 588.444 327.374 586.314C326.766 584.032 326.158 580.076 327.374 577.49C330.565 570.187 329.045 571.86 330.565 570.187C332.085 568.665 333.908 568.97 336.492 567.753C339.227 566.688 339.987 564.101 339.987 564.101L341.203 558.624C341.203 558.624 339.075 544.931 338.316 540.975C337.404 536.868 337.252 532.912 336.036 528.956C334.668 525.153 331.173 519.828 330.869 517.698C330.413 515.263 328.285 516.328 330.565 509.938C332.845 503.548 332.845 500.201 332.845 500.201C332.845 500.201 331.325 495.789 328.741 494.42C326.158 493.203 323.574 492.138 324.79 489.399C326.158 486.813 327.526 488.334 332.693 487.421C337.86 486.356 345.914 482.857 340.747 481.031C335.58 478.901 333.604 477.076 330.869 477.836C327.981 478.445 325.094 478.901 322.966 479.358C320.687 479.966 318.255 479.053 317.951 477.38C317.647 475.859 315.976 473.12 315.976 473.12L312.328 469.773C312.328 469.773 308.681 466.73 311.264 464.6C313.696 462.47 319.775 460.34 319.775 460.34L327.526 460.796C327.526 460.796 327.222 453.189 324.486 453.646C321.599 454.254 315.824 454.863 315.824 454.863C315.824 454.863 313.544 454.711 311.872 455.624C310.353 456.384 304.73 461.101 304.73 461.101C304.73 461.101 302.906 460.949 301.082 461.253C299.411 461.709 296.675 459.731 296.219 457.601C295.763 455.319 295.763 452.429 295.763 452.429L300.93 449.081C300.93 449.081 303.21 445.126 303.362 442.844C303.362 440.409 302.906 437.975 302.906 437.975L306.553 434.932L305.793 431.129C305.793 431.129 300.93 430.824 301.082 427.934C301.082 424.891 298.955 429.455 301.082 424.891C303.058 420.327 304.426 417.588 304.426 417.588C304.426 417.588 304.274 414.697 302.754 412.719C301.234 410.589 299.866 409.829 296.067 411.654C292.42 413.632 288.924 411.807 287.253 414.545C285.429 417.284 281.478 418.044 279.806 421.392C278.134 424.587 276.615 426.108 273.879 427.021C271.144 428.086 266.28 429.759 266.28 429.759C266.28 429.759 262.785 430.977 261.873 429.455C261.873 429.455 257.922 427.325 256.25 427.629C254.579 428.086 253.971 428.238 252.451 429.607C250.931 431.129 248.348 435.541 248.348 435.541L247.588 440.409L247.892 444.517C245.004 450.451 245.612 450.907 243.029 452.124C240.293 453.189 239.229 454.102 237.558 455.015L233.758 465.209C233.758 465.209 230.871 468.708 226.92 466.73C222.968 464.448 223.424 461.253 220.993 460.036C218.409 458.819 210.658 452.733 210.658 452.733C210.658 452.733 205.339 452.581 203.668 452.885C201.996 453.341 200.172 449.994 197.589 449.386C195.157 448.625 185.887 443.452 185.887 443.452L178.288 437.823C178.288 437.823 176.161 430.064 174.033 428.694C172.209 427.325 174.033 422.761 171.298 419.87C168.41 416.827 168.41 411.502 164.915 414.697C161.419 417.74 164.763 414.089 161.419 417.74C158.076 421.392 162.635 423.826 158.076 421.392C153.365 418.805 150.021 419.262 151.389 414.393C152.757 409.372 151.693 407.242 153.213 405.264L161.267 398.722C161.267 398.722 158.076 394.31 164.763 388.833C171.298 383.356 175.249 376.662 178.288 373.619C181.176 370.728 192.726 354.905 192.726 354.905C192.726 354.905 196.069 350.189 190.294 351.406C184.671 352.471 182.088 358.252 180.416 360.991C178.592 363.73 173.577 370.576 171.601 372.706C169.626 374.836 165.674 378.487 163.091 380.77C160.659 383.052 156.1 384.573 152.149 388.225C148.198 392.028 148.198 392.028 144.094 394.615C139.839 397.049 142.575 396.136 136.8 397.201C131.177 398.266 127.681 399.027 120.691 398.722C113.548 398.418 112.636 397.809 106.101 399.179C99.2624 400.548 86.3447 401.309 83.7612 402.374C81.0257 403.439 74.9467 405.264 71.4514 408.459C67.804 411.35 63.3968 413.024 61.8771 416.675C60.3574 420.479 59.4455 422.457 56.862 424.282C54.2784 425.804 53.0627 428.999 47.8956 426.412C42.7285 423.978 43.9443 423.674 37.8654 423.826C31.9385 423.674 27.8352 420.327 24.0359 422.304C20.3885 424.282 22.6681 424.282 15.8293 425.195C8.99056 425.804 11.1182 418.957 12.182 415.762C13.2458 412.719 17.3491 408.003 14.9175 407.699C5.79913 406.482 0.784033 411.046 2.91165 404.047C5.03927 397.049 12.4859 380.465 14.3096 377.727C15.9813 374.988 19.6287 369.359 24.1878 365.707C28.747 361.904 30.2668 359.774 33.7621 357.187C37.4095 354.753 37.1055 353.08 42.7285 349.58C48.5035 346.081 45.464 348.363 51.8469 344.408C58.0778 340.148 57.3179 342.734 60.9653 337.257C60.9653 337.257 64.0047 334.975 68.4119 331.019C73.1231 327.215 72.5152 334.214 72.5152 334.214C72.5152 334.214 77.2263 342.886 81.6336 336.192C86.1927 329.345 83.3053 326.303 88.7763 324.173C94.0953 321.89 100.022 321.282 100.63 318.848C101.238 316.261 97.1348 313.066 91.3598 313.523C85.5848 314.131 81.3296 316.109 89.0802 308.045C96.9828 299.982 99.4144 297.396 102.15 293.136C104.733 289.028 112.18 281.573 116.131 278.53C120.235 275.335 123.882 272.748 127.833 269.097C131.937 265.293 134.368 260.729 138.015 257.534C141.663 254.644 145.006 251.601 147.286 250.536C149.413 249.623 146.982 252.514 154.429 248.101C161.875 243.689 160.507 246.124 164.003 242.472C167.346 238.821 167.346 238.821 167.346 238.821C167.346 238.821 167.194 229.388 177.528 231.061C187.863 232.735 186.191 233.039 193.637 226.041C201.236 219.194 205.187 215.999 207.619 213.413C210.051 210.522 213.09 208.24 215.978 204.741C218.713 201.242 217.041 196.221 220.689 195.612C224.032 195.004 223.272 196.373 227.983 197.134C232.846 198.047 234.974 199.416 236.798 196.221C238.317 192.722 234.062 191.657 236.19 187.853C238.469 183.897 235.43 180.854 242.421 183.137C249.411 185.267 247.588 185.571 253.211 186.788C258.682 188.005 254.579 194.091 258.682 188.005C262.937 181.919 259.594 180.398 262.329 176.138C265.065 172.03 264.913 171.574 267.496 169.139C269.928 166.857 268.864 166.705 270.08 164.727C271.448 162.597 278.59 163.054 283.149 168.075C287.709 173.095 292.572 173.856 290.14 177.203C288.013 180.702 286.493 188.462 291.052 185.267C295.763 181.919 300.778 183.897 297.587 175.834C294.243 167.77 292.572 166.097 293.484 161.228C294.243 156.36 293.18 150.274 295.155 152.1C297.283 154.077 301.842 159.402 301.386 154.382C301.082 149.209 298.195 147.231 302.146 146.47C306.249 145.71 307.921 149.057 308.529 152.252C309.289 155.599 310.049 153.621 312.024 157.425C313.848 161.228 313.696 159.555 313.24 166.249C312.784 172.791 314.608 179.333 318.407 174.464C322.206 169.596 322.814 169.9 322.966 164.727C322.966 159.25 323.574 165.184 322.966 159.25C322.51 153.469 323.726 156.816 322.51 151.035C321.447 145.405 324.638 146.47 320.231 142.667C315.976 138.863 312.48 135.972 308.529 133.842C304.578 131.712 303.97 128.67 300.018 129.43C295.915 130.191 295.611 128.213 290.9 131.256C286.341 134.603 284.821 135.972 279.958 138.255C275.095 140.385 279.046 145.557 275.095 140.385C271.144 135.212 270.536 135.364 271.448 130.495C272.359 125.779 273.423 125.475 273.271 122.432C273.423 119.541 274.183 118.172 276.311 117.107C278.59 116.042 280.87 113.303 280.87 113.303C282.542 106.457 286.797 104.327 276.767 104.175C266.736 103.87 266.129 106.761 264.457 101.284C262.633 95.8069 260.809 97.9369 263.849 92.4597C266.888 86.9826 269.624 94.2854 266.888 86.9826C264.305 79.8319 265.217 82.1141 261.721 78.7669C258.074 75.2676 254.579 70.0948 254.123 67.2041C253.515 64.4655 247.892 65.5305 253.515 60.8141C259.138 56.2499 258.074 56.402 264.761 52.2942C271.6 48.0342 276.919 42.8613 280.11 37.9928C283.301 33.2763 283.605 28.8642 289.684 31.9071C295.459 35.1021 293.94 32.9721 298.499 35.5585C303.058 37.9928 304.122 40.2749 307.465 39.0578C310.657 37.8406 311.872 34.6456 314.152 37.8406C316.583 40.7313 317.191 43.622 320.079 46.5127C323.118 49.5556 324.486 50.9249 327.374 51.077C330.261 51.2291 332.237 51.9899 334.972 53.6634C337.708 55.4891 338.772 55.1849 343.635 58.9884C348.498 62.6398 348.65 63.4005 354.881 62.0313C361.112 60.8141 368.71 59.9013 373.725 58.9884C378.892 57.9234 375.397 54.7284 387.403 62.1834C399.561 69.7905 405.184 71.6162 412.326 72.0727C419.469 72.3769 418.861 69.4862 424.484 70.8555C429.803 71.9205 430.107 75.5719 434.21 72.3769C438.314 69.0298 439.529 65.987 444.545 67.9648C449.712 70.0948 451.991 70.2469 456.246 71.0077C460.502 71.9205 465.821 74.5069 468.252 78.0062C470.684 81.6576 474.179 87.439 477.067 87.439C480.106 87.439 484.817 90.634 487.553 92.4597C490.288 94.2854 495.455 93.829 497.127 101.74C498.799 109.804 498.495 111.478 501.838 116.65C505.334 121.823 507.613 124.562 509.741 120.91C512.172 117.563 512.172 111.782 513.996 109.043C515.82 106.305 520.075 102.045 523.722 102.197C527.522 102.805 532.233 100.675 529.193 96.5676C525.85 92.4597 523.874 93.3726 522.507 89.4169C521.291 85.6133 520.987 81.0491 520.987 81.0491C520.987 81.0491 522.507 77.2455 526.61 79.5276C530.409 81.5055 532.689 86.374 536.032 85.7655C539.376 85.0048 543.935 84.0919 544.847 88.8083C545.758 93.3726 545.758 93.3726 544.999 98.8497C544.239 104.327 547.734 108.891 544.087 111.934C540.439 114.673 540.135 116.65 535.272 118.324C530.409 119.845 532.385 116.042 529.041 122.432C525.698 128.974 525.85 128.974 523.874 132.169C519.467 139.624 517.947 137.494 517.947 144.036C518.099 150.578 514.148 151.795 518.099 153.317C521.899 154.99 521.139 153.925 525.242 150.73C529.345 147.687 530.257 149.209 533.753 143.123C537.248 137.19 539.224 135.06 542.415 130.191C545.606 125.627 547.886 122.28 551.381 119.693C555.029 117.259 559.892 114.064 562.627 114.064C565.667 113.912 570.53 114.825 565.971 118.628C561.412 122.584 562.019 122.432 559.74 125.779C557.308 129.126 555.485 131.865 555.637 134.755C555.637 137.798 553.661 136.429 556.093 140.08C558.676 143.732 560.348 143.884 564.147 141.906C567.642 140.08 570.226 137.037 570.834 134.299C571.442 131.256 572.506 129.887 576.761 131.408C581.168 132.777 582.84 132.321 584.056 135.212C585.119 137.95 585.119 137.95 585.119 137.95C585.119 137.95 590.438 141.145 588.615 146.166C586.639 151.339 587.703 151.035 583.448 156.055C579.192 160.924 579.648 160.924 575.849 162.141C571.898 163.51 570.074 162.75 568.554 167.01C567.187 171.574 562.475 168.227 567.187 171.574C571.746 174.464 576.609 174.312 580.712 171.726C584.815 169.139 587.247 167.01 592.414 165.336C597.429 163.662 604.268 163.054 607.915 160.467C611.563 158.033 614.906 156.816 616.882 155.295C619.009 153.469 624.176 147.383 619.769 157.577C615.362 168.074 614.298 168.835 615.514 171.422C616.578 174.16 618.401 180.398 620.833 175.529C623.568 171.117 624.176 165.488 627.368 169.748C630.559 173.704 628.888 177.659 632.687 178.572C636.486 179.637 635.574 178.572 639.526 180.246C643.173 181.767 641.197 183.441 646.06 183.593C650.772 183.897 654.419 180.854 658.218 182.528C662.018 184.049 663.233 178.42 666.273 187.701C669.312 196.982 669.464 188.918 671.288 192.113C673.112 195.308 674.631 193.939 676.911 199.264C679.191 204.741 679.646 207.023 681.014 208.392C682.534 209.762 685.725 207.936 686.485 212.5C687.549 217.216 688.917 221.629 690.437 223.606C692.108 225.584 697.123 231.214 697.731 233.952C698.339 236.843 700.467 238.669 700.163 242.32C699.707 245.971 703.202 245.971 698.491 249.623C694.084 253.426 692.564 252.057 689.981 257.23C687.549 262.555 682.534 258.599 684.206 263.163C685.725 267.728 686.485 269.097 690.74 272.901C695.148 276.856 696.363 283.094 698.795 283.703C701.379 284.463 702.746 285.985 705.026 288.876C707.457 291.918 706.546 292.831 710.953 293.744C715.208 294.657 716.424 294.961 719.463 298.004C722.351 300.743 722.351 301.199 725.086 303.329C727.822 305.307 731.317 302.112 732.229 298.308C733.445 294.657 734.357 292.679 738.916 295.874C743.627 299.069 746.666 299.221 749.554 299.678C752.745 300.438 754.873 302.72 759.736 303.481C764.599 304.242 775.237 304.698 778.125 307.133C780.86 309.415 785.571 306.22 787.395 308.654C788.915 311.24 786.483 310.632 786.787 314.74C786.939 318.848 785.724 327.824 791.802 322.499C797.729 317.326 796.665 314.588 801.529 312.458C806.24 310.328 810.343 311.849 810.799 308.806C811.255 305.915 814.446 303.938 807.76 299.373C801.073 294.809 793.778 291.158 789.219 285.985C784.812 280.964 782.228 280.356 772.654 273.357C763.08 266.358 749.858 259.512 744.387 252.209C738.916 245.211 733.293 236.843 724.023 229.084C714.904 221.629 707.913 213.109 703.506 208.392C699.099 203.98 700.011 206.11 691.5 197.742C682.838 189.527 676.455 187.853 674.327 182.376C672.2 176.899 674.023 177.812 669.312 175.073C664.601 172.487 663.689 170.965 658.978 167.618C654.267 164.575 643.781 150.122 638.158 139.928C632.535 129.887 635.878 128.061 627.52 121.519C619.161 114.825 617.034 107.674 615.058 111.63C612.778 115.738 615.97 116.042 609.739 120.758C603.66 125.779 600.165 128.67 598.797 119.541C597.581 110.413 600.165 105.848 599.861 100.98C599.557 96.4154 600.621 96.2633 598.189 90.1776C595.757 84.244 593.63 81.6576 593.022 78.7669C592.414 75.8762 593.174 75.7241 590.894 70.8555C588.615 65.987 589.982 57.467 586.183 53.0549C582.384 48.3385 577.977 46.3606 576.153 37.2321C574.329 28.2556 572.658 25.6692 571.442 17.4535C570.682 9.39 565.667 -0.347117 572.202 2.69573C578.737 5.58644 580.408 2.2393 581.168 9.08571C582.08 15.9321 581.928 18.3664 584.511 25.6692C587.095 32.8199 589.982 42.2527 591.958 45.2956C593.782 48.6427 598.341 57.0106 598.341 57.0106C598.341 57.0106 595.909 59.4448 599.101 66.8998C602.444 74.5069 601.076 73.5941 605.332 80.5926C609.435 87.2869 610.955 88.3519 612.778 91.3947C614.45 94.5897 615.362 95.6547 618.401 99.7626C621.593 103.718 625.24 107.218 627.976 112.695C630.863 118.02 631.319 117.411 634.511 121.975C637.854 126.692 640.589 128.517 643.325 133.995C646.212 139.167 647.428 140.689 650.164 144.34C652.595 147.992 654.267 149.97 656.699 153.621C659.13 157.272 659.13 156.816 661.562 159.707C663.841 162.902 663.233 163.054 668.096 166.705C672.96 170.357 674.327 171.422 676.607 174.617C679.039 177.659 680.558 178.572 682.686 181.007C684.965 183.441 684.206 183.593 687.853 186.484C691.348 189.222 693.78 189.983 696.667 192.265C699.555 194.699 711.409 204.132 714.6 208.849C717.792 213.413 717.184 210.066 722.959 217.825C728.582 225.432 729.19 225.28 732.381 229.996C735.572 234.865 738.308 236.386 741.955 239.277C745.451 242.168 748.946 242.168 753.353 247.036C757.912 252.057 770.07 260.273 773.566 263.316C777.213 265.902 782.38 268.641 787.699 271.531C793.018 274.574 788.611 273.813 796.21 278.834C803.656 283.855 803.808 284.92 807.152 287.202C810.647 289.484 812.319 289.18 815.206 292.071C818.398 295.113 818.398 295.57 822.653 296.483C827.06 297.396 824.173 298.461 829.644 296.178C835.115 294.048 831.771 297.7 838.762 291.614C845.753 285.376 840.282 287.658 845.753 285.376C851.224 283.094 856.391 273.813 862.926 271.531C869.461 268.945 876.451 265.75 880.251 263.316C883.746 260.729 886.481 255.708 887.393 252.514C888.609 249.471 891.041 250.079 889.065 246.276C887.241 242.624 883.746 242.624 887.393 238.212C891.345 234.104 892.864 232.583 894.536 229.236C896.36 226.041 898.031 223.15 897.727 221.02C897.12 218.586 895.904 214.934 898.335 211.891C900.767 209.153 901.375 206.719 904.262 206.11C907.15 205.654 911.101 202.307 909.885 207.327C908.366 212.348 908.973 205.654 908.366 212.348C908.062 219.042 904.414 221.476 908.366 223.759C912.317 225.736 911.709 225.889 915.204 225.736C918.548 225.584 917.636 220.564 922.499 227.258C927.362 233.952 930.554 234.561 932.377 235.321C934.353 236.234 937.088 235.626 939.52 235.626C941.8 235.93 947.271 236.234 948.942 235.626C950.614 235.474 951.982 236.082 955.325 235.321C958.82 234.713 964.747 228.171 964.747 228.171L968.091 221.629C968.091 221.629 969.155 220.868 968.243 216.304C967.483 211.891 964.443 212.348 966.875 209.001C969.003 205.502 971.586 203.219 971.586 203.219C971.586 203.219 970.522 198.807 974.474 196.677C978.121 194.852 982.528 193.33 986.632 190.135C990.887 187.244 999.397 185.875 1001.07 185.114C1002.59 184.049 1010.8 183.745 1012.31 182.832C1013.99 181.767 1013.68 180.55 1017.63 179.333C1021.43 178.268 1021.89 177.355 1026.3 179.029C1030.55 180.55 1034.2 180.398 1037.24 178.116C1040.28 175.529 1043.47 177.355 1047.57 179.637C1051.37 181.615 1052.28 180.398 1056.69 181.311C1060.95 182.224 1063.68 183.289 1067.03 182.224C1070.22 181.007 1067.33 177.964 1074.02 179.029C1080.55 180.094 1081.92 182.832 1084.96 183.441C1088.15 184.049 1093.16 183.441 1095.44 182.984C1097.72 182.528 1099.55 179.942 1102.74 178.724C1106.08 177.507 1116.42 174.16 1116.87 175.834C1117.18 177.659 1114.44 185.114 1114.44 185.114C1114.44 185.114 1114.74 189.222 1116.11 193.026C1117.33 196.829 1121.74 200.785 1119.46 203.676C1117.02 206.414 1115.2 209.153 1111.25 209.457C1106.99 209.457 1101.67 212.196 1098.33 210.066C1094.99 207.784 1087.54 205.806 1087.54 205.806C1087.54 205.806 1081.61 202.154 1079.33 203.219C1075.99 205.045 1074.93 205.958 1073.86 208.544Z" fill="url(#paint0_linear_70_682)"/>
<path d="M1073.86 208.544C1072.65 211.131 1071.74 212.956 1072.19 214.782C1072.5 216.456 1075.54 219.803 1075.54 219.803C1075.54 219.803 1077.66 221.933 1079.64 223.15C1085.11 226.954 1088.3 228.627 1088.3 228.627L1090.88 232.279C1090.88 232.279 1088.15 235.474 1086.63 237.908C1083.13 243.385 1080.25 243.841 1079.64 246.732C1079.18 249.775 1077.36 253.122 1077.82 255.404C1078.27 257.534 1078.42 261.642 1078.42 261.642C1078.42 261.642 1076.45 263.163 1074.62 266.054C1072.8 268.793 1071.43 262.555 1072.8 268.793C1074.02 275.031 1072.65 279.443 1072.8 281.116C1073.26 282.79 1073.26 282.79 1073.26 282.79L1071.28 285.528C1071.28 285.528 1068.09 287.811 1065.51 289.028C1062.77 290.093 1054.11 285.224 1052.59 286.289C1051.07 287.05 1048.64 287.05 1048.03 289.484C1047.27 292.071 1046.96 293.288 1050.16 295.113C1053.35 296.787 1055.02 296.026 1056.84 296.331C1058.82 297.396 1063.83 295.874 1063.83 295.874L1067.03 294.353C1072.04 295.874 1072.95 296.939 1074.62 296.635C1076.3 296.331 1077.51 294.353 1079.18 293.288L1082.22 296.331C1082.22 296.331 1082.37 300.438 1084.05 301.808C1085.41 303.329 1086.63 305.459 1086.63 305.459C1086.63 305.459 1087.54 308.198 1089.82 310.023C1095.44 314.892 1100.16 311.849 1098.18 316.565C1096.05 321.13 1093.47 322.955 1092.1 323.868C1090.43 324.629 1084.05 327.672 1084.05 327.672C1084.05 327.672 1081.61 330.563 1080.85 332.54C1079.94 334.366 1077.51 336.496 1077.51 336.496C1077.51 336.496 1073.86 339.083 1067.03 340.452C1060.19 341.821 1055.48 338.626 1052.59 341.365C1049.7 344.408 1047.12 346.69 1043.93 351.102C1040.73 355.057 1041.65 358.252 1035.57 356.579C1029.34 354.905 1026.6 349.58 1023.26 350.95C1019.91 352.015 1024.02 357.796 1019.91 352.015C1015.81 346.385 1018.7 347.755 1015.81 346.385C1013.23 345.016 1016.72 343.951 1013.23 345.016C1009.88 346.385 1013.53 349.124 1009.88 346.385C1006.39 343.495 1007.76 346.994 1006.39 343.495C1005.17 340.3 1004.41 336.344 1004.41 336.344C1004.41 336.344 1004.87 329.802 1001.37 332.693C997.877 335.888 996.662 339.387 998.485 341.669C1000.01 343.647 999.701 344.255 1000.61 346.538C1002.28 351.406 1002.13 353.84 1002.13 353.84C993.622 355.514 993.774 355.97 990.887 356.579C987.999 357.187 986.935 356.883 984.96 359.013C982.984 361.295 982.68 358.861 980.401 362.969C978.273 366.925 979.489 361.295 978.273 366.925C977.057 372.402 980.401 368.75 977.057 372.402C973.562 376.053 976.297 374.38 973.562 376.053C970.826 377.879 971.282 380.009 967.483 378.335C963.836 376.966 969.155 377.575 963.836 376.966C958.365 376.205 962.924 372.25 958.365 376.205C953.805 380.161 957.453 377.575 953.805 380.161C950.158 382.747 949.854 383.204 947.575 384.117C945.447 385.334 949.398 384.421 945.447 385.334C941.344 386.095 947.271 389.137 941.344 386.095C935.417 383.052 935.721 384.269 933.289 381.074C931.161 378.031 931.161 378.64 928.73 376.053C926.602 373.619 921.283 364.642 918.396 365.251C915.508 365.707 896.208 353.84 893.776 354.145C891.497 354.601 874.324 350.493 871.892 350.341C869.461 350.189 841.953 356.731 840.282 357.187C838.61 357.492 830.859 362.512 829.036 365.251C827.06 367.99 819.461 376.662 817.486 378.64C815.662 380.77 810.799 386.551 808.975 389.289C807.304 391.876 804.72 394.767 804.568 396.592C804.416 398.418 805.48 403.439 807.152 403.743C808.975 403.895 814.294 407.851 817.486 405.873C820.677 404.047 828.58 404.96 822.653 408.307C816.878 411.959 811.863 416.371 811.863 416.371L812.167 423.978C812.167 423.978 814.446 427.173 816.726 429.607C819.005 432.194 813.534 433.867 813.534 433.867L806.24 429.912L795.906 430.824L788.307 430.977C788.307 430.977 784.508 427.173 783.14 428.542C781.62 429.912 780.556 430.216 779.341 432.65C778.125 435.237 775.997 433.259 775.389 437.214C774.933 440.561 774.933 441.17 776.605 442.844C778.125 444.365 780.556 442.387 781.012 444.213C782.076 449.234 783.9 447.104 782.076 449.234C779.948 451.211 779.948 451.211 779.948 451.211L772.198 453.494C772.198 453.494 759.128 467.339 758.672 477.228C758.216 487.421 758.672 492.138 755.785 495.637C753.049 499.136 748.794 505.07 748.794 505.07C748.794 505.07 745.603 509.026 742.107 506.287C738.612 504.309 738.46 500.049 736.028 500.049C733.597 499.745 731.621 498.984 729.797 498.832C727.974 498.528 726.454 496.55 725.694 494.876C724.782 493.203 722.047 491.377 722.047 491.377L714.904 491.073C714.904 491.073 712.473 491.529 710.801 494.268C708.977 496.854 708.977 496.854 707.002 498.528C704.874 500.201 703.202 500.049 701.531 501.571C700.163 502.788 698.339 503.244 697.883 506.287C697.123 509.33 697.731 509.178 694.54 509.786C691.044 510.547 686.941 510.851 686.941 510.851L682.078 510.091L678.583 512.981C673.416 510.547 676.911 510.395 673.416 510.547C669.92 510.547 673.416 507.504 669.92 510.547C666.425 513.742 663.537 514.198 662.018 514.959C660.498 516.024 656.547 514.959 655.179 515.872C653.507 516.785 651.379 517.85 649.86 518.611C648.34 519.676 644.541 524.544 644.541 524.544C644.541 524.544 639.982 527.891 638.31 529.26C636.942 530.934 617.186 544.779 617.186 544.779L605.332 555.277L596.517 561.21L587.703 569.73C587.703 569.73 585.271 575.208 583.448 578.403C581.776 581.597 577.521 587.227 577.521 587.227C577.521 587.227 569.618 600.007 569.314 601.985C569.162 603.658 568.098 610.505 568.098 610.505C568.098 610.505 566.731 612.482 567.187 615.221C567.794 618.112 565.667 619.633 565.515 621.915C565.515 624.349 564.451 628.153 564.451 628.153C563.843 633.934 564.755 636.521 562.931 638.499C559.436 641.389 557.612 641.085 555.029 642.911C552.445 644.432 553.509 640.781 552.445 644.432C551.381 648.236 549.102 651.127 547.582 653.104C546.214 655.082 544.847 657.212 543.327 658.582C541.959 660.103 544.087 662.689 540.135 663.45C536.336 664.211 528.889 665.732 525.394 665.884C521.899 665.884 516.428 665.276 516.428 665.276C515.516 672.883 513.844 670.297 514.148 676.991C513.996 683.229 513.388 685.815 513.844 687.489C514.148 689.01 514.908 689.771 512.324 692.357C510.045 695.248 510.197 698.139 508.525 699.204C501.99 702.246 502.294 701.486 499.711 702.703C496.975 703.768 493.936 703.768 492.112 705.898C490.288 708.028 488.465 711.984 488.465 711.984L484.209 716.852C484.209 716.852 465.213 721.721 462.173 721.721C459.438 721.721 457.158 722.633 451.687 722.177C446.064 721.264 444.089 720.047 441.201 720.047C438.162 720.047 436.794 718.069 433.906 722.025C431.171 726.133 430.867 726.741 426.156 730.697C421.597 734.501 427.828 732.827 421.597 734.501C415.518 736.478 413.086 739.065 409.287 737.696C405.336 735.87 402.752 734.044 401.384 732.675C396.977 728.871 396.369 728.263 395.457 726.741C394.545 725.22 393.786 724.155 390.746 723.698C387.707 723.09 385.883 725.372 384.515 721.873C383.3 718.526 383.907 723.851 383.3 718.526C382.844 713.353 382.236 710.462 382.236 710.462C382.236 710.462 381.628 709.397 379.348 707.724C377.221 705.746 375.093 704.376 373.269 703.92C371.598 703.616 369.47 699.508 366.734 700.573C363.999 701.79 363.695 700.573 361.415 701.181C359.136 701.638 357.92 701.181 356.4 702.094C354.729 702.855 350.473 706.05 348.802 705.441C344.243 703.311 341.811 699.66 341.811 699.66C341.811 699.66 339.683 696.921 337.556 698.899C331.325 703.464 332.085 701.029 329.349 695.704C326.462 690.379 322.966 692.966 320.383 691.596C317.647 690.227 304.882 684.446 304.882 684.446L298.347 678.208C298.347 678.208 301.082 671.209 305.034 673.339C309.137 675.621 310.201 675.317 311.264 672.122C312.48 669.232 310.049 668.927 315.52 666.189C320.839 663.298 321.751 661.929 323.878 661.472C326.158 661.016 326.158 660.407 329.653 660.864C333.301 661.32 336.492 663.146 336.492 663.146C336.492 663.146 338.62 664.515 341.355 663.602C344.091 662.233 346.37 661.776 346.37 661.776C346.37 661.776 350.321 666.341 351.689 664.971C353.209 663.45 355.033 661.32 355.033 661.32C355.033 661.32 355.489 657.06 353.209 657.06C350.777 656.756 347.89 654.017 346.066 654.322C344.546 654.626 337.708 653.561 337.708 653.561L333.604 653.865C333.452 649.757 335.884 644.584 335.884 644.584C335.884 644.584 336.036 642.607 337.556 641.237C338.923 639.868 338.62 637.586 338.012 634.695C337.404 631.957 336.188 628.609 335.124 626.023C333.908 623.284 331.933 619.025 332.237 617.047C332.389 615.221 331.933 610.048 331.933 610.048C331.933 610.048 329.805 604.723 329.805 601.68C329.805 598.637 329.045 594.834 328.589 592.4C328.133 590.27 327.829 588.444 327.374 586.314C326.766 584.032 326.158 580.076 327.374 577.49C330.565 570.187 329.045 571.86 330.565 570.187C332.085 568.665 333.908 568.97 336.492 567.753C339.227 566.688 339.987 564.101 339.987 564.101L341.203 558.624C341.203 558.624 339.075 544.931 338.316 540.975C337.404 536.868 337.252 532.912 336.036 528.956C334.668 525.153 331.173 519.828 330.869 517.698C330.413 515.263 328.285 516.328 330.565 509.938C332.845 503.548 332.845 500.201 332.845 500.201C332.845 500.201 331.325 495.789 328.741 494.42C326.158 493.203 323.574 492.138 324.79 489.399C326.158 486.813 327.526 488.334 332.693 487.421C337.86 486.356 345.914 482.857 340.747 481.031C335.58 478.901 333.604 477.076 330.869 477.836C327.981 478.445 325.094 478.901 322.966 479.358C320.687 479.966 318.255 479.053 317.951 477.38C317.647 475.859 315.976 473.12 315.976 473.12L312.328 469.773C312.328 469.773 308.681 466.73 311.264 464.6C313.696 462.47 319.775 460.34 319.775 460.34L327.526 460.796C327.526 460.796 327.222 453.189 324.486 453.646C321.599 454.254 315.824 454.863 315.824 454.863C315.824 454.863 313.544 454.711 311.872 455.624C310.353 456.384 304.73 461.101 304.73 461.101C304.73 461.101 302.906 460.949 301.082 461.253C299.411 461.709 296.675 459.731 296.219 457.601C295.763 455.319 295.763 452.429 295.763 452.429L300.93 449.081C300.93 449.081 303.21 445.126 303.362 442.844C303.362 440.409 302.906 437.975 302.906 437.975L306.553 434.932L305.793 431.129C305.793 431.129 300.93 430.824 301.082 427.934C301.082 424.891 298.955 429.455 301.082 424.891C303.058 420.327 304.426 417.588 304.426 417.588C304.426 417.588 304.274 414.697 302.754 412.719C301.234 410.589 299.866 409.829 296.067 411.654C292.42 413.632 288.924 411.807 287.253 414.545C285.429 417.284 281.478 418.044 279.806 421.392C278.134 424.587 276.615 426.108 273.879 427.021C271.144 428.086 266.28 429.759 266.28 429.759C266.28 429.759 262.785 430.977 261.873 429.455C261.873 429.455 257.922 427.325 256.25 427.629C254.579 428.086 253.971 428.238 252.451 429.607C250.931 431.129 248.348 435.541 248.348 435.541L247.588 440.409L247.892 444.517C245.004 450.451 245.612 450.907 243.029 452.124C240.293 453.189 239.229 454.102 237.558 455.015L233.758 465.209C233.758 465.209 230.871 468.708 226.92 466.73C222.968 464.448 223.424 461.253 220.993 460.036C218.409 458.819 210.658 452.733 210.658 452.733C210.658 452.733 205.339 452.581 203.668 452.885C201.996 453.341 200.172 449.994 197.589 449.386C195.157 448.625 185.887 443.452 185.887 443.452L178.288 437.823C178.288 437.823 176.161 430.064 174.033 428.694C172.209 427.325 174.033 422.761 171.298 419.87C168.41 416.827 168.41 411.502 164.915 414.697C161.419 417.74 164.763 414.089 161.419 417.74C158.076 421.392 162.635 423.826 158.076 421.392C153.365 418.805 150.021 419.262 151.389 414.393C152.757 409.372 151.693 407.242 153.213 405.264L161.267 398.722C161.267 398.722 158.076 394.31 164.763 388.833C171.298 383.356 175.249 376.662 178.288 373.619C181.176 370.728 192.726 354.905 192.726 354.905C192.726 354.905 196.069 350.189 190.294 351.406C184.671 352.471 182.088 358.252 180.416 360.991C178.592 363.73 173.577 370.576 171.601 372.706C169.626 374.836 165.674 378.487 163.091 380.77C160.659 383.052 156.1 384.573 152.149 388.225C148.198 392.028 148.198 392.028 144.094 394.615C139.839 397.049 142.575 396.136 136.8 397.201C131.177 398.266 127.681 399.027 120.691 398.722C113.548 398.418 112.636 397.809 106.101 399.179C99.2624 400.548 86.3447 401.309 83.7612 402.374C81.0257 403.439 74.9467 405.264 71.4514 408.459C67.804 411.35 63.3968 413.024 61.8771 416.675C60.3574 420.479 59.4455 422.457 56.862 424.282C54.2784 425.804 53.0627 428.999 47.8956 426.412C42.7285 423.978 43.9443 423.674 37.8654 423.826C31.9385 423.674 27.8352 420.327 24.0359 422.304C20.3885 424.282 22.6681 424.282 15.8293 425.195C8.99056 425.804 11.1182 418.957 12.182 415.762C13.2458 412.719 17.3491 408.003 14.9175 407.699C5.79913 406.482 0.784033 411.046 2.91165 404.047C5.03927 397.049 12.4859 380.465 14.3096 377.727C15.9813 374.988 19.6287 369.359 24.1878 365.707C28.747 361.904 30.2668 359.774 33.7621 357.187C37.4095 354.753 37.1055 353.08 42.7285 349.58C48.5035 346.081 45.464 348.363 51.8469 344.408C58.0778 340.148 57.3179 342.734 60.9653 337.257C60.9653 337.257 64.0047 334.975 68.4119 331.019C73.1231 327.215 72.5152 334.214 72.5152 334.214C72.5152 334.214 77.2263 342.886 81.6336 336.192C86.1927 329.345 83.3053 326.303 88.7763 324.173C94.0953 321.89 100.022 321.282 100.63 318.848C101.238 316.261 97.1348 313.066 91.3598 313.523C85.5848 314.131 81.3296 316.109 89.0802 308.045C96.9828 299.982 99.4144 297.396 102.15 293.136C104.733 289.028 112.18 281.573 116.131 278.53C120.235 275.335 123.882 272.748 127.833 269.097C131.937 265.293 134.368 260.729 138.015 257.534C141.663 254.644 145.006 251.601 147.286 250.536C149.413 249.623 146.982 252.514 154.429 248.101C161.875 243.689 160.507 246.124 164.003 242.472C167.346 238.821 167.346 238.821 167.346 238.821C167.346 238.821 167.194 229.388 177.528 231.061C187.863 232.735 186.191 233.039 193.637 226.041C201.236 219.194 205.187 215.999 207.619 213.413C210.051 210.522 213.09 208.24 215.978 204.741C218.713 201.242 217.041 196.221 220.689 195.612C224.032 195.004 223.272 196.373 227.983 197.134C232.846 198.047 234.974 199.416 236.798 196.221C238.317 192.722 234.062 191.657 236.19 187.853C238.469 183.897 235.43 180.854 242.421 183.137C249.411 185.267 247.588 185.571 253.211 186.788C258.682 188.005 254.579 194.091 258.682 188.005C262.937 181.919 259.594 180.398 262.329 176.138C265.065 172.03 264.913 171.574 267.496 169.139C269.928 166.857 268.864 166.705 270.08 164.727C271.448 162.597 278.59 163.054 283.149 168.075C287.709 173.095 292.572 173.856 290.14 177.203C288.013 180.702 286.493 188.462 291.052 185.267C295.763 181.919 300.778 183.897 297.587 175.834C294.243 167.77 292.572 166.097 293.484 161.228C294.243 156.36 293.18 150.274 295.155 152.1C297.283 154.077 301.842 159.402 301.386 154.382C301.082 149.209 298.195 147.231 302.146 146.47C306.249 145.71 307.921 149.057 308.529 152.252C309.289 155.599 310.049 153.621 312.024 157.425C313.848 161.228 313.696 159.555 313.24 166.249C312.784 172.791 314.608 179.333 318.407 174.464C322.206 169.596 322.814 169.9 322.966 164.727C322.966 159.25 323.574 165.184 322.966 159.25C322.51 153.469 323.726 156.816 322.51 151.035C321.447 145.405 324.638 146.47 320.231 142.667C315.976 138.863 312.48 135.972 308.529 133.842C304.578 131.712 303.97 128.67 300.018 129.43C295.915 130.191 295.611 128.213 290.9 131.256C286.341 134.603 284.821 135.972 279.958 138.255C275.095 140.385 279.046 145.557 275.095 140.385C271.144 135.212 270.536 135.364 271.448 130.495C272.359 125.779 273.423 125.475 273.271 122.432C273.423 119.541 274.183 118.172 276.311 117.107C278.59 116.042 280.87 113.303 280.87 113.303C282.542 106.457 286.797 104.327 276.767 104.175C266.736 103.87 266.129 106.761 264.457 101.284C262.633 95.8069 260.809 97.9369 263.849 92.4597C266.888 86.9826 269.624 94.2854 266.888 86.9826C264.305 79.8319 265.217 82.1141 261.721 78.7669C258.074 75.2676 254.579 70.0948 254.123 67.2041C253.515 64.4655 247.892 65.5305 253.515 60.8141C259.138 56.2499 258.074 56.402 264.761 52.2942C271.6 48.0342 276.919 42.8613 280.11 37.9928C283.301 33.2763 283.605 28.8642 289.684 31.9071C295.459 35.1021 293.94 32.9721 298.499 35.5585C303.058 37.9928 304.122 40.2749 307.465 39.0578C310.657 37.8406 311.872 34.6456 314.152 37.8406C316.583 40.7313 317.191 43.622 320.079 46.5127C323.118 49.5556 324.486 50.9249 327.374 51.077C330.261 51.2291 332.237 51.9899 334.972 53.6634C337.708 55.4891 338.772 55.1849 343.635 58.9884C348.498 62.6398 348.65 63.4005 354.881 62.0313C361.112 60.8141 368.71 59.9013 373.725 58.9884C378.892 57.9234 375.397 54.7284 387.403 62.1834C399.561 69.7905 405.184 71.6162 412.326 72.0727C419.469 72.3769 418.861 69.4862 424.484 70.8555C429.803 71.9205 430.107 75.5719 434.21 72.3769C438.314 69.0298 439.529 65.987 444.545 67.9648C449.712 70.0948 451.991 70.2469 456.246 71.0077C460.502 71.9205 465.821 74.5069 468.252 78.0062C470.684 81.6576 474.179 87.439 477.067 87.439C480.106 87.439 484.817 90.634 487.553 92.4597C490.288 94.2854 495.455 93.829 497.127 101.74C498.799 109.804 498.495 111.478 501.838 116.65C505.334 121.823 507.613 124.562 509.741 120.91C512.172 117.563 512.172 111.782 513.996 109.043C515.82 106.305 520.075 102.045 523.722 102.197C527.522 102.805 532.233 100.675 529.193 96.5676C525.85 92.4597 523.874 93.3726 522.507 89.4169C521.291 85.6133 520.987 81.0491 520.987 81.0491C520.987 81.0491 522.507 77.2455 526.61 79.5276C530.409 81.5055 532.689 86.374 536.032 85.7655C539.376 85.0048 543.935 84.0919 544.847 88.8083C545.758 93.3726 545.758 93.3726 544.999 98.8497C544.239 104.327 547.734 108.891 544.087 111.934C540.439 114.673 540.135 116.65 535.272 118.324C530.409 119.845 532.385 116.042 529.041 122.432C525.698 128.974 525.85 128.974 523.874 132.169C519.467 139.624 517.947 137.494 517.947 144.036C518.099 150.578 514.148 151.795 518.099 153.317C521.899 154.99 521.139 153.925 525.242 150.73C529.345 147.687 530.257 149.209 533.753 143.123C537.248 137.19 539.224 135.06 542.415 130.191C545.606 125.627 547.886 122.28 551.381 119.693C555.029 117.259 559.892 114.064 562.627 114.064C565.667 113.912 570.53 114.825 565.971 118.628C561.412 122.584 562.019 122.432 559.74 125.779C557.308 129.126 555.485 131.865 555.637 134.755C555.637 137.798 553.661 136.429 556.093 140.08C558.676 143.732 560.348 143.884 564.147 141.906C567.642 140.08 570.226 137.037 570.834 134.299C571.442 131.256 572.506 129.887 576.761 131.408C581.168 132.777 582.84 132.321 584.056 135.212C585.119 137.95 585.119 137.95 585.119 137.95C585.119 137.95 590.438 141.145 588.615 146.166C586.639 151.339 587.703 151.035 583.448 156.055C579.192 160.924 579.648 160.924 575.849 162.141C571.898 163.51 570.074 162.75 568.554 167.01C567.187 171.574 562.475 168.227 567.187 171.574C571.746 174.464 576.609 174.312 580.712 171.726C584.815 169.139 587.247 167.01 592.414 165.336C597.429 163.662 604.268 163.054 607.915 160.467C611.563 158.033 614.906 156.816 616.882 155.295C619.009 153.469 624.176 147.383 619.769 157.577C615.362 168.074 614.298 168.835 615.514 171.422C616.578 174.16 618.401 180.398 620.833 175.529C623.568 171.117 624.176 165.488 627.368 169.748C630.559 173.704 628.888 177.659 632.687 178.572C636.486 179.637 635.574 178.572 639.526 180.246C643.173 181.767 641.197 183.441 646.06 183.593C650.772 183.897 654.419 180.854 658.218 182.528C662.018 184.049 663.233 178.42 666.273 187.701C669.312 196.982 669.464 188.918 671.288 192.113C673.112 195.308 674.631 193.939 676.911 199.264C679.191 204.741 679.646 207.023 681.014 208.392C682.534 209.762 685.725 207.936 686.485 212.5C687.549 217.216 688.917 221.629 690.437 223.606C692.108 225.584 697.123 231.214 697.731 233.952C698.339 236.843 700.467 238.669 700.163 242.32C699.707 245.971 703.202 245.971 698.491 249.623C694.084 253.426 692.564 252.057 689.981 257.23C687.549 262.555 682.534 258.599 684.206 263.163C685.725 267.728 686.485 269.097 690.74 272.901C695.148 276.856 696.363 283.094 698.795 283.703C701.379 284.463 702.746 285.985 705.026 288.876C707.457 291.918 706.546 292.831 710.953 293.744C715.208 294.657 716.424 294.961 719.463 298.004C722.351 300.743 722.351 301.199 725.086 303.329C727.822 305.307 731.317 302.112 732.229 298.308C733.445 294.657 734.357 292.679 738.916 295.874C743.627 299.069 746.666 299.221 749.554 299.678C752.745 300.438 754.873 302.72 759.736 303.481C764.599 304.242 775.237 304.698 778.125 307.133C780.86 309.415 785.571 306.22 787.395 308.654C788.915 311.24 786.483 310.632 786.787 314.74C786.939 318.848 785.724 327.824 791.802 322.499C797.729 317.326 796.665 314.588 801.529 312.458C806.24 310.328 810.343 311.849 810.799 308.806C811.255 305.915 814.446 303.938 807.76 299.373C801.073 294.809 793.778 291.158 789.219 285.985C784.812 280.964 782.228 280.356 772.654 273.357C763.08 266.358 749.858 259.512 744.387 252.209C738.916 245.211 733.293 236.843 724.023 229.084C714.904 221.629 707.913 213.109 703.506 208.392C699.099 203.98 700.011 206.11 691.5 197.742C682.838 189.527 676.455 187.853 674.327 182.376C672.2 176.899 674.023 177.812 669.312 175.073C664.601 172.487 663.689 170.965 658.978 167.618C654.267 164.575 643.781 150.122 638.158 139.928C632.535 129.887 635.878 128.061 627.52 121.519C619.161 114.825 617.034 107.674 615.058 111.63C612.778 115.738 615.97 116.042 609.739 120.758C603.66 125.779 600.165 128.67 598.797 119.541C597.581 110.413 600.165 105.848 599.861 100.98C599.557 96.4154 600.621 96.2633 598.189 90.1776C595.757 84.244 593.63 81.6576 593.022 78.7669C592.414 75.8762 593.174 75.7241 590.894 70.8555C588.615 65.987 589.982 57.467 586.183 53.0549C582.384 48.3385 577.977 46.3606 576.153 37.2321C574.329 28.2556 572.658 25.6692 571.442 17.4535C570.682 9.39 565.667 -0.347117 572.202 2.69573C578.737 5.58644 580.408 2.2393 581.168 9.08571C582.08 15.9321 581.928 18.3664 584.511 25.6692C587.095 32.8199 589.982 42.2527 591.958 45.2956C593.782 48.6427 598.341 57.0106 598.341 57.0106C598.341 57.0106 595.909 59.4448 599.101 66.8998C602.444 74.5069 601.076 73.5941 605.332 80.5926C609.435 87.2869 610.955 88.3519 612.778 91.3947C614.45 94.5897 615.362 95.6547 618.401 99.7626C621.593 103.718 625.24 107.218 627.976 112.695C630.863 118.02 631.319 117.411 634.511 121.975C637.854 126.692 640.589 128.517 643.325 133.995C646.212 139.167 647.428 140.689 650.164 144.34C652.595 147.992 654.267 149.97 656.699 153.621C659.13 157.272 659.13 156.816 661.562 159.707C663.841 162.902 663.233 163.054 668.096 166.705C672.96 170.357 674.327 171.422 676.607 174.617C679.039 177.659 680.558 178.572 682.686 181.007C684.965 183.441 684.206 183.593 687.853 186.484C691.348 189.222 693.78 189.983 696.667 192.265C699.555 194.699 711.409 204.132 714.6 208.849C717.792 213.413 717.184 210.066 722.959 217.825C728.582 225.432 729.19 225.28 732.381 229.996C735.572 234.865 738.308 236.386 741.955 239.277C745.451 242.168 748.946 242.168 753.353 247.036C757.912 252.057 770.07 260.273 773.566 263.316C777.213 265.902 782.38 268.641 787.699 271.531C793.018 274.574 788.611 273.813 796.21 278.834C803.656 283.855 803.808 284.92 807.152 287.202C810.647 289.484 812.319 289.18 815.206 292.071C818.398 295.113 818.398 295.57 822.653 296.483C827.06 297.396 824.173 298.461 829.644 296.178C835.115 294.048 831.771 297.7 838.762 291.614C845.753 285.376 840.282 287.658 845.753 285.376C851.224 283.094 856.391 273.813 862.926 271.531C869.461 268.945 876.451 265.75 880.251 263.316C883.746 260.729 886.481 255.708 887.393 252.514C888.609 249.471 891.041 250.079 889.065 246.276C887.241 242.624 883.746 242.624 887.393 238.212C891.345 234.104 892.864 232.583 894.536 229.236C896.36 226.041 898.031 223.15 897.727 221.02C897.12 218.586 895.904 214.934 898.335 211.891C900.767 209.153 901.375 206.719 904.262 206.11C907.15 205.654 911.101 202.307 909.885 207.327C908.366 212.348 908.973 205.654 908.366 212.348C908.062 219.042 904.414 221.476 908.366 223.759C912.317 225.736 911.709 225.889 915.204 225.736C918.548 225.584 917.636 220.564 922.499 227.258C927.362 233.952 930.554 234.561 932.377 235.321C934.353 236.234 937.088 235.626 939.52 235.626C941.8 235.93 947.271 236.234 948.942 235.626C950.614 235.474 951.982 236.082 955.325 235.321C958.82 234.713 964.747 228.171 964.747 228.171L968.091 221.629C968.091 221.629 969.155 220.868 968.243 216.304C967.483 211.891 964.443 212.348 966.875 209.001C969.003 205.502 971.586 203.219 971.586 203.219C971.586 203.219 970.522 198.807 974.474 196.677C978.121 194.852 982.528 193.33 986.632 190.135C990.887 187.244 999.397 185.875 1001.07 185.114C1002.59 184.049 1010.8 183.745 1012.31 182.832C1013.99 181.767 1013.68 180.55 1017.63 179.333C1021.43 178.268 1021.89 177.355 1026.3 179.029C1030.55 180.55 1034.2 180.398 1037.24 178.116C1040.28 175.529 1043.47 177.355 1047.57 179.637C1051.37 181.615 1052.28 180.398 1056.69 181.311C1060.95 182.224 1063.68 183.289 1067.03 182.224C1070.22 181.007 1067.33 177.964 1074.02 179.029C1080.55 180.094 1081.92 182.832 1084.96 183.441C1088.15 184.049 1093.16 183.441 1095.44 182.984C1097.72 182.528 1099.55 179.942 1102.74 178.724C1106.08 177.507 1116.42 174.16 1116.87 175.834C1117.18 177.659 1114.44 185.114 1114.44 185.114C1114.44 185.114 1114.74 189.222 1116.11 193.026C1117.33 196.829 1121.74 200.785 1119.46 203.676C1117.02 206.414 1115.2 209.153 1111.25 209.457C1106.99 209.457 1101.67 212.196 1098.33 210.066C1094.99 207.784 1087.54 205.806 1087.54 205.806C1087.54 205.806 1081.61 202.154 1079.33 203.219C1075.99 205.045 1074.93 205.958 1073.86 208.544Z" stroke="#B3ADAD" stroke-width="4" mask="url(#path-1-outside-1_70_682)"/>
</g>
<defs>
<linearGradient id="paint0_linear_70_682" x1="561.263" y1="2.12512" x2="561.263" y2="738.079" gradientUnits="userSpaceOnUse">
<stop stop-color="#EDEDED"/>
<stop offset="1" stop-color="#AAA8A8"/>
</linearGradient>
<clipPath id="clip0_70_682">
<rect width="1123" height="741" fill="white"/>
</clipPath>
</defs>
</svg>
