<svg width="45" height="60" viewBox="0 0 45 60" fill="none" xmlns="http://www.w3.org/2000/svg">
<path d="M22.0257 0C9.8536 0 0 9.8646 0 22.0503C0 25.1837 0.695563 28.2011 1.97073 31.1025C7.4192 43.1721 18.0843 55.9381 21.0983 59.5358C21.3302 59.7679 21.6779 60 22.0257 60C22.3735 60 22.7212 59.8839 22.9531 59.5358C26.0831 55.9381 36.6322 43.1721 42.0807 31.1025C43.3558 28.3172 44.0514 25.2998 44.0514 22.0503C44.0514 9.98066 34.1978 0 22.0257 0ZM22.0257 33.5396C15.7658 33.5396 10.5492 28.4333 10.5492 22.0503C10.5492 15.7834 15.6498 10.5609 22.0257 10.5609C28.4016 10.5609 33.5022 15.6673 33.5022 22.0503C33.5022 28.4333 28.2856 33.5396 22.0257 33.5396Z" fill="#F50014"/>
<circle cx="22.2696" cy="21.9797" r="17.9835" fill="white"/>
<g clip-path="url(#clip0_153_473)">
<path d="M14.6645 25.9525C14.6645 26.0128 14.6487 26.0558 14.617 26.0989C14.5932 26.1419 14.5377 26.1677 14.4585 26.2021C14.3872 26.228 14.2841 26.2452 14.1573 26.2624C14.0305 26.2796 13.872 26.2796 13.6739 26.2796C13.4599 26.2796 13.2935 26.271 13.1666 26.2624C13.0398 26.2452 12.9368 26.228 12.8576 26.2021C12.7783 26.1763 12.7228 26.1333 12.6832 26.0816C12.6436 26.03 12.6198 25.9697 12.596 25.8923L11.8431 23.62C11.7401 23.2843 11.6291 23.0088 11.5102 22.7851C11.3914 22.5613 11.2646 22.3805 11.1219 22.2428C10.9872 22.1051 10.8207 22.0104 10.6464 21.9501C10.4641 21.8899 10.266 21.8641 10.044 21.8641H9.61607V25.9525C9.61607 26.0128 9.60022 26.0558 9.56852 26.0989C9.54475 26.1419 9.48927 26.1677 9.41794 26.2021C9.34661 26.228 9.25151 26.2538 9.1247 26.2624C9.00582 26.2796 8.84731 26.2796 8.66503 26.2796C8.48274 26.2796 8.33216 26.271 8.20535 26.2624C8.07855 26.2452 7.98344 26.228 7.91211 26.2021C7.84079 26.1763 7.78531 26.1419 7.75361 26.0989C7.72191 26.0558 7.70605 26.0128 7.70605 25.9525V16.3038C7.70605 16.2435 7.72191 16.2005 7.75361 16.1574C7.78531 16.1144 7.84079 16.0886 7.91211 16.0541C7.98344 16.0283 8.07855 16.0111 8.20535 15.9939C8.33216 15.9939 8.48274 15.9853 8.67295 15.9853C8.85524 15.9853 9.01374 15.9939 9.13262 16.0025C9.25151 16.0197 9.34661 16.0369 9.42586 16.0628C9.49719 16.0886 9.55267 16.123 9.57645 16.166C9.60815 16.2005 9.624 16.2521 9.624 16.3124V20.134H10.052C10.266 20.134 10.4641 20.0996 10.6226 20.0393C10.789 19.9791 10.9396 19.8758 11.0743 19.7381C11.2091 19.6004 11.328 19.4196 11.4389 19.2044C11.5499 18.9892 11.6529 18.7138 11.7559 18.3953L12.39 16.364C12.4137 16.2952 12.4454 16.2263 12.4771 16.1833C12.5009 16.1316 12.5485 16.0972 12.6277 16.0714C12.699 16.0455 12.8021 16.0197 12.921 16.0111C13.0478 15.9939 13.2142 15.9853 13.4203 15.9853C13.6105 15.9853 13.7611 15.9939 13.8879 16.0025C14.0147 16.0197 14.1098 16.0369 14.1811 16.0628C14.2445 16.0886 14.2921 16.1144 14.3158 16.1574C14.3396 16.2005 14.3555 16.2435 14.3555 16.3038C14.3555 16.3726 14.3475 16.4587 14.3238 16.5534C14.3 16.6567 14.2683 16.7858 14.2128 16.9493L13.5867 18.7568C13.4678 19.0925 13.3569 19.3766 13.238 19.6176C13.1191 19.85 13.0002 20.0565 12.8734 20.2201C12.7466 20.3836 12.6119 20.5213 12.4692 20.6246C12.3266 20.7279 12.168 20.814 11.9937 20.8828V20.8914C12.1839 20.9861 12.3662 21.0808 12.5168 21.1927C12.6753 21.3046 12.8259 21.4509 12.9606 21.6231C13.0953 21.7952 13.2301 22.0104 13.3569 22.26C13.4837 22.5096 13.6105 22.8195 13.7373 23.1896L14.506 25.307C14.5853 25.5222 14.6328 25.6685 14.6408 25.7546C14.6566 25.832 14.6645 25.9009 14.6645 25.9525ZM35.9997 25.9525C35.9997 26.0128 35.9838 26.0558 35.9521 26.0989C35.9284 26.1419 35.8729 26.1677 35.7936 26.2021C35.7223 26.228 35.6193 26.2452 35.4925 26.2624C35.3657 26.2796 35.2072 26.2796 35.009 26.2796C34.795 26.2796 34.6286 26.271 34.5018 26.2624C34.375 26.2452 34.272 26.228 34.1927 26.2021C34.1135 26.1763 34.058 26.1333 34.0183 26.0816C33.9787 26.03 33.9549 25.9697 33.9312 25.8923L33.1783 23.62C33.0752 23.2843 32.9643 23.0088 32.8454 22.7851C32.7265 22.5613 32.5997 22.3805 32.457 22.2428C32.3223 22.1051 32.1559 22.0104 31.9815 21.9501C31.7992 21.8899 31.6011 21.8641 31.3792 21.8641H30.9512V25.9525C30.9512 26.0128 30.9354 26.0558 30.9037 26.0989C30.8799 26.1419 30.8244 26.1677 30.7531 26.2021C30.6818 26.228 30.5867 26.2538 30.4598 26.2624C30.341 26.2796 30.1825 26.2796 30.0002 26.2796C29.8179 26.2796 29.6673 26.271 29.5405 26.2624C29.4137 26.2452 29.3186 26.228 29.2473 26.2021C29.1759 26.1763 29.1205 26.1419 29.0888 26.0989C29.0571 26.0558 29.0412 26.0128 29.0412 25.9525V16.3038C29.0412 16.2435 29.0571 16.2005 29.0888 16.1574C29.1205 16.1144 29.1759 16.0886 29.2473 16.0541C29.3186 16.0283 29.4137 16.0111 29.5405 15.9939C29.6673 15.9939 29.8258 15.9853 30.0081 15.9853C30.1904 15.9853 30.3489 15.9939 30.4678 16.0025C30.5867 16.0197 30.6818 16.0369 30.761 16.0628C30.8323 16.0886 30.8878 16.123 30.9116 16.166C30.9433 16.2005 30.9591 16.2521 30.9591 16.3124V20.134H31.3871C31.6011 20.134 31.7992 20.0996 31.9577 20.0393C32.1242 19.9791 32.2748 19.8758 32.4095 19.7381C32.5442 19.6004 32.6631 19.4196 32.7741 19.2044C32.885 18.9892 32.988 18.7138 33.0911 18.3953L33.7251 16.364C33.7489 16.2952 33.7806 16.2263 33.8123 16.1833C33.844 16.1316 33.8995 16.0886 33.9787 16.0628C34.0501 16.0369 34.1531 16.0111 34.272 16.0025C34.3908 15.9853 34.5573 15.9853 34.7633 15.9853C34.9535 15.9853 35.1041 15.9939 35.2309 16.0025C35.3577 16.0197 35.4528 16.0369 35.5242 16.0628C35.5955 16.0886 35.6431 16.1144 35.6668 16.1574C35.6906 16.2005 35.7065 16.2435 35.7065 16.3038C35.7065 16.3726 35.6985 16.4587 35.6748 16.5534C35.651 16.6567 35.6193 16.7858 35.5638 16.9493L34.9377 18.7568C34.8188 19.0925 34.7079 19.3766 34.589 19.6176C34.4701 19.85 34.3512 20.0565 34.2244 20.2201C34.0976 20.3836 33.9629 20.5213 33.8202 20.6246C33.6776 20.7279 33.519 20.814 33.3447 20.8828V20.8914C33.5349 20.9861 33.7172 21.0808 33.8678 21.1927C34.0263 21.3046 34.1769 21.4509 34.3116 21.6231C34.4463 21.7952 34.5811 22.0104 34.7079 22.26C34.8347 22.5096 34.9615 22.8195 35.0883 23.1896L35.857 25.307C35.9363 25.5222 35.9838 25.6685 35.9918 25.7546C35.9918 25.832 35.9997 25.9009 35.9997 25.9525Z" fill="black"/>
<path d="M27.004 25.9439C27.004 25.9956 26.9881 26.0472 26.9643 26.0902C26.9406 26.1333 26.8851 26.1677 26.8217 26.1935C26.7504 26.2194 26.6553 26.2366 26.5443 26.2538C26.4254 26.271 26.2828 26.2796 26.1005 26.2796C25.9261 26.2796 25.7755 26.271 25.6646 26.2538C25.5457 26.2366 25.4585 26.2194 25.3872 26.1935C25.3238 26.1677 25.2683 26.1333 25.2445 26.0902C25.2128 26.0472 25.197 25.9956 25.197 25.9439V18.2662C25.197 18.2146 25.1653 18.1715 25.1177 18.1629C25.0702 18.1543 25.0226 18.1801 25.0068 18.2318L22.4786 25.9353C22.4627 26.0042 22.431 26.0558 22.3835 26.1075C22.3359 26.1505 22.2804 26.1849 22.2091 26.2107C22.1378 26.2366 22.0347 26.2538 21.9238 26.2624C21.8049 26.271 21.6702 26.271 21.5037 26.271C21.3373 26.271 21.2026 26.2624 21.0837 26.2538C20.9648 26.2366 20.8697 26.2194 20.7984 26.1935C20.7271 26.1677 20.6637 26.1333 20.624 26.0902C20.5844 26.0472 20.5527 25.9956 20.5368 25.9439L18.0958 18.2662C18.08 18.2146 18.0324 18.1888 17.9849 18.1974C17.9373 18.206 17.9056 18.249 17.9056 18.3006V25.9525C17.9056 26.0042 17.8898 26.0558 17.866 26.0989C17.8422 26.1419 17.7867 26.1763 17.7154 26.2021C17.6441 26.228 17.549 26.2452 17.4301 26.2624C17.3191 26.2796 17.1686 26.2882 16.9942 26.2882C16.8198 26.2882 16.6693 26.2796 16.5583 26.2624C16.4394 26.2452 16.3443 26.228 16.2809 26.2021C16.2096 26.1763 16.162 26.1419 16.1383 26.0989C16.1145 26.0558 16.0986 26.0042 16.0986 25.9525V16.8632C16.0986 16.5964 16.162 16.3898 16.2968 16.2435C16.4315 16.0972 16.5979 16.0283 16.8198 16.0283H18.0641C18.286 16.0283 18.4762 16.0455 18.6348 16.0886C18.7933 16.1316 18.9359 16.1919 19.0469 16.2865C19.1578 16.3812 19.2609 16.5017 19.3401 16.648C19.4194 16.7944 19.4828 16.9837 19.5462 17.2075L21.5672 23.2757H21.5989L23.6912 17.2161C23.7546 16.9923 23.8259 16.8116 23.8972 16.6567C23.9765 16.5103 24.0636 16.3812 24.1588 16.2865C24.2539 16.1919 24.3727 16.123 24.5075 16.0886C24.6422 16.0455 24.8007 16.0283 24.983 16.0283H26.2669C26.4016 16.0283 26.5126 16.0455 26.5998 16.0886C26.6949 16.123 26.7741 16.1746 26.8296 16.2521C26.893 16.321 26.9326 16.407 26.9643 16.5103C26.996 16.6136 27.0119 16.7341 27.0119 16.8632V25.9439H27.004Z" fill="#F50014"/>
</g>
<defs>
<clipPath id="clip0_153_473">
<rect width="28.2857" height="10.2857" fill="white" transform="translate(7.71387 15.9853)"/>
</clipPath>
</defs>
</svg>
