<svg width="45" height="61" viewBox="0 0 45 61" fill="none" xmlns="http://www.w3.org/2000/svg">
<path d="M22.046 0C9.86266 0 0 9.87367 0 22.0706C0 25.2069 0.696202 28.2271 1.97255 31.1311C7.42602 43.2118 18.1009 55.9895 21.1177 59.5905C21.3498 59.8228 21.6979 60.0552 22.046 60.0552C22.394 60.0552 22.7421 59.939 22.9742 59.5905C26.107 55.9895 36.6659 43.2118 42.1194 31.1311C43.3957 28.3432 44.0919 25.3231 44.0919 22.0706C44.0919 9.98983 34.2292 0 22.046 0ZM22.046 33.5705C15.7803 33.5705 10.5589 28.4594 10.5589 22.0706C10.5589 15.7979 15.6642 10.5706 22.046 10.5706C28.4277 10.5706 33.5331 15.6817 33.5331 22.0706C33.5331 28.4594 28.3116 33.5705 22.046 33.5705Z" fill="#F50014"/>
<circle cx="22" cy="22" r="18" fill="white"/>
<g clip-path="url(#clip0_45_99)">
<path d="M16.4061 25.7523C16.4061 25.7992 16.3937 25.8326 16.3691 25.8661C16.3506 25.8996 16.3074 25.9197 16.2458 25.9464C16.1903 25.9665 16.1102 25.9799 16.0115 25.9933C15.9129 26.0067 15.7896 26.0067 15.6355 26.0067C15.4691 26.0067 15.3397 26 15.241 25.9933C15.1424 25.9799 15.0623 25.9665 15.0006 25.9464C14.939 25.9264 14.8958 25.8929 14.865 25.8527C14.8342 25.8126 14.8157 25.7657 14.7972 25.7054L14.2116 23.9381C14.1315 23.677 14.0452 23.4628 13.9527 23.2887C13.8602 23.1146 13.7616 22.9741 13.6507 22.8669C13.5459 22.7598 13.4164 22.6862 13.2808 22.6393C13.139 22.5925 12.9849 22.5724 12.8123 22.5724H12.4795V25.7523C12.4795 25.7992 12.4671 25.8326 12.4425 25.8661C12.424 25.8996 12.3808 25.9197 12.3254 25.9464C12.2699 25.9665 12.1959 25.9866 12.0973 25.9933C12.0048 26.0067 11.8815 26.0067 11.7398 26.0067C11.598 26.0067 11.4809 26 11.3822 25.9933C11.2836 25.9799 11.2096 25.9665 11.1542 25.9464C11.0987 25.9264 11.0555 25.8996 11.0309 25.8661C11.0062 25.8326 10.9939 25.7992 10.9939 25.7523V18.2477C10.9939 18.2008 11.0062 18.1674 11.0309 18.1339C11.0555 18.1004 11.0987 18.0803 11.1542 18.0536C11.2096 18.0335 11.2836 18.0201 11.3822 18.0067C11.4809 18.0067 11.598 18 11.7459 18C11.8877 18 12.011 18.0067 12.1035 18.0134C12.1959 18.0268 12.2699 18.0402 12.3315 18.0603C12.387 18.0803 12.4302 18.1071 12.4486 18.1406C12.4733 18.1674 12.4856 18.2075 12.4856 18.2544V21.2268H12.8185C12.9849 21.2268 13.139 21.2 13.2623 21.1531C13.3918 21.1063 13.5089 21.0259 13.6137 20.9188C13.7185 20.8117 13.8109 20.6711 13.8972 20.5038C13.9835 20.3364 14.0637 20.1222 14.1438 19.8745L14.6369 18.2946C14.6554 18.241 14.6801 18.1874 14.7047 18.154C14.7232 18.1138 14.7602 18.087 14.8219 18.0669C14.8773 18.0469 14.9575 18.0268 15.0499 18.0201C15.1486 18.0067 15.278 18 15.4383 18C15.5862 18 15.7033 18.0067 15.802 18.0134C15.9006 18.0268 15.9746 18.0402 16.03 18.0603C16.0794 18.0803 16.1163 18.1004 16.1348 18.1339C16.1533 18.1674 16.1657 18.2008 16.1657 18.2477C16.1657 18.3013 16.1595 18.3682 16.141 18.4418C16.1225 18.5222 16.0978 18.6226 16.0547 18.7498L15.5677 20.1556C15.4753 20.4167 15.389 20.6377 15.2965 20.8251C15.204 21.0059 15.1116 21.1665 15.0129 21.2937C14.9143 21.4209 14.8095 21.528 14.6986 21.6084C14.5876 21.6887 14.4643 21.7556 14.3287 21.8092V21.8159C14.4767 21.8895 14.6184 21.9632 14.7356 22.0502C14.8588 22.1372 14.976 22.251 15.0808 22.3849C15.1855 22.5188 15.2903 22.6862 15.389 22.8803C15.4876 23.0745 15.5862 23.3155 15.6848 23.6033L16.2828 25.2502C16.3444 25.4176 16.3814 25.5314 16.3876 25.5983C16.3999 25.6586 16.4061 25.7121 16.4061 25.7523ZM33.0001 25.7523C33.0001 25.7992 32.9877 25.8326 32.9631 25.8661C32.9446 25.8996 32.9014 25.9197 32.8398 25.9464C32.7843 25.9665 32.7042 25.9799 32.6056 25.9933C32.5069 26.0067 32.3836 26.0067 32.2295 26.0067C32.0631 26.0067 31.9337 26 31.835 25.9933C31.7364 25.9799 31.6563 25.9665 31.5946 25.9464C31.533 25.9264 31.4898 25.8929 31.459 25.8527C31.4282 25.8126 31.4097 25.7657 31.3912 25.7054L30.8056 23.9381C30.7255 23.677 30.6392 23.4628 30.5467 23.2887C30.4543 23.1146 30.3556 22.9741 30.2447 22.8669C30.1399 22.7598 30.0104 22.6862 29.8748 22.6393C29.733 22.5925 29.5789 22.5724 29.4063 22.5724H29.0735V25.7523C29.0735 25.7992 29.0611 25.8326 29.0365 25.8661C29.018 25.8996 28.9748 25.9197 28.9194 25.9464C28.8639 25.9665 28.7899 25.9866 28.6913 25.9933C28.5988 26.0067 28.4755 26.0067 28.3338 26.0067C28.192 26.0067 28.0749 26 27.9762 25.9933C27.8776 25.9799 27.8036 25.9665 27.7482 25.9464C27.6927 25.9264 27.6495 25.8996 27.6249 25.8661C27.6002 25.8326 27.5879 25.7992 27.5879 25.7523V18.2477C27.5879 18.2008 27.6002 18.1674 27.6249 18.1339C27.6495 18.1004 27.6927 18.0803 27.7482 18.0536C27.8036 18.0335 27.8776 18.0201 27.9762 18.0067C28.0749 18.0067 28.1982 18 28.3399 18C28.4817 18 28.605 18.0067 28.6975 18.0134C28.7899 18.0268 28.8639 18.0402 28.9255 18.0603C28.981 18.0803 29.0242 18.1071 29.0427 18.1406C29.0673 18.1674 29.0796 18.2075 29.0796 18.2544V21.2268H29.4125C29.5789 21.2268 29.733 21.2 29.8563 21.1531C29.9858 21.1063 30.1029 21.0259 30.2077 20.9188C30.3125 20.8117 30.4049 20.6711 30.4912 20.5038C30.5775 20.3364 30.6577 20.1222 30.7378 19.8745L31.2309 18.2946C31.2494 18.241 31.2741 18.1874 31.2987 18.154C31.3234 18.1138 31.3666 18.0803 31.4282 18.0603C31.4837 18.0402 31.5638 18.0201 31.6563 18.0134C31.7487 18 31.8782 18 32.0384 18C32.1864 18 32.3035 18.0067 32.4021 18.0134C32.5008 18.0268 32.5747 18.0402 32.6302 18.0603C32.6857 18.0803 32.7227 18.1004 32.7412 18.1339C32.7597 18.1674 32.772 18.2008 32.772 18.2477C32.772 18.3013 32.7658 18.3682 32.7473 18.4418C32.7288 18.5222 32.7042 18.6226 32.661 18.7498L32.1741 20.1556C32.0816 20.4167 31.9953 20.6377 31.9028 20.8251C31.8104 21.0059 31.7179 21.1665 31.6193 21.2937C31.5207 21.4209 31.4159 21.528 31.3049 21.6084C31.194 21.6887 31.0707 21.7556 30.9351 21.8092V21.8159C31.083 21.8895 31.2248 21.9632 31.3419 22.0502C31.4652 22.1372 31.5823 22.251 31.6871 22.3849C31.7919 22.5188 31.8967 22.6862 31.9953 22.8803C32.0939 23.0745 32.1926 23.3155 32.2912 23.6033L32.8891 25.2502C32.9507 25.4176 32.9877 25.5314 32.9939 25.5983C32.9939 25.6586 33.0001 25.7121 33.0001 25.7523Z" fill="black"/>
<path d="M26.0037 25.7456C26.0037 25.7857 25.9913 25.8259 25.9728 25.8594C25.9543 25.8929 25.9112 25.9196 25.8619 25.9397C25.8064 25.9598 25.7324 25.9732 25.6461 25.9866C25.5537 26 25.4427 26.0067 25.3009 26.0067C25.1653 26.0067 25.0482 26 24.9619 25.9866C24.8694 25.9732 24.8016 25.9598 24.7462 25.9397C24.6968 25.9196 24.6537 25.8929 24.6352 25.8594C24.6105 25.8259 24.5982 25.7857 24.5982 25.7456V19.774C24.5982 19.7339 24.5736 19.7004 24.5366 19.6937C24.4996 19.687 24.4626 19.7071 24.4503 19.7473L22.4839 25.7389C22.4716 25.7924 22.4469 25.8326 22.4099 25.8728C22.3729 25.9063 22.3298 25.933 22.2743 25.9531C22.2188 25.9732 22.1387 25.9866 22.0524 25.9933C21.9599 26 21.8552 26 21.7257 26C21.5963 26 21.4915 25.9933 21.399 25.9866C21.3065 25.9732 21.2326 25.9598 21.1771 25.9397C21.1216 25.9196 21.0723 25.8929 21.0415 25.8594C21.0107 25.8259 20.986 25.7857 20.9737 25.7456L19.0751 19.774C19.0628 19.7339 19.0258 19.7138 18.9888 19.7205C18.9518 19.7272 18.9272 19.7606 18.9272 19.8008V25.7523C18.9272 25.7924 18.9148 25.8326 18.8963 25.8661C18.8779 25.8996 18.8347 25.9263 18.7792 25.9464C18.7237 25.9665 18.6498 25.9799 18.5573 25.9933C18.471 26.0067 18.3539 26.0134 18.2183 26.0134C18.0827 26.0134 17.9656 26.0067 17.8793 25.9933C17.7868 25.9799 17.7128 25.9665 17.6635 25.9464C17.608 25.9263 17.571 25.8996 17.5525 25.8661C17.5341 25.8326 17.5217 25.7924 17.5217 25.7523V18.6828C17.5217 18.4753 17.571 18.3146 17.6758 18.2008C17.7806 18.087 17.9101 18.0334 18.0827 18.0334H19.0504C19.223 18.0334 19.371 18.0468 19.4943 18.0803C19.6176 18.1138 19.7285 18.1606 19.8148 18.2343C19.9011 18.3079 19.9812 18.4016 20.0429 18.5155C20.1045 18.6293 20.1538 18.7765 20.2032 18.9506L21.775 23.6703H21.7997L23.427 18.9573C23.4763 18.7832 23.5318 18.6427 23.5873 18.5222C23.6489 18.4083 23.7167 18.3079 23.7907 18.2343C23.8647 18.1606 23.9571 18.1071 24.0619 18.0803C24.1667 18.0468 24.29 18.0334 24.4318 18.0334H25.4304C25.5352 18.0334 25.6215 18.0468 25.6893 18.0803C25.7633 18.1071 25.8249 18.1473 25.868 18.2075C25.9174 18.2611 25.9482 18.328 25.9728 18.4083C25.9975 18.4887 26.0098 18.5824 26.0098 18.6828V25.7456H26.0037Z" fill="#F50014"/>
</g>
<defs>
<clipPath id="clip0_45_99">
<rect width="22" height="8" fill="white" transform="translate(11 18)"/>
</clipPath>
</defs>
</svg>
