<svg width="60" height="60" viewBox="0 0 60 60" fill="none" xmlns="http://www.w3.org/2000/svg">
<g clip-path="url(#clip0_30_12)">
<path d="M30 60C46.5685 60 60 46.5685 60 30C60 13.4315 46.5685 0 30 0C13.4315 0 0 13.4315 0 30C0 46.5685 13.4315 60 30 60Z" fill="#F50014"/>
<path d="M39.314 27.8902L26.7068 19.2453C26.1407 18.8336 25.5232 18.6278 25.0601 18.6278C24.0824 18.6278 23.5164 19.3997 23.5164 20.6347V39.3139C23.5164 40.6004 24.0824 41.3208 25.0086 41.3208C25.5232 41.3208 26.0893 41.1149 26.6553 40.7033L39.2625 32.0583C40.0858 31.4923 40.5489 30.7719 40.5489 29.9486C40.5489 29.1252 40.1373 28.4563 39.314 27.8902Z" fill="white"/>
</g>
<defs>
<clipPath id="clip0_30_12">
<rect width="60" height="60" fill="white"/>
</clipPath>
</defs>
</svg>
